{"glyphs":{"0":{"ha":883,"x_min":90,"x_max":793,"o":"m 90 146 l 90 826 l 236 972 l 647 972 l 793 826 l 793 146 l 647 0 l 236 0 l 90 146 m 586 117 l 660 190 l 660 782 l 586 856 l 297 856 l 224 782 l 224 190 l 297 117 l 586 117 z "},"1":{"ha":508,"x_min":49,"x_max":397,"o":"m 264 833 l 49 722 l 49 844 l 282 972 l 397 972 l 397 0 l 264 0 l 264 833 z "},"2":{"ha":775,"x_min":63,"x_max":713,"o":"m 68 194 l 574 682 l 574 794 l 513 856 l 257 856 l 196 794 l 196 713 l 63 713 l 63 838 l 197 972 l 572 972 l 707 838 l 707 643 l 204 161 l 204 115 l 713 115 l 713 0 l 68 0 l 68 194 z "},"3":{"ha":815,"x_min":63,"x_max":732,"o":"m 63 135 l 63 258 l 196 258 l 196 178 l 257 117 l 538 117 l 599 178 l 599 371 l 539 431 l 261 431 l 261 547 l 539 547 l 599 607 l 599 794 l 538 856 l 265 856 l 204 794 l 204 714 l 71 714 l 71 838 l 206 972 l 597 972 l 732 838 l 732 568 l 651 489 l 732 408 l 732 135 l 597 0 l 197 0 l 63 135 z "},"4":{"ha":782,"x_min":28,"x_max":754,"o":"m 503 193 l 28 193 l 28 365 l 449 972 l 636 972 l 636 310 l 754 310 l 754 193 l 636 193 l 636 0 l 503 0 l 503 193 m 506 306 l 506 843 l 499 843 l 158 349 l 158 306 l 506 306 z "},"5":{"ha":819,"x_min":76,"x_max":743,"o":"m 76 135 l 76 260 l 210 260 l 210 178 l 271 117 l 549 117 l 610 178 l 610 436 l 549 496 l 90 496 l 90 972 l 724 972 l 724 857 l 221 857 l 221 613 l 607 613 l 743 476 l 743 135 l 608 0 l 211 0 l 76 135 z "},"6":{"ha":842,"x_min":90,"x_max":765,"o":"m 90 135 l 90 838 l 225 972 l 625 972 l 760 838 l 760 718 l 626 718 l 626 794 l 564 856 l 286 856 l 224 794 l 224 499 l 326 600 l 631 600 l 765 465 l 765 135 l 631 0 l 225 0 l 90 135 m 569 117 l 632 178 l 632 422 l 569 483 l 351 483 l 224 356 l 224 178 l 286 117 l 569 117 z "},"7":{"ha":703,"x_min":21,"x_max":654,"o":"m 518 817 l 518 856 l 21 856 l 21 972 l 654 972 l 654 810 l 271 0 l 129 0 l 518 817 z "},"8":{"ha":864,"x_min":83,"x_max":781,"o":"m 83 135 l 83 414 l 171 501 l 97 575 l 97 838 l 232 972 l 632 972 l 767 838 l 767 575 l 693 501 l 781 414 l 781 135 l 646 0 l 218 0 l 83 135 m 571 551 l 633 613 l 633 794 l 571 856 l 293 856 l 231 794 l 231 613 l 293 551 l 571 551 m 585 117 l 647 178 l 647 375 l 585 438 l 279 438 l 217 375 l 217 178 l 279 117 l 585 117 z "},"9":{"ha":849,"x_min":83,"x_max":758,"o":"m 97 135 l 97 249 l 231 249 l 231 178 l 293 117 l 563 117 l 625 178 l 625 458 l 533 367 l 218 367 l 83 501 l 83 838 l 218 972 l 624 972 l 758 838 l 758 135 l 624 0 l 232 0 l 97 135 m 511 483 l 625 597 l 625 794 l 563 856 l 279 856 l 217 794 l 217 544 l 279 483 l 511 483 z "},"\u0000":{"ha":0,"x_min":0,"x_max":0,"o":""},"\r":{"ha":351,"x_min":0,"x_max":0,"o":""}," ":{"ha":351,"x_min":0,"x_max":0,"o":""},"A":{"ha":874,"x_min":21,"x_max":853,"o":"m 369 972 l 503 972 l 853 0 l 715 0 l 629 247 l 244 247 l 158 0 l 21 0 l 369 972 m 594 360 l 438 814 l 435 814 l 281 360 l 594 360 z "},"Á":{"ha":874,"x_min":21,"x_max":853,"o":"m 369 972 l 503 972 l 853 0 l 715 0 l 629 247 l 244 247 l 158 0 l 21 0 l 369 972 m 594 360 l 438 814 l 435 814 l 281 360 l 594 360 m 485 1275 l 628 1275 l 499 1051 l 381 1051 l 485 1275 z "},"Ă":{"ha":874,"x_min":21,"x_max":853,"o":"m 369 972 l 503 972 l 853 0 l 715 0 l 629 247 l 244 247 l 158 0 l 21 0 l 369 972 m 594 360 l 438 814 l 435 814 l 281 360 l 594 360 m 232 1156 l 232 1247 l 342 1247 l 342 1186 l 388 1140 l 488 1140 l 533 1186 l 533 1247 l 643 1247 l 643 1156 l 538 1051 l 338 1051 l 232 1156 z "},"Ắ":{"ha":874,"x_min":21,"x_max":853,"o":"m 369 972 l 503 972 l 853 0 l 715 0 l 629 247 l 244 247 l 158 0 l 21 0 l 369 972 m 594 360 l 438 814 l 435 814 l 281 360 l 594 360 m 474 1476 l 603 1476 l 486 1281 l 382 1281 l 474 1476 m 232 1156 l 232 1247 l 342 1247 l 342 1186 l 388 1140 l 488 1140 l 533 1186 l 533 1247 l 643 1247 l 643 1156 l 538 1051 l 338 1051 l 232 1156 z "},"Ặ":{"ha":874,"x_min":21,"x_max":853,"o":"m 369 972 l 503 972 l 853 0 l 715 0 l 629 247 l 244 247 l 158 0 l 21 0 l 369 972 m 594 360 l 438 814 l 435 814 l 281 360 l 594 360 m 232 1156 l 232 1247 l 342 1247 l 342 1186 l 388 1140 l 488 1140 l 533 1186 l 533 1247 l 643 1247 l 643 1156 l 538 1051 l 338 1051 l 232 1156 z "},"Ằ":{"ha":874,"x_min":21,"x_max":853,"o":"m 369 972 l 503 972 l 853 0 l 715 0 l 629 247 l 244 247 l 158 0 l 21 0 l 369 972 m 594 360 l 438 814 l 435 814 l 281 360 l 594 360 m 274 1476 l 403 1476 l 494 1281 l 390 1281 l 274 1476 m 232 1156 l 232 1247 l 342 1247 l 342 1186 l 388 1140 l 488 1140 l 533 1186 l 533 1247 l 643 1247 l 643 1156 l 538 1051 l 338 1051 l 232 1156 z "},"Ẳ":{"ha":874,"x_min":21,"x_max":853,"o":"m 369 972 l 503 972 l 853 0 l 715 0 l 629 247 l 244 247 l 158 0 l 21 0 l 369 972 m 594 360 l 438 814 l 435 814 l 281 360 l 594 360 m 385 1326 l 489 1411 l 489 1443 l 469 1461 l 406 1461 l 385 1440 l 385 1404 l 292 1404 l 292 1468 l 365 1540 l 510 1540 l 583 1468 l 583 1385 l 489 1311 l 489 1275 l 385 1275 l 385 1326 m 232 1156 l 232 1247 l 342 1247 l 342 1186 l 388 1140 l 488 1140 l 533 1186 l 533 1247 l 643 1247 l 643 1156 l 538 1051 l 338 1051 l 232 1156 z "},"Ẵ":{"ha":874,"x_min":21,"x_max":853,"o":"m 369 972 l 503 972 l 853 0 l 715 0 l 629 247 l 244 247 l 158 0 l 21 0 l 369 972 m 594 360 l 438 814 l 435 814 l 281 360 l 594 360 m 383 1369 l 353 1369 l 329 1347 l 329 1308 l 236 1308 l 236 1374 l 317 1454 l 407 1454 l 492 1385 l 524 1385 l 546 1407 l 546 1446 l 639 1446 l 639 1381 l 558 1300 l 468 1300 l 383 1369 m 232 1156 l 232 1247 l 342 1247 l 342 1186 l 388 1140 l 488 1140 l 533 1186 l 533 1247 l 643 1247 l 643 1156 l 538 1051 l 338 1051 l 232 1156 z "},"Ǎ":{"ha":874,"x_min":21,"x_max":853,"o":"m 369 972 l 503 972 l 853 0 l 715 0 l 629 247 l 244 247 l 158 0 l 21 0 l 369 972 m 594 360 l 438 814 l 435 814 l 281 360 l 594 360 m 218 1256 l 343 1256 l 433 1138 l 442 1138 l 532 1256 l 657 1256 l 496 1051 l 379 1051 l 218 1256 z "},"Â":{"ha":874,"x_min":21,"x_max":853,"o":"m 369 972 l 503 972 l 853 0 l 715 0 l 629 247 l 244 247 l 158 0 l 21 0 l 369 972 m 594 360 l 438 814 l 435 814 l 281 360 l 594 360 m 379 1256 l 496 1256 l 657 1051 l 532 1051 l 442 1169 l 433 1169 l 343 1051 l 218 1051 l 379 1256 z "},"Ấ":{"ha":874,"x_min":21,"x_max":853,"o":"m 369 972 l 503 972 l 853 0 l 715 0 l 629 247 l 244 247 l 158 0 l 21 0 l 369 972 m 594 360 l 438 814 l 435 814 l 281 360 l 594 360 m 667 1451 l 796 1451 l 679 1254 l 575 1254 l 667 1451 m 379 1256 l 496 1256 l 657 1051 l 532 1051 l 442 1169 l 433 1169 l 343 1051 l 218 1051 l 379 1256 z "},"Ậ":{"ha":874,"x_min":21,"x_max":853,"o":"m 369 972 l 503 972 l 853 0 l 715 0 l 629 247 l 244 247 l 158 0 l 21 0 l 369 972 m 594 360 l 438 814 l 435 814 l 281 360 l 594 360 m 379 1256 l 496 1256 l 657 1051 l 532 1051 l 442 1169 l 433 1169 l 343 1051 l 218 1051 l 379 1256 z "},"Ầ":{"ha":874,"x_min":21,"x_max":853,"o":"m 369 972 l 503 972 l 853 0 l 715 0 l 629 247 l 244 247 l 158 0 l 21 0 l 369 972 m 594 360 l 438 814 l 435 814 l 281 360 l 594 360 m 496 1451 l 625 1451 l 717 1254 l 613 1254 l 496 1451 m 379 1256 l 496 1256 l 657 1051 l 532 1051 l 442 1169 l 433 1169 l 343 1051 l 218 1051 l 379 1256 z "},"Ẩ":{"ha":874,"x_min":21,"x_max":853,"o":"m 369 972 l 503 972 l 853 0 l 715 0 l 629 247 l 244 247 l 158 0 l 21 0 l 369 972 m 594 360 l 438 814 l 435 814 l 281 360 l 594 360 m 594 1260 l 694 1346 l 694 1379 l 675 1397 l 615 1397 l 594 1376 l 594 1339 l 501 1339 l 501 1404 l 575 1478 l 715 1478 l 789 1404 l 789 1319 l 699 1246 l 699 1208 l 594 1208 l 594 1260 m 379 1256 l 496 1256 l 657 1051 l 532 1051 l 442 1169 l 433 1169 l 343 1051 l 218 1051 l 379 1256 z "},"Ẫ":{"ha":874,"x_min":21,"x_max":853,"o":"m 369 972 l 503 972 l 853 0 l 715 0 l 629 247 l 244 247 l 158 0 l 21 0 l 369 972 m 594 360 l 438 814 l 435 814 l 281 360 l 594 360 m 383 1371 l 353 1371 l 329 1347 l 329 1310 l 236 1310 l 236 1375 l 317 1456 l 407 1456 l 492 1386 l 524 1386 l 546 1408 l 546 1447 l 639 1447 l 639 1382 l 558 1301 l 468 1301 l 383 1371 m 379 1256 l 496 1256 l 657 1051 l 532 1051 l 442 1169 l 433 1169 l 343 1051 l 218 1051 l 379 1256 z "},"Ä":{"ha":874,"x_min":21,"x_max":853,"o":"m 369 972 l 503 972 l 853 0 l 715 0 l 629 247 l 244 247 l 158 0 l 21 0 l 369 972 m 594 360 l 438 814 l 435 814 l 281 360 l 594 360 m 217 1107 l 217 1174 l 260 1217 l 332 1217 l 374 1174 l 374 1107 l 332 1064 l 260 1064 l 217 1107 m 501 1107 l 501 1174 l 543 1217 l 615 1217 l 658 1174 l 658 1107 l 615 1064 l 543 1064 l 501 1107 z "},"Ạ":{"ha":874,"x_min":21,"x_max":853,"o":"m 369 972 l 503 972 l 853 0 l 715 0 l 629 247 l 244 247 l 158 0 l 21 0 l 369 972 m 594 360 l 438 814 l 435 814 l 281 360 l 594 360 z "},"À":{"ha":874,"x_min":21,"x_max":853,"o":"m 369 972 l 503 972 l 853 0 l 715 0 l 629 247 l 244 247 l 158 0 l 21 0 l 369 972 m 594 360 l 438 814 l 435 814 l 281 360 l 594 360 m 242 1275 l 385 1275 l 489 1051 l 371 1051 l 242 1275 z "},"Ả":{"ha":874,"x_min":21,"x_max":853,"o":"m 369 972 l 503 972 l 853 0 l 715 0 l 629 247 l 244 247 l 158 0 l 21 0 l 369 972 m 594 360 l 438 814 l 435 814 l 281 360 l 594 360 m 381 1113 l 490 1211 l 490 1250 l 471 1271 l 401 1271 l 379 1249 l 379 1207 l 279 1207 l 279 1279 l 357 1358 l 518 1358 l 596 1279 l 596 1188 l 496 1096 l 496 1051 l 381 1051 l 381 1113 z "},"Ā":{"ha":874,"x_min":21,"x_max":853,"o":"m 369 972 l 503 972 l 853 0 l 715 0 l 629 247 l 244 247 l 158 0 l 21 0 l 369 972 m 594 360 l 438 814 l 435 814 l 281 360 l 594 360 m 229 1179 l 646 1179 l 646 1074 l 229 1074 l 229 1179 z "},"Ą":{"ha":874,"x_min":21,"x_max":900,"o":"m 369 972 l 503 972 l 853 0 l 715 0 l 629 247 l 244 247 l 158 0 l 21 0 l 369 972 m 594 360 l 438 814 l 435 814 l 281 360 l 594 360 m 650 -197 l 650 -93 l 736 0 l 851 0 l 763 -104 l 763 -157 l 794 -189 l 900 -189 l 900 -281 l 733 -281 l 650 -197 z "},"Å":{"ha":874,"x_min":21,"x_max":853,"o":"m 369 972 l 503 972 l 853 0 l 715 0 l 629 247 l 244 247 l 158 0 l 21 0 l 369 972 m 594 360 l 438 814 l 435 814 l 281 360 l 594 360 m 286 1126 l 286 1250 l 371 1335 l 504 1335 l 589 1250 l 589 1126 l 504 1042 l 371 1042 l 286 1126 m 469 1122 l 504 1158 l 504 1218 l 469 1253 l 406 1253 l 371 1218 l 371 1158 l 406 1122 l 469 1122 z "},"Ǻ":{"ha":874,"x_min":21,"x_max":853,"o":"m 369 972 l 503 972 l 853 0 l 715 0 l 629 247 l 244 247 l 158 0 l 21 0 l 369 972 m 594 360 l 438 814 l 435 814 l 281 360 l 594 360 m 286 1126 l 286 1250 l 371 1335 l 504 1335 l 589 1250 l 589 1126 l 504 1042 l 371 1042 l 286 1126 m 469 1122 l 504 1158 l 504 1218 l 469 1253 l 406 1253 l 371 1218 l 371 1158 l 406 1122 l 469 1122 m 485 1624 l 628 1624 l 499 1400 l 381 1400 l 485 1624 z "},"Ã":{"ha":874,"x_min":21,"x_max":853,"o":"m 369 972 l 503 972 l 853 0 l 715 0 l 629 247 l 244 247 l 158 0 l 21 0 l 369 972 m 594 360 l 438 814 l 435 814 l 281 360 l 594 360 m 379 1138 l 351 1138 l 328 1114 l 328 1074 l 231 1074 l 231 1147 l 311 1229 l 407 1229 l 496 1157 l 525 1157 l 547 1179 l 547 1221 l 644 1221 l 644 1146 l 564 1065 l 468 1065 l 379 1138 z "},"Æ":{"ha":1299,"x_min":14,"x_max":1236,"o":"m 739 854 l 739 546 l 1196 546 l 1196 429 l 739 429 l 739 118 l 1236 118 l 1236 0 l 606 0 l 606 258 l 267 258 l 154 0 l 14 0 l 444 972 l 1236 972 l 1236 854 l 739 854 m 606 374 l 606 854 l 525 854 l 317 374 l 606 374 z "},"Ǽ":{"ha":1299,"x_min":14,"x_max":1236,"o":"m 739 854 l 739 546 l 1196 546 l 1196 429 l 739 429 l 739 118 l 1236 118 l 1236 0 l 606 0 l 606 258 l 267 258 l 154 0 l 14 0 l 444 972 l 1236 972 l 1236 854 l 739 854 m 606 374 l 606 854 l 525 854 l 317 374 l 606 374 m 760 1275 l 903 1275 l 774 1051 l 656 1051 l 760 1275 z "},"B":{"ha":908,"x_min":104,"x_max":846,"o":"m 104 972 l 671 972 l 803 840 l 803 571 l 740 507 l 846 400 l 846 140 l 706 0 l 104 0 l 104 972 m 610 544 l 672 607 l 672 797 l 610 858 l 235 858 l 235 544 l 610 544 m 642 114 l 715 186 l 715 361 l 642 435 l 235 435 l 235 114 l 642 114 z "},"C":{"ha":888,"x_min":90,"x_max":832,"o":"m 90 156 l 90 817 l 246 972 l 682 972 l 832 822 l 832 713 l 699 713 l 699 775 l 618 856 l 310 856 l 224 769 l 224 203 l 310 117 l 618 117 l 699 197 l 699 260 l 832 260 l 832 150 l 682 0 l 246 0 l 90 156 z "},"Ć":{"ha":888,"x_min":90,"x_max":832,"o":"m 90 156 l 90 817 l 246 972 l 682 972 l 832 822 l 832 713 l 699 713 l 699 775 l 618 856 l 310 856 l 224 769 l 224 203 l 310 117 l 618 117 l 699 197 l 699 260 l 832 260 l 832 150 l 682 0 l 246 0 l 90 156 m 511 1275 l 654 1275 l 525 1051 l 407 1051 l 511 1275 z "},"Č":{"ha":888,"x_min":90,"x_max":832,"o":"m 90 156 l 90 817 l 246 972 l 682 972 l 832 822 l 832 713 l 699 713 l 699 775 l 618 856 l 310 856 l 224 769 l 224 203 l 310 117 l 618 117 l 699 197 l 699 260 l 832 260 l 832 150 l 682 0 l 246 0 l 90 156 m 244 1256 l 369 1256 l 460 1138 l 468 1138 l 558 1256 l 683 1256 l 522 1051 l 406 1051 l 244 1256 z "},"Ç":{"ha":888,"x_min":90,"x_max":832,"o":"m 699 713 l 699 775 l 618 856 l 310 856 l 224 769 l 224 203 l 310 117 l 618 117 l 699 197 l 699 260 l 832 260 l 832 150 l 682 0 l 500 0 l 474 -65 l 556 -65 l 625 -135 l 625 -246 l 553 -318 l 338 -318 l 338 -236 l 503 -236 l 526 -212 l 526 -168 l 503 -143 l 363 -143 l 363 -93 l 399 0 l 246 0 l 90 156 l 90 817 l 246 972 l 682 972 l 832 822 l 832 713 l 699 713 z "},"Ĉ":{"ha":888,"x_min":90,"x_max":832,"o":"m 90 156 l 90 817 l 246 972 l 682 972 l 832 822 l 832 713 l 699 713 l 699 775 l 618 856 l 310 856 l 224 769 l 224 203 l 310 117 l 618 117 l 699 197 l 699 260 l 832 260 l 832 150 l 682 0 l 246 0 l 90 156 m 406 1256 l 522 1256 l 683 1051 l 558 1051 l 468 1169 l 460 1169 l 369 1051 l 244 1051 l 406 1256 z "},"Ċ":{"ha":888,"x_min":90,"x_max":832,"o":"m 90 156 l 90 817 l 246 972 l 682 972 l 832 822 l 832 713 l 699 713 l 699 775 l 618 856 l 310 856 l 224 769 l 224 203 l 310 117 l 618 117 l 699 197 l 699 260 l 832 260 l 832 150 l 682 0 l 246 0 l 90 156 m 383 1106 l 383 1175 l 428 1219 l 500 1219 l 544 1175 l 544 1106 l 500 1061 l 428 1061 l 383 1106 z "},"D":{"ha":933,"x_min":104,"x_max":843,"o":"m 104 972 l 686 972 l 843 815 l 843 157 l 686 0 l 104 0 l 104 972 m 624 117 l 710 203 l 710 769 l 624 856 l 238 856 l 238 117 l 624 117 z "},"Ð":{"ha":993,"x_min":28,"x_max":903,"o":"m 903 815 l 903 157 l 746 0 l 164 0 l 164 429 l 28 429 l 28 546 l 164 546 l 164 972 l 746 972 l 903 815 m 769 769 l 683 856 l 297 856 l 297 546 l 525 546 l 525 429 l 297 429 l 297 117 l 683 117 l 769 203 l 769 769 z "},"Ď":{"ha":933,"x_min":104,"x_max":843,"o":"m 104 972 l 686 972 l 843 815 l 843 157 l 686 0 l 104 0 l 104 972 m 624 117 l 710 203 l 710 769 l 624 856 l 238 856 l 238 117 l 624 117 m 239 1256 l 364 1256 l 454 1138 l 463 1138 l 553 1256 l 678 1256 l 517 1051 l 400 1051 l 239 1256 z "},"Đ":{"ha":993,"x_min":28,"x_max":903,"o":"m 903 815 l 903 157 l 746 0 l 164 0 l 164 429 l 28 429 l 28 546 l 164 546 l 164 972 l 746 972 l 903 815 m 769 769 l 683 856 l 297 856 l 297 546 l 525 546 l 525 429 l 297 429 l 297 117 l 683 117 l 769 203 l 769 769 z "},"Ḍ":{"ha":933,"x_min":104,"x_max":843,"o":"m 104 972 l 686 972 l 843 815 l 843 157 l 686 0 l 104 0 l 104 972 m 624 117 l 710 203 l 710 769 l 624 856 l 238 856 l 238 117 l 624 117 z "},"Ḏ":{"ha":933,"x_min":104,"x_max":843,"o":"m 104 972 l 686 972 l 843 815 l 843 157 l 686 0 l 104 0 l 104 972 m 624 117 l 710 203 l 710 769 l 624 856 l 238 856 l 238 117 l 624 117 z "},"E":{"ha":819,"x_min":104,"x_max":757,"o":"m 104 972 l 757 972 l 757 856 l 238 856 l 238 546 l 717 546 l 717 431 l 238 431 l 238 117 l 757 117 l 757 0 l 104 0 l 104 972 z "},"É":{"ha":819,"x_min":104,"x_max":757,"o":"m 104 972 l 757 972 l 757 856 l 238 856 l 238 546 l 717 546 l 717 431 l 238 431 l 238 117 l 757 117 l 757 0 l 104 0 l 104 972 m 486 1275 l 629 1275 l 500 1051 l 382 1051 l 486 1275 z "},"Ĕ":{"ha":819,"x_min":104,"x_max":757,"o":"m 104 972 l 757 972 l 757 856 l 238 856 l 238 546 l 717 546 l 717 431 l 238 431 l 238 117 l 757 117 l 757 0 l 104 0 l 104 972 m 236 1156 l 236 1247 l 346 1247 l 346 1186 l 392 1140 l 492 1140 l 538 1186 l 538 1247 l 647 1247 l 647 1156 l 542 1051 l 342 1051 l 236 1156 z "},"Ě":{"ha":819,"x_min":104,"x_max":757,"o":"m 104 972 l 757 972 l 757 856 l 238 856 l 238 546 l 717 546 l 717 431 l 238 431 l 238 117 l 757 117 l 757 0 l 104 0 l 104 972 m 219 1256 l 344 1256 l 435 1138 l 443 1138 l 533 1256 l 658 1256 l 497 1051 l 381 1051 l 219 1256 z "},"Ê":{"ha":819,"x_min":104,"x_max":757,"o":"m 104 972 l 757 972 l 757 856 l 238 856 l 238 546 l 717 546 l 717 431 l 238 431 l 238 117 l 757 117 l 757 0 l 104 0 l 104 972 m 381 1256 l 497 1256 l 658 1051 l 533 1051 l 443 1169 l 435 1169 l 344 1051 l 219 1051 l 381 1256 z "},"Ế":{"ha":819,"x_min":104,"x_max":797,"o":"m 104 972 l 757 972 l 757 856 l 238 856 l 238 546 l 717 546 l 717 431 l 238 431 l 238 117 l 757 117 l 757 0 l 104 0 l 104 972 m 668 1451 l 797 1451 l 681 1254 l 576 1254 l 668 1451 m 381 1256 l 497 1256 l 658 1051 l 533 1051 l 443 1169 l 435 1169 l 344 1051 l 219 1051 l 381 1256 z "},"Ệ":{"ha":819,"x_min":104,"x_max":757,"o":"m 104 972 l 757 972 l 757 856 l 238 856 l 238 546 l 717 546 l 717 431 l 238 431 l 238 117 l 757 117 l 757 0 l 104 0 l 104 972 m 381 1256 l 497 1256 l 658 1051 l 533 1051 l 443 1169 l 435 1169 l 344 1051 l 219 1051 l 381 1256 z "},"Ề":{"ha":819,"x_min":104,"x_max":757,"o":"m 104 972 l 757 972 l 757 856 l 238 856 l 238 546 l 717 546 l 717 431 l 238 431 l 238 117 l 757 117 l 757 0 l 104 0 l 104 972 m 497 1451 l 626 1451 l 718 1254 l 614 1254 l 497 1451 m 381 1256 l 497 1256 l 658 1051 l 533 1051 l 443 1169 l 435 1169 l 344 1051 l 219 1051 l 381 1256 z "},"Ể":{"ha":819,"x_min":104,"x_max":790,"o":"m 104 972 l 757 972 l 757 856 l 238 856 l 238 546 l 717 546 l 717 431 l 238 431 l 238 117 l 757 117 l 757 0 l 104 0 l 104 972 m 596 1260 l 696 1346 l 696 1379 l 676 1397 l 617 1397 l 596 1376 l 596 1339 l 503 1339 l 503 1404 l 576 1478 l 717 1478 l 790 1404 l 790 1319 l 700 1246 l 700 1208 l 596 1208 l 596 1260 m 381 1256 l 497 1256 l 658 1051 l 533 1051 l 443 1169 l 435 1169 l 344 1051 l 219 1051 l 381 1256 z "},"Ễ":{"ha":819,"x_min":104,"x_max":757,"o":"m 104 972 l 757 972 l 757 856 l 238 856 l 238 546 l 717 546 l 717 431 l 238 431 l 238 117 l 757 117 l 757 0 l 104 0 l 104 972 m 385 1371 l 354 1371 l 331 1347 l 331 1310 l 238 1310 l 238 1375 l 318 1456 l 408 1456 l 493 1386 l 525 1386 l 547 1408 l 547 1447 l 640 1447 l 640 1382 l 560 1301 l 469 1301 l 385 1371 m 381 1256 l 497 1256 l 658 1051 l 533 1051 l 443 1169 l 435 1169 l 344 1051 l 219 1051 l 381 1256 z "},"Ë":{"ha":819,"x_min":104,"x_max":757,"o":"m 104 972 l 757 972 l 757 856 l 238 856 l 238 546 l 717 546 l 717 431 l 238 431 l 238 117 l 757 117 l 757 0 l 104 0 l 104 972 m 218 1107 l 218 1174 l 261 1217 l 333 1217 l 375 1174 l 375 1107 l 333 1064 l 261 1064 l 218 1107 m 503 1107 l 503 1174 l 544 1217 l 617 1217 l 660 1174 l 660 1107 l 617 1064 l 544 1064 l 503 1107 z "},"Ė":{"ha":819,"x_min":104,"x_max":757,"o":"m 104 972 l 757 972 l 757 856 l 238 856 l 238 546 l 717 546 l 717 431 l 238 431 l 238 117 l 757 117 l 757 0 l 104 0 l 104 972 m 358 1106 l 358 1175 l 403 1219 l 475 1219 l 519 1175 l 519 1106 l 475 1061 l 403 1061 l 358 1106 z "},"Ẹ":{"ha":819,"x_min":104,"x_max":757,"o":"m 104 972 l 757 972 l 757 856 l 238 856 l 238 546 l 717 546 l 717 431 l 238 431 l 238 117 l 757 117 l 757 0 l 104 0 l 104 972 z "},"È":{"ha":819,"x_min":104,"x_max":757,"o":"m 104 972 l 757 972 l 757 856 l 238 856 l 238 546 l 717 546 l 717 431 l 238 431 l 238 117 l 757 117 l 757 0 l 104 0 l 104 972 m 264 1275 l 407 1275 l 511 1051 l 393 1051 l 264 1275 z "},"Ẻ":{"ha":819,"x_min":104,"x_max":757,"o":"m 104 972 l 757 972 l 757 856 l 238 856 l 238 546 l 717 546 l 717 431 l 238 431 l 238 117 l 757 117 l 757 0 l 104 0 l 104 972 m 382 1113 l 492 1211 l 492 1250 l 472 1271 l 403 1271 l 381 1249 l 381 1207 l 281 1207 l 281 1279 l 358 1358 l 519 1358 l 597 1279 l 597 1188 l 497 1096 l 497 1051 l 382 1051 l 382 1113 z "},"Ē":{"ha":819,"x_min":104,"x_max":757,"o":"m 104 972 l 757 972 l 757 856 l 238 856 l 238 546 l 717 546 l 717 431 l 238 431 l 238 117 l 757 117 l 757 0 l 104 0 l 104 972 m 231 1179 l 647 1179 l 647 1074 l 231 1074 l 231 1179 z "},"Ę":{"ha":819,"x_min":104,"x_max":806,"o":"m 104 972 l 757 972 l 757 856 l 238 856 l 238 546 l 717 546 l 717 431 l 238 431 l 238 117 l 757 117 l 757 0 l 104 0 l 104 972 m 556 -197 l 556 -93 l 642 0 l 757 0 l 668 -104 l 668 -157 l 700 -189 l 806 -189 l 806 -281 l 639 -281 l 556 -197 z "},"Ẽ":{"ha":819,"x_min":104,"x_max":757,"o":"m 104 972 l 757 972 l 757 856 l 238 856 l 238 546 l 717 546 l 717 431 l 238 431 l 238 117 l 757 117 l 757 0 l 104 0 l 104 972 m 381 1138 l 353 1138 l 329 1114 l 329 1074 l 232 1074 l 232 1147 l 313 1229 l 408 1229 l 497 1157 l 526 1157 l 549 1179 l 549 1221 l 646 1221 l 646 1146 l 565 1065 l 469 1065 l 381 1138 z "},"F":{"ha":778,"x_min":104,"x_max":743,"o":"m 104 972 l 743 972 l 743 856 l 238 856 l 238 533 l 676 533 l 676 417 l 238 417 l 238 0 l 104 0 l 104 972 z "},"G":{"ha":917,"x_min":90,"x_max":840,"o":"m 90 156 l 90 817 l 246 972 l 690 972 l 840 822 l 840 713 l 707 713 l 707 775 l 626 856 l 310 856 l 224 769 l 224 203 l 310 117 l 624 117 l 708 201 l 708 401 l 493 401 l 493 518 l 840 518 l 840 156 l 685 0 l 246 0 l 90 156 z "},"Ğ":{"ha":917,"x_min":90,"x_max":840,"o":"m 90 156 l 90 817 l 246 972 l 690 972 l 840 822 l 840 713 l 707 713 l 707 775 l 626 856 l 310 856 l 224 769 l 224 203 l 310 117 l 624 117 l 708 201 l 708 401 l 493 401 l 493 518 l 840 518 l 840 156 l 685 0 l 246 0 l 90 156 m 258 1156 l 258 1247 l 368 1247 l 368 1186 l 414 1140 l 514 1140 l 560 1186 l 560 1247 l 669 1247 l 669 1156 l 564 1051 l 364 1051 l 258 1156 z "},"Ǧ":{"ha":917,"x_min":90,"x_max":840,"o":"m 90 156 l 90 817 l 246 972 l 690 972 l 840 822 l 840 713 l 707 713 l 707 775 l 626 856 l 310 856 l 224 769 l 224 203 l 310 117 l 624 117 l 708 201 l 708 401 l 493 401 l 493 518 l 840 518 l 840 156 l 685 0 l 246 0 l 90 156 m 244 1256 l 369 1256 l 460 1138 l 468 1138 l 558 1256 l 683 1256 l 522 1051 l 406 1051 l 244 1256 z "},"Ĝ":{"ha":917,"x_min":90,"x_max":840,"o":"m 90 156 l 90 817 l 246 972 l 690 972 l 840 822 l 840 713 l 707 713 l 707 775 l 626 856 l 310 856 l 224 769 l 224 203 l 310 117 l 624 117 l 708 201 l 708 401 l 493 401 l 493 518 l 840 518 l 840 156 l 685 0 l 246 0 l 90 156 m 406 1256 l 522 1256 l 683 1051 l 558 1051 l 468 1169 l 460 1169 l 369 1051 l 244 1051 l 406 1256 z "},"Ģ":{"ha":917,"x_min":90,"x_max":840,"o":"m 90 156 l 90 817 l 246 972 l 690 972 l 840 822 l 840 713 l 707 713 l 707 775 l 626 856 l 310 856 l 224 769 l 224 203 l 310 117 l 624 117 l 708 201 l 708 401 l 493 401 l 493 518 l 840 518 l 840 156 l 685 0 l 246 0 l 90 156 z "},"Ġ":{"ha":917,"x_min":90,"x_max":840,"o":"m 90 156 l 90 817 l 246 972 l 690 972 l 840 822 l 840 713 l 707 713 l 707 775 l 626 856 l 310 856 l 224 769 l 224 203 l 310 117 l 624 117 l 708 201 l 708 401 l 493 401 l 493 518 l 840 518 l 840 156 l 685 0 l 246 0 l 90 156 m 383 1106 l 383 1175 l 428 1219 l 500 1219 l 544 1175 l 544 1106 l 500 1061 l 428 1061 l 383 1106 z "},"Ḡ":{"ha":917,"x_min":90,"x_max":840,"o":"m 90 156 l 90 817 l 246 972 l 690 972 l 840 822 l 840 713 l 707 713 l 707 775 l 626 856 l 310 856 l 224 769 l 224 203 l 310 117 l 624 117 l 708 201 l 708 401 l 493 401 l 493 518 l 840 518 l 840 156 l 685 0 l 246 0 l 90 156 m 256 1179 l 672 1179 l 672 1074 l 256 1074 l 256 1179 z "},"H":{"ha":947,"x_min":104,"x_max":843,"o":"m 104 972 l 238 972 l 238 543 l 710 543 l 710 972 l 843 972 l 843 0 l 710 0 l 710 426 l 238 426 l 238 0 l 104 0 l 104 972 z "},"Ħ":{"ha":1063,"x_min":28,"x_max":1035,"o":"m 1035 700 l 900 700 l 900 0 l 767 0 l 767 426 l 294 426 l 294 0 l 161 0 l 161 700 l 28 700 l 28 801 l 161 801 l 161 972 l 294 972 l 294 801 l 767 801 l 767 972 l 900 972 l 900 801 l 1035 801 l 1035 700 m 767 700 l 294 700 l 294 543 l 767 543 l 767 700 z "},"Ḫ":{"ha":947,"x_min":104,"x_max":843,"o":"m 104 972 l 238 972 l 238 543 l 710 543 l 710 972 l 843 972 l 843 0 l 710 0 l 710 426 l 238 426 l 238 0 l 104 0 l 104 972 z "},"Ĥ":{"ha":947,"x_min":104,"x_max":843,"o":"m 104 972 l 238 972 l 238 543 l 710 543 l 710 972 l 843 972 l 843 0 l 710 0 l 710 426 l 238 426 l 238 0 l 104 0 l 104 972 m 414 1256 l 531 1256 l 692 1051 l 567 1051 l 476 1169 l 468 1169 l 378 1051 l 253 1051 l 414 1256 z "},"Ḥ":{"ha":947,"x_min":104,"x_max":843,"o":"m 104 972 l 238 972 l 238 543 l 710 543 l 710 972 l 843 972 l 843 0 l 710 0 l 710 426 l 238 426 l 238 0 l 104 0 l 104 972 z "},"I":{"ha":356,"x_min":111,"x_max":244,"o":"m 111 972 l 244 972 l 244 0 l 111 0 l 111 972 z "},"Ĳ":{"ha":1104,"x_min":111,"x_max":1007,"o":"m 111 972 l 244 972 l 244 0 l 111 0 l 111 972 m 363 158 l 363 310 l 492 310 l 492 203 l 579 117 l 799 117 l 874 190 l 874 972 l 1007 972 l 1007 147 l 860 0 l 519 0 l 363 158 z "},"Í":{"ha":356,"x_min":111,"x_max":368,"o":"m 111 972 l 244 972 l 244 0 l 111 0 l 111 972 m 225 1275 l 368 1275 l 239 1051 l 121 1051 l 225 1275 z "},"Ĭ":{"ha":356,"x_min":-28,"x_max":383,"o":"m 111 972 l 244 972 l 244 0 l 111 0 l 111 972 m -28 1156 l -28 1247 l 82 1247 l 82 1186 l 128 1140 l 228 1140 l 274 1186 l 274 1247 l 383 1247 l 383 1156 l 278 1051 l 78 1051 l -28 1156 z "},"Ǐ":{"ha":356,"x_min":-42,"x_max":397,"o":"m 111 972 l 244 972 l 244 0 l 111 0 l 111 972 m -42 1256 l 83 1256 l 174 1138 l 182 1138 l 272 1256 l 397 1256 l 236 1051 l 119 1051 l -42 1256 z "},"Î":{"ha":356,"x_min":-42,"x_max":397,"o":"m 111 972 l 244 972 l 244 0 l 111 0 l 111 972 m 119 1256 l 236 1256 l 397 1051 l 272 1051 l 182 1169 l 174 1169 l 83 1051 l -42 1051 l 119 1256 z "},"Ï":{"ha":356,"x_min":-43,"x_max":399,"o":"m 111 972 l 244 972 l 244 0 l 111 0 l 111 972 m -43 1107 l -43 1174 l 0 1217 l 72 1217 l 114 1174 l 114 1107 l 72 1064 l 0 1064 l -43 1107 m 242 1107 l 242 1174 l 283 1217 l 356 1217 l 399 1174 l 399 1107 l 356 1064 l 283 1064 l 242 1107 z "},"İ":{"ha":356,"x_min":97,"x_max":258,"o":"m 111 972 l 244 972 l 244 0 l 111 0 l 111 972 m 97 1106 l 97 1175 l 142 1219 l 214 1219 l 258 1175 l 258 1106 l 214 1061 l 142 1061 l 97 1106 z "},"Ị":{"ha":356,"x_min":97,"x_max":258,"o":"m 111 972 l 244 972 l 244 0 l 111 0 l 111 972 z "},"Ì":{"ha":356,"x_min":-18,"x_max":244,"o":"m 111 972 l 244 972 l 244 0 l 111 0 l 111 972 m -18 1275 l 125 1275 l 229 1051 l 111 1051 l -18 1275 z "},"Ỉ":{"ha":356,"x_min":19,"x_max":336,"o":"m 111 972 l 244 972 l 244 0 l 111 0 l 111 972 m 121 1113 l 231 1211 l 231 1250 l 211 1271 l 142 1271 l 119 1249 l 119 1207 l 19 1207 l 19 1279 l 97 1358 l 258 1358 l 336 1279 l 336 1188 l 236 1096 l 236 1051 l 121 1051 l 121 1113 z "},"Ī":{"ha":356,"x_min":-31,"x_max":386,"o":"m 111 972 l 244 972 l 244 0 l 111 0 l 111 972 m -31 1179 l 386 1179 l 386 1074 l -31 1074 l -31 1179 z "},"Į":{"ha":356,"x_min":43,"x_max":293,"o":"m 111 972 l 244 972 l 244 0 l 111 0 l 111 972 m 43 -197 l 43 -93 l 129 0 l 244 0 l 156 -104 l 156 -157 l 188 -189 l 293 -189 l 293 -281 l 126 -281 l 43 -197 z "},"Ĩ":{"ha":356,"x_min":-29,"x_max":385,"o":"m 111 972 l 244 972 l 244 0 l 111 0 l 111 972 m 119 1138 l 92 1138 l 68 1114 l 68 1074 l -29 1074 l -29 1147 l 51 1229 l 147 1229 l 236 1157 l 265 1157 l 288 1179 l 288 1221 l 385 1221 l 385 1146 l 304 1065 l 208 1065 l 119 1138 z "},"J":{"ha":783,"x_min":42,"x_max":686,"o":"m 42 158 l 42 310 l 171 310 l 171 203 l 258 117 l 478 117 l 553 190 l 553 972 l 686 972 l 686 147 l 539 0 l 199 0 l 42 158 z "},"Ĵ":{"ha":783,"x_min":42,"x_max":838,"o":"m 42 158 l 42 310 l 171 310 l 171 203 l 258 117 l 478 117 l 553 190 l 553 972 l 686 972 l 686 147 l 539 0 l 199 0 l 42 158 m 560 1256 l 676 1256 l 838 1051 l 713 1051 l 622 1169 l 614 1169 l 524 1051 l 399 1051 l 560 1256 z "},"K":{"ha":872,"x_min":104,"x_max":851,"o":"m 104 972 l 238 972 l 238 543 l 438 543 l 683 972 l 831 972 l 551 488 l 851 0 l 701 0 l 438 426 l 238 426 l 238 0 l 104 0 l 104 972 z "},"Ķ":{"ha":872,"x_min":104,"x_max":851,"o":"m 104 972 l 238 972 l 238 543 l 438 543 l 683 972 l 831 972 l 551 488 l 851 0 l 701 0 l 438 426 l 238 426 l 238 0 l 104 0 l 104 972 z "},"L":{"ha":757,"x_min":104,"x_max":729,"o":"m 104 972 l 238 972 l 238 115 l 729 115 l 729 0 l 104 0 l 104 972 z "},"Ĺ":{"ha":757,"x_min":104,"x_max":729,"o":"m 104 972 l 238 972 l 238 115 l 729 115 l 729 0 l 104 0 l 104 972 m 219 1275 l 363 1275 l 233 1051 l 115 1051 l 219 1275 z "},"Ľ":{"ha":846,"x_min":104,"x_max":803,"o":"m 104 972 l 238 972 l 238 115 l 729 115 l 729 0 l 104 0 l 104 972 z "},"Ļ":{"ha":757,"x_min":104,"x_max":729,"o":"m 104 972 l 238 972 l 238 115 l 729 115 l 729 0 l 104 0 l 104 972 z "},"Ŀ":{"ha":771,"x_min":104,"x_max":729,"o":"m 104 972 l 238 972 l 238 115 l 729 115 l 729 0 l 104 0 l 104 972 z "},"Ḷ":{"ha":757,"x_min":104,"x_max":729,"o":"m 104 972 l 238 972 l 238 115 l 729 115 l 729 0 l 104 0 l 104 972 z "},"Ḹ":{"ha":757,"x_min":-36,"x_max":729,"o":"m 104 972 l 238 972 l 238 115 l 729 115 l 729 0 l 104 0 l 104 972 m -36 1179 l 381 1179 l 381 1074 l -36 1074 l -36 1179 z "},"Ḻ":{"ha":757,"x_min":104,"x_max":729,"o":"m 104 972 l 238 972 l 238 115 l 729 115 l 729 0 l 104 0 l 104 972 z "},"Ł":{"ha":803,"x_min":14,"x_max":775,"o":"m 775 115 l 775 0 l 150 0 l 150 363 l 14 275 l 14 394 l 150 482 l 150 972 l 283 972 l 283 568 l 457 679 l 457 560 l 283 449 l 283 115 l 775 115 z "},"M":{"ha":1090,"x_min":104,"x_max":986,"o":"m 104 972 l 239 972 l 543 261 l 546 261 l 851 972 l 986 972 l 986 0 l 858 0 l 858 710 l 856 710 l 592 110 l 497 110 l 235 710 l 232 710 l 232 0 l 104 0 l 104 972 z "},"Ṃ":{"ha":1090,"x_min":104,"x_max":986,"o":"m 104 972 l 239 972 l 543 261 l 546 261 l 851 972 l 986 972 l 986 0 l 858 0 l 858 710 l 856 710 l 592 110 l 497 110 l 235 710 l 232 710 l 232 0 l 104 0 l 104 972 z "},"N":{"ha":946,"x_min":104,"x_max":842,"o":"m 104 972 l 229 972 l 711 219 l 714 219 l 714 972 l 842 972 l 842 0 l 717 0 l 235 753 l 232 753 l 232 0 l 104 0 l 104 972 z "},"Ń":{"ha":946,"x_min":104,"x_max":842,"o":"m 104 972 l 229 972 l 711 219 l 714 219 l 714 972 l 842 972 l 842 0 l 717 0 l 235 753 l 232 753 l 232 0 l 104 0 l 104 972 m 519 1275 l 663 1275 l 533 1051 l 415 1051 l 519 1275 z "},"Ň":{"ha":946,"x_min":104,"x_max":842,"o":"m 104 972 l 229 972 l 711 219 l 714 219 l 714 972 l 842 972 l 842 0 l 717 0 l 235 753 l 232 753 l 232 0 l 104 0 l 104 972 m 253 1256 l 378 1256 l 468 1138 l 476 1138 l 567 1256 l 692 1256 l 531 1051 l 414 1051 l 253 1256 z "},"Ņ":{"ha":946,"x_min":104,"x_max":842,"o":"m 104 972 l 229 972 l 711 219 l 714 219 l 714 972 l 842 972 l 842 0 l 717 0 l 235 753 l 232 753 l 232 0 l 104 0 l 104 972 z "},"Ṅ":{"ha":946,"x_min":104,"x_max":842,"o":"m 104 972 l 229 972 l 711 219 l 714 219 l 714 972 l 842 972 l 842 0 l 717 0 l 235 753 l 232 753 l 232 0 l 104 0 l 104 972 m 392 1106 l 392 1175 l 436 1219 l 508 1219 l 553 1175 l 553 1106 l 508 1061 l 436 1061 l 392 1106 z "},"Ṇ":{"ha":946,"x_min":104,"x_max":842,"o":"m 104 972 l 229 972 l 711 219 l 714 219 l 714 972 l 842 972 l 842 0 l 717 0 l 235 753 l 232 753 l 232 0 l 104 0 l 104 972 z "},"Ŋ":{"ha":946,"x_min":104,"x_max":842,"o":"m 842 972 l 842 -169 l 708 -303 l 504 -303 l 504 -189 l 650 -189 l 713 -128 l 713 7 l 235 753 l 232 753 l 232 0 l 104 0 l 104 972 l 229 972 l 711 219 l 714 219 l 714 972 l 842 972 z "},"Ṉ":{"ha":946,"x_min":104,"x_max":842,"o":"m 104 972 l 229 972 l 711 219 l 714 219 l 714 972 l 842 972 l 842 0 l 717 0 l 235 753 l 232 753 l 232 0 l 104 0 l 104 972 z "},"Ñ":{"ha":946,"x_min":104,"x_max":842,"o":"m 104 972 l 229 972 l 711 219 l 714 219 l 714 972 l 842 972 l 842 0 l 717 0 l 235 753 l 232 753 l 232 0 l 104 0 l 104 972 m 414 1138 l 386 1138 l 363 1114 l 363 1074 l 265 1074 l 265 1147 l 346 1229 l 442 1229 l 531 1157 l 560 1157 l 582 1179 l 582 1221 l 679 1221 l 679 1146 l 599 1065 l 503 1065 l 414 1138 z "},"O":{"ha":950,"x_min":90,"x_max":860,"o":"m 90 156 l 90 817 l 246 972 l 704 972 l 860 817 l 860 156 l 704 0 l 246 0 l 90 156 m 640 117 l 726 203 l 726 769 l 640 856 l 310 856 l 224 769 l 224 203 l 310 117 l 640 117 z "},"Ó":{"ha":950,"x_min":90,"x_max":860,"o":"m 90 156 l 90 817 l 246 972 l 704 972 l 860 817 l 860 156 l 704 0 l 246 0 l 90 156 m 640 117 l 726 203 l 726 769 l 640 856 l 310 856 l 224 769 l 224 203 l 310 117 l 640 117 m 524 1275 l 667 1275 l 538 1051 l 419 1051 l 524 1275 z "},"Ŏ":{"ha":950,"x_min":90,"x_max":860,"o":"m 90 156 l 90 817 l 246 972 l 704 972 l 860 817 l 860 156 l 704 0 l 246 0 l 90 156 m 640 117 l 726 203 l 726 769 l 640 856 l 310 856 l 224 769 l 224 203 l 310 117 l 640 117 m 271 1156 l 271 1247 l 381 1247 l 381 1186 l 426 1140 l 526 1140 l 572 1186 l 572 1247 l 682 1247 l 682 1156 l 576 1051 l 376 1051 l 271 1156 z "},"Ǒ":{"ha":950,"x_min":90,"x_max":860,"o":"m 90 156 l 90 817 l 246 972 l 704 972 l 860 817 l 860 156 l 704 0 l 246 0 l 90 156 m 640 117 l 726 203 l 726 769 l 640 856 l 310 856 l 224 769 l 224 203 l 310 117 l 640 117 m 257 1256 l 382 1256 l 472 1138 l 481 1138 l 571 1256 l 696 1256 l 535 1051 l 418 1051 l 257 1256 z "},"Ô":{"ha":950,"x_min":90,"x_max":860,"o":"m 90 156 l 90 817 l 246 972 l 704 972 l 860 817 l 860 156 l 704 0 l 246 0 l 90 156 m 640 117 l 726 203 l 726 769 l 640 856 l 310 856 l 224 769 l 224 203 l 310 117 l 640 117 m 418 1256 l 535 1256 l 696 1051 l 571 1051 l 481 1169 l 472 1169 l 382 1051 l 257 1051 l 418 1256 z "},"Ố":{"ha":950,"x_min":90,"x_max":860,"o":"m 90 156 l 90 817 l 246 972 l 704 972 l 860 817 l 860 156 l 704 0 l 246 0 l 90 156 m 640 117 l 726 203 l 726 769 l 640 856 l 310 856 l 224 769 l 224 203 l 310 117 l 640 117 m 706 1451 l 835 1451 l 718 1254 l 614 1254 l 706 1451 m 418 1256 l 535 1256 l 696 1051 l 571 1051 l 481 1169 l 472 1169 l 382 1051 l 257 1051 l 418 1256 z "},"Ộ":{"ha":950,"x_min":90,"x_max":860,"o":"m 90 156 l 90 817 l 246 972 l 704 972 l 860 817 l 860 156 l 704 0 l 246 0 l 90 156 m 640 117 l 726 203 l 726 769 l 640 856 l 310 856 l 224 769 l 224 203 l 310 117 l 640 117 m 418 1256 l 535 1256 l 696 1051 l 571 1051 l 481 1169 l 472 1169 l 382 1051 l 257 1051 l 418 1256 z "},"Ồ":{"ha":950,"x_min":90,"x_max":860,"o":"m 90 156 l 90 817 l 246 972 l 704 972 l 860 817 l 860 156 l 704 0 l 246 0 l 90 156 m 640 117 l 726 203 l 726 769 l 640 856 l 310 856 l 224 769 l 224 203 l 310 117 l 640 117 m 535 1451 l 664 1451 l 756 1254 l 651 1254 l 535 1451 m 418 1256 l 535 1256 l 696 1051 l 571 1051 l 481 1169 l 472 1169 l 382 1051 l 257 1051 l 418 1256 z "},"Ổ":{"ha":950,"x_min":90,"x_max":860,"o":"m 90 156 l 90 817 l 246 972 l 704 972 l 860 817 l 860 156 l 704 0 l 246 0 l 90 156 m 640 117 l 726 203 l 726 769 l 640 856 l 310 856 l 224 769 l 224 203 l 310 117 l 640 117 m 633 1260 l 733 1346 l 733 1379 l 714 1397 l 654 1397 l 633 1376 l 633 1339 l 540 1339 l 540 1404 l 614 1478 l 754 1478 l 828 1404 l 828 1319 l 738 1246 l 738 1208 l 633 1208 l 633 1260 m 418 1256 l 535 1256 l 696 1051 l 571 1051 l 481 1169 l 472 1169 l 382 1051 l 257 1051 l 418 1256 z "},"Ỗ":{"ha":950,"x_min":90,"x_max":860,"o":"m 90 156 l 90 817 l 246 972 l 704 972 l 860 817 l 860 156 l 704 0 l 246 0 l 90 156 m 640 117 l 726 203 l 726 769 l 640 856 l 310 856 l 224 769 l 224 203 l 310 117 l 640 117 m 422 1371 l 392 1371 l 368 1347 l 368 1310 l 275 1310 l 275 1375 l 356 1456 l 446 1456 l 531 1386 l 563 1386 l 585 1408 l 585 1447 l 678 1447 l 678 1382 l 597 1301 l 507 1301 l 422 1371 m 418 1256 l 535 1256 l 696 1051 l 571 1051 l 481 1169 l 472 1169 l 382 1051 l 257 1051 l 418 1256 z "},"Ö":{"ha":950,"x_min":90,"x_max":860,"o":"m 90 156 l 90 817 l 246 972 l 704 972 l 860 817 l 860 156 l 704 0 l 246 0 l 90 156 m 640 117 l 726 203 l 726 769 l 640 856 l 310 856 l 224 769 l 224 203 l 310 117 l 640 117 m 256 1107 l 256 1174 l 299 1217 l 371 1217 l 413 1174 l 413 1107 l 371 1064 l 299 1064 l 256 1107 m 540 1107 l 540 1174 l 582 1217 l 654 1217 l 697 1174 l 697 1107 l 654 1064 l 582 1064 l 540 1107 z "},"Ọ":{"ha":950,"x_min":90,"x_max":860,"o":"m 90 156 l 90 817 l 246 972 l 704 972 l 860 817 l 860 156 l 704 0 l 246 0 l 90 156 m 640 117 l 726 203 l 726 769 l 640 856 l 310 856 l 224 769 l 224 203 l 310 117 l 640 117 z "},"Ò":{"ha":950,"x_min":90,"x_max":860,"o":"m 90 156 l 90 817 l 246 972 l 704 972 l 860 817 l 860 156 l 704 0 l 246 0 l 90 156 m 640 117 l 726 203 l 726 769 l 640 856 l 310 856 l 224 769 l 224 203 l 310 117 l 640 117 m 281 1275 l 424 1275 l 528 1051 l 410 1051 l 281 1275 z "},"Ỏ":{"ha":950,"x_min":90,"x_max":860,"o":"m 90 156 l 90 817 l 246 972 l 704 972 l 860 817 l 860 156 l 704 0 l 246 0 l 90 156 m 640 117 l 726 203 l 726 769 l 640 856 l 310 856 l 224 769 l 224 203 l 310 117 l 640 117 m 419 1113 l 529 1211 l 529 1250 l 510 1271 l 440 1271 l 418 1249 l 418 1207 l 318 1207 l 318 1279 l 396 1358 l 557 1358 l 635 1279 l 635 1188 l 535 1096 l 535 1051 l 419 1051 l 419 1113 z "},"Ơ":{"ha":1039,"x_min":90,"x_max":1050,"o":"m 1050 986 l 1050 839 l 929 719 l 860 719 l 860 156 l 704 0 l 246 0 l 90 156 l 90 817 l 246 972 l 704 972 l 856 821 l 875 821 l 933 879 l 933 986 l 1050 986 m 726 769 l 640 856 l 310 856 l 224 769 l 224 203 l 310 117 l 640 117 l 726 203 l 726 769 z "},"Ớ":{"ha":1039,"x_min":90,"x_max":1050,"o":"m 1050 986 l 1050 839 l 929 719 l 860 719 l 860 156 l 704 0 l 246 0 l 90 156 l 90 817 l 246 972 l 704 972 l 856 821 l 875 821 l 933 879 l 933 986 l 1050 986 m 726 769 l 640 856 l 310 856 l 224 769 l 224 203 l 310 117 l 640 117 l 726 203 l 726 769 m 524 1275 l 667 1275 l 538 1051 l 419 1051 l 524 1275 z "},"Ợ":{"ha":1039,"x_min":90,"x_max":1050,"o":"m 1050 986 l 1050 839 l 929 719 l 860 719 l 860 156 l 704 0 l 246 0 l 90 156 l 90 817 l 246 972 l 704 972 l 856 821 l 875 821 l 933 879 l 933 986 l 1050 986 m 726 769 l 640 856 l 310 856 l 224 769 l 224 203 l 310 117 l 640 117 l 726 203 l 726 769 z "},"Ờ":{"ha":1039,"x_min":90,"x_max":1050,"o":"m 1050 986 l 1050 839 l 929 719 l 860 719 l 860 156 l 704 0 l 246 0 l 90 156 l 90 817 l 246 972 l 704 972 l 856 821 l 875 821 l 933 879 l 933 986 l 1050 986 m 726 769 l 640 856 l 310 856 l 224 769 l 224 203 l 310 117 l 640 117 l 726 203 l 726 769 m 281 1275 l 424 1275 l 528 1051 l 410 1051 l 281 1275 z "},"Ở":{"ha":1039,"x_min":90,"x_max":1050,"o":"m 1050 986 l 1050 839 l 929 719 l 860 719 l 860 156 l 704 0 l 246 0 l 90 156 l 90 817 l 246 972 l 704 972 l 856 821 l 875 821 l 933 879 l 933 986 l 1050 986 m 726 769 l 640 856 l 310 856 l 224 769 l 224 203 l 310 117 l 640 117 l 726 203 l 726 769 m 419 1113 l 529 1211 l 529 1250 l 510 1271 l 440 1271 l 418 1249 l 418 1207 l 318 1207 l 318 1279 l 396 1358 l 557 1358 l 635 1279 l 635 1188 l 535 1096 l 535 1051 l 419 1051 l 419 1113 z "},"Ỡ":{"ha":1039,"x_min":90,"x_max":1050,"o":"m 1050 986 l 1050 839 l 929 719 l 860 719 l 860 156 l 704 0 l 246 0 l 90 156 l 90 817 l 246 972 l 704 972 l 856 821 l 875 821 l 933 879 l 933 986 l 1050 986 m 726 769 l 640 856 l 310 856 l 224 769 l 224 203 l 310 117 l 640 117 l 726 203 l 726 769 m 418 1138 l 390 1138 l 367 1114 l 367 1074 l 269 1074 l 269 1147 l 350 1229 l 446 1229 l 535 1157 l 564 1157 l 586 1179 l 586 1221 l 683 1221 l 683 1146 l 603 1065 l 507 1065 l 418 1138 z "},"Ő":{"ha":950,"x_min":90,"x_max":860,"o":"m 90 156 l 90 817 l 246 972 l 704 972 l 860 817 l 860 156 l 704 0 l 246 0 l 90 156 m 640 117 l 726 203 l 726 769 l 640 856 l 310 856 l 224 769 l 224 203 l 310 117 l 640 117 m 406 1275 l 543 1275 l 415 1051 l 303 1051 l 406 1275 m 625 1275 l 761 1275 l 635 1051 l 521 1051 l 625 1275 z "},"Ō":{"ha":950,"x_min":90,"x_max":860,"o":"m 90 156 l 90 817 l 246 972 l 704 972 l 860 817 l 860 156 l 704 0 l 246 0 l 90 156 m 640 117 l 726 203 l 726 769 l 640 856 l 310 856 l 224 769 l 224 203 l 310 117 l 640 117 m 268 1179 l 685 1179 l 685 1074 l 268 1074 l 268 1179 z "},"Ø":{"ha":950,"x_min":19,"x_max":925,"o":"m 813 864 l 860 817 l 860 156 l 704 0 l 246 0 l 206 40 l 143 -46 l 19 -46 l 135 111 l 90 156 l 90 817 l 246 972 l 704 972 l 740 936 l 801 1018 l 925 1018 l 813 864 m 224 232 l 664 832 l 640 856 l 310 856 l 224 769 l 224 232 m 726 747 l 282 144 l 310 117 l 640 117 l 726 203 l 726 747 z "},"Ǿ":{"ha":950,"x_min":19,"x_max":925,"o":"m 813 864 l 860 817 l 860 156 l 704 0 l 246 0 l 206 40 l 143 -46 l 19 -46 l 135 111 l 90 156 l 90 817 l 246 972 l 704 972 l 740 936 l 801 1018 l 925 1018 l 813 864 m 224 232 l 664 832 l 640 856 l 310 856 l 224 769 l 224 232 m 726 747 l 282 144 l 310 117 l 640 117 l 726 203 l 726 747 m 524 1275 l 667 1275 l 538 1051 l 419 1051 l 524 1275 z "},"Õ":{"ha":950,"x_min":90,"x_max":860,"o":"m 90 156 l 90 817 l 246 972 l 704 972 l 860 817 l 860 156 l 704 0 l 246 0 l 90 156 m 640 117 l 726 203 l 726 769 l 640 856 l 310 856 l 224 769 l 224 203 l 310 117 l 640 117 m 418 1138 l 390 1138 l 367 1114 l 367 1074 l 269 1074 l 269 1147 l 350 1229 l 446 1229 l 535 1157 l 564 1157 l 586 1179 l 586 1221 l 683 1221 l 683 1146 l 603 1065 l 507 1065 l 418 1138 z "},"Œ":{"ha":1428,"x_min":90,"x_max":1365,"o":"m 860 854 l 860 546 l 1325 546 l 1325 429 l 860 429 l 860 118 l 1365 118 l 1365 0 l 754 0 l 754 89 l 665 0 l 246 0 l 90 156 l 90 817 l 246 972 l 667 972 l 754 885 l 754 972 l 1365 972 l 1365 854 l 860 854 m 726 761 l 631 856 l 310 856 l 224 769 l 224 203 l 310 117 l 631 117 l 726 211 l 726 761 z "},"P":{"ha":875,"x_min":104,"x_max":813,"o":"m 104 972 l 678 972 l 813 838 l 813 515 l 676 379 l 238 379 l 238 0 l 104 0 l 104 972 m 618 493 l 681 554 l 681 797 l 618 858 l 238 858 l 238 493 l 618 493 z "},"Þ":{"ha":875,"x_min":104,"x_max":813,"o":"m 813 647 l 813 326 l 676 189 l 238 189 l 238 0 l 104 0 l 104 972 l 238 972 l 238 783 l 678 783 l 813 647 m 682 607 l 619 669 l 238 669 l 238 303 l 619 303 l 682 365 l 682 607 z "},"Q":{"ha":950,"x_min":90,"x_max":892,"o":"m 892 -83 l 810 -165 l 647 0 l 246 0 l 90 156 l 90 817 l 246 972 l 704 972 l 860 817 l 860 156 l 757 53 l 892 -83 m 726 203 l 726 769 l 640 856 l 310 856 l 224 769 l 224 203 l 310 117 l 640 117 l 726 203 z "},"R":{"ha":915,"x_min":104,"x_max":818,"o":"m 818 306 l 818 0 l 685 0 l 685 272 l 569 396 l 238 396 l 238 0 l 104 0 l 104 972 l 678 972 l 813 838 l 813 535 l 706 428 l 818 306 m 238 510 l 618 510 l 681 571 l 681 797 l 618 858 l 238 858 l 238 510 z "},"Ŕ":{"ha":915,"x_min":104,"x_max":818,"o":"m 818 306 l 818 0 l 685 0 l 685 272 l 569 396 l 238 396 l 238 0 l 104 0 l 104 972 l 678 972 l 813 838 l 813 535 l 706 428 l 818 306 m 238 510 l 618 510 l 681 571 l 681 797 l 618 858 l 238 858 l 238 510 m 490 1275 l 633 1275 l 504 1051 l 386 1051 l 490 1275 z "},"Ř":{"ha":915,"x_min":104,"x_max":818,"o":"m 818 306 l 818 0 l 685 0 l 685 272 l 569 396 l 238 396 l 238 0 l 104 0 l 104 972 l 678 972 l 813 838 l 813 535 l 706 428 l 818 306 m 238 510 l 618 510 l 681 571 l 681 797 l 618 858 l 238 858 l 238 510 m 224 1256 l 349 1256 l 439 1138 l 447 1138 l 538 1256 l 663 1256 l 501 1051 l 385 1051 l 224 1256 z "},"Ŗ":{"ha":915,"x_min":104,"x_max":818,"o":"m 818 306 l 818 0 l 685 0 l 685 272 l 569 396 l 238 396 l 238 0 l 104 0 l 104 972 l 678 972 l 813 838 l 813 535 l 706 428 l 818 306 m 238 510 l 618 510 l 681 571 l 681 797 l 618 858 l 238 858 l 238 510 z "},"Ṛ":{"ha":915,"x_min":104,"x_max":818,"o":"m 818 306 l 818 0 l 685 0 l 685 272 l 569 396 l 238 396 l 238 0 l 104 0 l 104 972 l 678 972 l 813 838 l 813 535 l 706 428 l 818 306 m 238 510 l 618 510 l 681 571 l 681 797 l 618 858 l 238 858 l 238 510 z "},"Ṝ":{"ha":915,"x_min":104,"x_max":818,"o":"m 818 306 l 818 0 l 685 0 l 685 272 l 569 396 l 238 396 l 238 0 l 104 0 l 104 972 l 678 972 l 813 838 l 813 535 l 706 428 l 818 306 m 238 510 l 618 510 l 681 571 l 681 797 l 618 858 l 238 858 l 238 510 m 235 1179 l 651 1179 l 651 1074 l 235 1074 l 235 1179 z "},"Ṟ":{"ha":915,"x_min":104,"x_max":818,"o":"m 818 306 l 818 0 l 685 0 l 685 272 l 569 396 l 238 396 l 238 0 l 104 0 l 104 972 l 678 972 l 813 838 l 813 535 l 706 428 l 818 306 m 238 510 l 618 510 l 681 571 l 681 797 l 618 858 l 238 858 l 238 510 z "},"S":{"ha":863,"x_min":83,"x_max":786,"o":"m 83 135 l 83 240 l 215 240 l 215 178 l 275 117 l 593 117 l 654 179 l 654 379 l 593 439 l 221 439 l 86 575 l 86 838 l 221 972 l 640 972 l 775 838 l 775 731 l 644 731 l 644 794 l 583 856 l 279 856 l 218 794 l 218 617 l 279 556 l 651 556 l 786 421 l 786 138 l 649 0 l 218 0 l 83 135 z "},"Ś":{"ha":863,"x_min":83,"x_max":786,"o":"m 83 135 l 83 240 l 215 240 l 215 178 l 275 117 l 593 117 l 654 179 l 654 379 l 593 439 l 221 439 l 86 575 l 86 838 l 221 972 l 640 972 l 775 838 l 775 731 l 644 731 l 644 794 l 583 856 l 279 856 l 218 794 l 218 617 l 279 556 l 651 556 l 786 421 l 786 138 l 649 0 l 218 0 l 83 135 m 476 1275 l 619 1275 l 490 1051 l 372 1051 l 476 1275 z "},"Š":{"ha":863,"x_min":83,"x_max":786,"o":"m 83 135 l 83 240 l 215 240 l 215 178 l 275 117 l 593 117 l 654 179 l 654 379 l 593 439 l 221 439 l 86 575 l 86 838 l 221 972 l 640 972 l 775 838 l 775 731 l 644 731 l 644 794 l 583 856 l 279 856 l 218 794 l 218 617 l 279 556 l 651 556 l 786 421 l 786 138 l 649 0 l 218 0 l 83 135 m 210 1256 l 335 1256 l 425 1138 l 433 1138 l 524 1256 l 649 1256 l 488 1051 l 371 1051 l 210 1256 z "},"Ş":{"ha":863,"x_min":83,"x_max":786,"o":"m 786 421 l 786 138 l 649 0 l 485 0 l 458 -65 l 540 -65 l 610 -135 l 610 -246 l 538 -318 l 322 -318 l 322 -236 l 488 -236 l 511 -212 l 511 -168 l 488 -143 l 347 -143 l 347 -93 l 383 0 l 218 0 l 83 135 l 83 240 l 215 240 l 215 178 l 275 117 l 593 117 l 654 179 l 654 379 l 593 439 l 221 439 l 86 575 l 86 838 l 221 972 l 640 972 l 775 838 l 775 731 l 644 731 l 644 794 l 583 856 l 279 856 l 218 794 l 218 617 l 279 556 l 651 556 l 786 421 z "},"Ŝ":{"ha":863,"x_min":83,"x_max":786,"o":"m 83 135 l 83 240 l 215 240 l 215 178 l 275 117 l 593 117 l 654 179 l 654 379 l 593 439 l 221 439 l 86 575 l 86 838 l 221 972 l 640 972 l 775 838 l 775 731 l 644 731 l 644 794 l 583 856 l 279 856 l 218 794 l 218 617 l 279 556 l 651 556 l 786 421 l 786 138 l 649 0 l 218 0 l 83 135 m 371 1256 l 488 1256 l 649 1051 l 524 1051 l 433 1169 l 425 1169 l 335 1051 l 210 1051 l 371 1256 z "},"Ș":{"ha":863,"x_min":83,"x_max":786,"o":"m 83 135 l 83 240 l 215 240 l 215 178 l 275 117 l 593 117 l 654 179 l 654 379 l 593 439 l 221 439 l 86 575 l 86 838 l 221 972 l 640 972 l 775 838 l 775 731 l 644 731 l 644 794 l 583 856 l 279 856 l 218 794 l 218 617 l 279 556 l 651 556 l 786 421 l 786 138 l 649 0 l 218 0 l 83 135 z "},"Ṡ":{"ha":863,"x_min":83,"x_max":786,"o":"m 83 135 l 83 240 l 215 240 l 215 178 l 275 117 l 593 117 l 654 179 l 654 379 l 593 439 l 221 439 l 86 575 l 86 838 l 221 972 l 640 972 l 775 838 l 775 731 l 644 731 l 644 794 l 583 856 l 279 856 l 218 794 l 218 617 l 279 556 l 651 556 l 786 421 l 786 138 l 649 0 l 218 0 l 83 135 m 349 1106 l 349 1175 l 393 1219 l 465 1219 l 510 1175 l 510 1106 l 465 1061 l 393 1061 l 349 1106 z "},"Ṣ":{"ha":863,"x_min":83,"x_max":786,"o":"m 83 135 l 83 240 l 215 240 l 215 178 l 275 117 l 593 117 l 654 179 l 654 379 l 593 439 l 221 439 l 86 575 l 86 838 l 221 972 l 640 972 l 775 838 l 775 731 l 644 731 l 644 794 l 583 856 l 279 856 l 218 794 l 218 617 l 279 556 l 651 556 l 786 421 l 786 138 l 649 0 l 218 0 l 83 135 z "},"ẞ":{"ha":932,"x_min":104,"x_max":869,"o":"m 869 431 l 869 121 l 749 0 l 478 0 l 360 118 l 360 218 l 489 218 l 489 161 l 536 115 l 689 115 l 738 161 l 738 393 l 689 440 l 478 440 l 478 558 l 653 854 l 292 854 l 238 801 l 238 0 l 104 0 l 104 844 l 232 972 l 790 972 l 790 854 l 611 551 l 749 551 l 869 431 z "},"Ə":{"ha":983,"x_min":90,"x_max":893,"o":"m 90 186 l 90 542 l 760 542 l 760 742 l 646 854 l 338 854 l 224 742 l 224 660 l 90 660 l 90 786 l 276 972 l 707 972 l 893 786 l 893 186 l 707 0 l 276 0 l 90 186 m 643 118 l 760 233 l 760 425 l 224 425 l 224 233 l 340 118 l 643 118 z "},"T":{"ha":789,"x_min":35,"x_max":754,"o":"m 328 857 l 35 857 l 35 972 l 754 972 l 754 857 l 461 857 l 461 0 l 328 0 l 328 857 z "},"Ŧ":{"ha":789,"x_min":35,"x_max":754,"o":"m 461 857 l 461 514 l 694 514 l 694 406 l 461 406 l 461 0 l 328 0 l 328 406 l 108 406 l 108 514 l 328 514 l 328 857 l 35 857 l 35 972 l 754 972 l 754 857 l 461 857 z "},"Ť":{"ha":789,"x_min":35,"x_max":754,"o":"m 328 857 l 35 857 l 35 972 l 754 972 l 754 857 l 461 857 l 461 0 l 328 0 l 328 857 m 175 1256 l 300 1256 l 390 1138 l 399 1138 l 489 1256 l 614 1256 l 453 1051 l 336 1051 l 175 1256 z "},"Ţ":{"ha":789,"x_min":35,"x_max":754,"o":"m 328 857 l 35 857 l 35 972 l 754 972 l 754 857 l 461 857 l 461 0 l 328 0 l 328 857 m 264 -289 l 429 -289 l 453 -265 l 453 -221 l 429 -196 l 289 -196 l 289 -146 l 344 0 l 447 0 l 400 -118 l 483 -118 l 553 -187 l 553 -299 l 481 -371 l 264 -371 l 264 -289 z "},"Ț":{"ha":789,"x_min":35,"x_max":754,"o":"m 328 857 l 35 857 l 35 972 l 754 972 l 754 857 l 461 857 l 461 0 l 328 0 l 328 857 z "},"Ṭ":{"ha":789,"x_min":35,"x_max":754,"o":"m 328 857 l 35 857 l 35 972 l 754 972 l 754 857 l 461 857 l 461 0 l 328 0 l 328 857 z "},"Ṯ":{"ha":789,"x_min":35,"x_max":754,"o":"m 328 857 l 35 857 l 35 972 l 754 972 l 754 857 l 461 857 l 461 0 l 328 0 l 328 857 z "},"U":{"ha":950,"x_min":104,"x_max":846,"o":"m 104 157 l 104 972 l 238 972 l 238 203 l 324 117 l 626 117 l 713 203 l 713 972 l 846 972 l 846 157 l 689 0 l 261 0 l 104 157 z "},"Ú":{"ha":950,"x_min":104,"x_max":846,"o":"m 104 157 l 104 972 l 238 972 l 238 203 l 324 117 l 626 117 l 713 203 l 713 972 l 846 972 l 846 157 l 689 0 l 261 0 l 104 157 m 522 1275 l 665 1275 l 536 1051 l 418 1051 l 522 1275 z "},"Ŭ":{"ha":950,"x_min":104,"x_max":846,"o":"m 104 157 l 104 972 l 238 972 l 238 203 l 324 117 l 626 117 l 713 203 l 713 972 l 846 972 l 846 157 l 689 0 l 261 0 l 104 157 m 269 1156 l 269 1247 l 379 1247 l 379 1186 l 425 1140 l 525 1140 l 571 1186 l 571 1247 l 681 1247 l 681 1156 l 575 1051 l 375 1051 l 269 1156 z "},"Ǔ":{"ha":950,"x_min":104,"x_max":846,"o":"m 104 157 l 104 972 l 238 972 l 238 203 l 324 117 l 626 117 l 713 203 l 713 972 l 846 972 l 846 157 l 689 0 l 261 0 l 104 157 m 256 1256 l 381 1256 l 471 1138 l 479 1138 l 569 1256 l 694 1256 l 533 1051 l 417 1051 l 256 1256 z "},"Û":{"ha":950,"x_min":104,"x_max":846,"o":"m 104 157 l 104 972 l 238 972 l 238 203 l 324 117 l 626 117 l 713 203 l 713 972 l 846 972 l 846 157 l 689 0 l 261 0 l 104 157 m 417 1256 l 533 1256 l 694 1051 l 569 1051 l 479 1169 l 471 1169 l 381 1051 l 256 1051 l 417 1256 z "},"Ü":{"ha":950,"x_min":104,"x_max":846,"o":"m 104 157 l 104 972 l 238 972 l 238 203 l 324 117 l 626 117 l 713 203 l 713 972 l 846 972 l 846 157 l 689 0 l 261 0 l 104 157 m 254 1107 l 254 1174 l 297 1217 l 369 1217 l 411 1174 l 411 1107 l 369 1064 l 297 1064 l 254 1107 m 539 1107 l 539 1174 l 581 1217 l 653 1217 l 696 1174 l 696 1107 l 653 1064 l 581 1064 l 539 1107 z "},"Ǘ":{"ha":950,"x_min":104,"x_max":846,"o":"m 104 157 l 104 972 l 238 972 l 238 203 l 324 117 l 626 117 l 713 203 l 713 972 l 846 972 l 846 157 l 689 0 l 261 0 l 104 157 m 511 1472 l 640 1472 l 524 1275 l 418 1275 l 511 1472 m 254 1107 l 254 1174 l 297 1217 l 369 1217 l 411 1174 l 411 1107 l 369 1064 l 297 1064 l 254 1107 m 539 1107 l 539 1174 l 581 1217 l 653 1217 l 696 1174 l 696 1107 l 653 1064 l 581 1064 l 539 1107 z "},"Ǚ":{"ha":950,"x_min":104,"x_max":846,"o":"m 104 157 l 104 972 l 238 972 l 238 203 l 324 117 l 626 117 l 713 203 l 713 972 l 846 972 l 846 157 l 689 0 l 261 0 l 104 157 m 265 1463 l 382 1463 l 471 1350 l 479 1350 l 568 1463 l 685 1463 l 531 1271 l 419 1271 l 265 1463 m 254 1107 l 254 1174 l 297 1217 l 369 1217 l 411 1174 l 411 1107 l 369 1064 l 297 1064 l 254 1107 m 539 1107 l 539 1174 l 581 1217 l 653 1217 l 696 1174 l 696 1107 l 653 1064 l 581 1064 l 539 1107 z "},"Ǜ":{"ha":950,"x_min":104,"x_max":846,"o":"m 104 157 l 104 972 l 238 972 l 238 203 l 324 117 l 626 117 l 713 203 l 713 972 l 846 972 l 846 157 l 689 0 l 261 0 l 104 157 m 308 1472 l 438 1472 l 531 1275 l 425 1275 l 308 1472 m 254 1107 l 254 1174 l 297 1217 l 369 1217 l 411 1174 l 411 1107 l 369 1064 l 297 1064 l 254 1107 m 539 1107 l 539 1174 l 581 1217 l 653 1217 l 696 1174 l 696 1107 l 653 1064 l 581 1064 l 539 1107 z "},"Ǖ":{"ha":950,"x_min":104,"x_max":846,"o":"m 104 157 l 104 972 l 238 972 l 238 203 l 324 117 l 626 117 l 713 203 l 713 972 l 846 972 l 846 157 l 689 0 l 261 0 l 104 157 m 267 1411 l 683 1411 l 683 1311 l 267 1311 l 267 1411 m 254 1107 l 254 1174 l 297 1217 l 369 1217 l 411 1174 l 411 1107 l 369 1064 l 297 1064 l 254 1107 m 539 1107 l 539 1174 l 581 1217 l 653 1217 l 696 1174 l 696 1107 l 653 1064 l 581 1064 l 539 1107 z "},"Ụ":{"ha":950,"x_min":104,"x_max":846,"o":"m 104 157 l 104 972 l 238 972 l 238 203 l 324 117 l 626 117 l 713 203 l 713 972 l 846 972 l 846 157 l 689 0 l 261 0 l 104 157 z "},"Ù":{"ha":950,"x_min":104,"x_max":846,"o":"m 104 157 l 104 972 l 238 972 l 238 203 l 324 117 l 626 117 l 713 203 l 713 972 l 846 972 l 846 157 l 689 0 l 261 0 l 104 157 m 294 1275 l 438 1275 l 542 1051 l 424 1051 l 294 1275 z "},"Ủ":{"ha":950,"x_min":104,"x_max":846,"o":"m 104 157 l 104 972 l 238 972 l 238 203 l 324 117 l 626 117 l 713 203 l 713 972 l 846 972 l 846 157 l 689 0 l 261 0 l 104 157 m 418 1113 l 528 1211 l 528 1250 l 508 1271 l 439 1271 l 417 1249 l 417 1207 l 317 1207 l 317 1279 l 394 1358 l 556 1358 l 633 1279 l 633 1188 l 533 1096 l 533 1051 l 418 1051 l 418 1113 z "},"Ư":{"ha":1046,"x_min":104,"x_max":1064,"o":"m 1064 986 l 1064 839 l 943 719 l 846 719 l 846 157 l 689 0 l 261 0 l 104 157 l 104 972 l 238 972 l 238 203 l 324 117 l 626 117 l 713 203 l 713 972 l 846 972 l 846 821 l 889 821 l 947 879 l 947 986 l 1064 986 z "},"Ứ":{"ha":1046,"x_min":104,"x_max":1064,"o":"m 1064 986 l 1064 839 l 943 719 l 846 719 l 846 157 l 689 0 l 261 0 l 104 157 l 104 972 l 238 972 l 238 203 l 324 117 l 626 117 l 713 203 l 713 972 l 846 972 l 846 821 l 889 821 l 947 879 l 947 986 l 1064 986 m 522 1275 l 665 1275 l 536 1051 l 418 1051 l 522 1275 z "},"Ự":{"ha":1046,"x_min":104,"x_max":1064,"o":"m 1064 986 l 1064 839 l 943 719 l 846 719 l 846 157 l 689 0 l 261 0 l 104 157 l 104 972 l 238 972 l 238 203 l 324 117 l 626 117 l 713 203 l 713 972 l 846 972 l 846 821 l 889 821 l 947 879 l 947 986 l 1064 986 z "},"Ừ":{"ha":1046,"x_min":104,"x_max":1064,"o":"m 1064 986 l 1064 839 l 943 719 l 846 719 l 846 157 l 689 0 l 261 0 l 104 157 l 104 972 l 238 972 l 238 203 l 324 117 l 626 117 l 713 203 l 713 972 l 846 972 l 846 821 l 889 821 l 947 879 l 947 986 l 1064 986 m 294 1275 l 438 1275 l 542 1051 l 424 1051 l 294 1275 z "},"Ử":{"ha":1046,"x_min":104,"x_max":1064,"o":"m 1064 986 l 1064 839 l 943 719 l 846 719 l 846 157 l 689 0 l 261 0 l 104 157 l 104 972 l 238 972 l 238 203 l 324 117 l 626 117 l 713 203 l 713 972 l 846 972 l 846 821 l 889 821 l 947 879 l 947 986 l 1064 986 m 418 1113 l 528 1211 l 528 1250 l 508 1271 l 439 1271 l 417 1249 l 417 1207 l 317 1207 l 317 1279 l 394 1358 l 556 1358 l 633 1279 l 633 1188 l 533 1096 l 533 1051 l 418 1051 l 418 1113 z "},"Ữ":{"ha":1046,"x_min":104,"x_max":1064,"o":"m 1064 986 l 1064 839 l 943 719 l 846 719 l 846 157 l 689 0 l 261 0 l 104 157 l 104 972 l 238 972 l 238 203 l 324 117 l 626 117 l 713 203 l 713 972 l 846 972 l 846 821 l 889 821 l 947 879 l 947 986 l 1064 986 m 417 1138 l 389 1138 l 365 1114 l 365 1074 l 268 1074 l 268 1147 l 349 1229 l 444 1229 l 533 1157 l 563 1157 l 585 1179 l 585 1221 l 682 1221 l 682 1146 l 601 1065 l 506 1065 l 417 1138 z "},"Ű":{"ha":950,"x_min":104,"x_max":846,"o":"m 104 157 l 104 972 l 238 972 l 238 203 l 324 117 l 626 117 l 713 203 l 713 972 l 846 972 l 846 157 l 689 0 l 261 0 l 104 157 m 404 1275 l 542 1275 l 414 1051 l 301 1051 l 404 1275 m 624 1275 l 760 1275 l 633 1051 l 519 1051 l 624 1275 z "},"Ū":{"ha":950,"x_min":104,"x_max":846,"o":"m 104 157 l 104 972 l 238 972 l 238 203 l 324 117 l 626 117 l 713 203 l 713 972 l 846 972 l 846 157 l 689 0 l 261 0 l 104 157 m 267 1179 l 683 1179 l 683 1074 l 267 1074 l 267 1179 z "},"Ų":{"ha":950,"x_min":104,"x_max":846,"o":"m 104 157 l 104 972 l 238 972 l 238 203 l 324 117 l 626 117 l 713 203 l 713 972 l 846 972 l 846 157 l 689 0 l 261 0 l 104 157 m 361 -197 l 361 -93 l 447 0 l 563 0 l 474 -104 l 474 -157 l 506 -189 l 611 -189 l 611 -281 l 444 -281 l 361 -197 z "},"Ů":{"ha":950,"x_min":104,"x_max":846,"o":"m 104 157 l 104 972 l 238 972 l 238 203 l 324 117 l 626 117 l 713 203 l 713 972 l 846 972 l 846 157 l 689 0 l 261 0 l 104 157 m 324 1126 l 324 1250 l 408 1335 l 542 1335 l 626 1250 l 626 1126 l 542 1042 l 408 1042 l 324 1126 m 507 1122 l 542 1158 l 542 1218 l 507 1253 l 443 1253 l 408 1218 l 408 1158 l 443 1122 l 507 1122 z "},"Ũ":{"ha":950,"x_min":104,"x_max":846,"o":"m 104 157 l 104 972 l 238 972 l 238 203 l 324 117 l 626 117 l 713 203 l 713 972 l 846 972 l 846 157 l 689 0 l 261 0 l 104 157 m 417 1138 l 389 1138 l 365 1114 l 365 1074 l 268 1074 l 268 1147 l 349 1229 l 444 1229 l 533 1157 l 563 1157 l 585 1179 l 585 1221 l 682 1221 l 682 1146 l 601 1065 l 506 1065 l 417 1138 z "},"V":{"ha":881,"x_min":28,"x_max":853,"o":"m 28 972 l 165 972 l 439 160 l 442 160 l 715 972 l 853 972 l 508 0 l 372 0 l 28 972 z "},"W":{"ha":1206,"x_min":49,"x_max":1157,"o":"m 49 972 l 183 972 l 326 196 l 331 196 l 550 972 l 665 972 l 879 196 l 882 196 l 1022 972 l 1157 972 l 960 0 l 825 0 l 610 776 l 606 776 l 381 0 l 246 0 l 49 972 z "},"Ẃ":{"ha":1206,"x_min":49,"x_max":1157,"o":"m 49 972 l 183 972 l 326 196 l 331 196 l 550 972 l 665 972 l 879 196 l 882 196 l 1022 972 l 1157 972 l 960 0 l 825 0 l 610 776 l 606 776 l 381 0 l 246 0 l 49 972 m 651 1275 l 794 1275 l 665 1051 l 547 1051 l 651 1275 z "},"Ŵ":{"ha":1206,"x_min":49,"x_max":1157,"o":"m 49 972 l 183 972 l 326 196 l 331 196 l 550 972 l 665 972 l 879 196 l 882 196 l 1022 972 l 1157 972 l 960 0 l 825 0 l 610 776 l 606 776 l 381 0 l 246 0 l 49 972 m 546 1256 l 663 1256 l 824 1051 l 699 1051 l 608 1169 l 600 1169 l 510 1051 l 385 1051 l 546 1256 z "},"Ẅ":{"ha":1206,"x_min":49,"x_max":1157,"o":"m 49 972 l 183 972 l 326 196 l 331 196 l 550 972 l 665 972 l 879 196 l 882 196 l 1022 972 l 1157 972 l 960 0 l 825 0 l 610 776 l 606 776 l 381 0 l 246 0 l 49 972 m 383 1107 l 383 1174 l 426 1217 l 499 1217 l 540 1174 l 540 1107 l 499 1064 l 426 1064 l 383 1107 m 668 1107 l 668 1174 l 710 1217 l 782 1217 l 825 1174 l 825 1107 l 782 1064 l 710 1064 l 668 1107 z "},"Ẁ":{"ha":1206,"x_min":49,"x_max":1157,"o":"m 49 972 l 183 972 l 326 196 l 331 196 l 550 972 l 665 972 l 879 196 l 882 196 l 1022 972 l 1157 972 l 960 0 l 825 0 l 610 776 l 606 776 l 381 0 l 246 0 l 49 972 m 408 1275 l 551 1275 l 656 1051 l 538 1051 l 408 1275 z "},"X":{"ha":861,"x_min":21,"x_max":840,"o":"m 356 500 l 35 972 l 185 972 l 432 606 l 676 972 l 826 972 l 506 494 l 840 0 l 690 0 l 431 389 l 171 0 l 21 0 l 356 500 z "},"Y":{"ha":842,"x_min":14,"x_max":828,"o":"m 354 403 l 14 972 l 158 972 l 419 525 l 422 525 l 683 972 l 828 972 l 488 403 l 488 0 l 354 0 l 354 403 z "},"Ý":{"ha":842,"x_min":14,"x_max":828,"o":"m 354 403 l 14 972 l 158 972 l 419 525 l 422 525 l 683 972 l 828 972 l 488 403 l 488 0 l 354 0 l 354 403 m 468 1275 l 611 1275 l 482 1051 l 364 1051 l 468 1275 z "},"Ŷ":{"ha":842,"x_min":14,"x_max":828,"o":"m 354 403 l 14 972 l 158 972 l 419 525 l 422 525 l 683 972 l 828 972 l 488 403 l 488 0 l 354 0 l 354 403 m 363 1256 l 479 1256 l 640 1051 l 515 1051 l 425 1169 l 417 1169 l 326 1051 l 201 1051 l 363 1256 z "},"Ÿ":{"ha":842,"x_min":14,"x_max":828,"o":"m 354 403 l 14 972 l 158 972 l 419 525 l 422 525 l 683 972 l 828 972 l 488 403 l 488 0 l 354 0 l 354 403 m 200 1107 l 200 1174 l 243 1217 l 315 1217 l 357 1174 l 357 1107 l 315 1064 l 243 1064 l 200 1107 m 485 1107 l 485 1174 l 526 1217 l 599 1217 l 642 1174 l 642 1107 l 599 1064 l 526 1064 l 485 1107 z "},"Ẏ":{"ha":842,"x_min":14,"x_max":828,"o":"m 354 403 l 14 972 l 158 972 l 419 525 l 422 525 l 683 972 l 828 972 l 488 403 l 488 0 l 354 0 l 354 403 m 340 1106 l 340 1175 l 385 1219 l 457 1219 l 501 1175 l 501 1106 l 457 1061 l 385 1061 l 340 1106 z "},"Ỵ":{"ha":842,"x_min":14,"x_max":828,"o":"m 354 403 l 14 972 l 158 972 l 419 525 l 422 525 l 683 972 l 828 972 l 488 403 l 488 0 l 354 0 l 354 403 z "},"Ỳ":{"ha":842,"x_min":14,"x_max":828,"o":"m 354 403 l 14 972 l 158 972 l 419 525 l 422 525 l 683 972 l 828 972 l 488 403 l 488 0 l 354 0 l 354 403 m 225 1275 l 368 1275 l 472 1051 l 354 1051 l 225 1275 z "},"Ỷ":{"ha":842,"x_min":14,"x_max":828,"o":"m 354 403 l 14 972 l 158 972 l 419 525 l 422 525 l 683 972 l 828 972 l 488 403 l 488 0 l 354 0 l 354 403 m 364 1113 l 474 1211 l 474 1250 l 454 1271 l 385 1271 l 363 1249 l 363 1207 l 263 1207 l 263 1279 l 340 1358 l 501 1358 l 579 1279 l 579 1188 l 479 1096 l 479 1051 l 364 1051 l 364 1113 z "},"Ỹ":{"ha":842,"x_min":14,"x_max":828,"o":"m 354 403 l 14 972 l 158 972 l 419 525 l 422 525 l 683 972 l 828 972 l 488 403 l 488 0 l 354 0 l 354 403 m 363 1138 l 335 1138 l 311 1114 l 311 1074 l 214 1074 l 214 1147 l 294 1229 l 390 1229 l 479 1157 l 508 1157 l 531 1179 l 531 1221 l 628 1221 l 628 1146 l 547 1065 l 451 1065 l 363 1138 z "},"Z":{"ha":800,"x_min":63,"x_max":738,"o":"m 63 119 l 588 857 l 588 860 l 76 860 l 76 972 l 738 972 l 738 853 l 213 115 l 213 113 l 738 113 l 738 0 l 63 0 l 63 119 z "},"Ź":{"ha":800,"x_min":63,"x_max":738,"o":"m 63 119 l 588 857 l 588 860 l 76 860 l 76 972 l 738 972 l 738 853 l 213 115 l 213 113 l 738 113 l 738 0 l 63 0 l 63 119 m 454 1275 l 597 1275 l 468 1051 l 350 1051 l 454 1275 z "},"Ž":{"ha":800,"x_min":63,"x_max":738,"o":"m 63 119 l 588 857 l 588 860 l 76 860 l 76 972 l 738 972 l 738 853 l 213 115 l 213 113 l 738 113 l 738 0 l 63 0 l 63 119 m 188 1256 l 313 1256 l 403 1138 l 411 1138 l 501 1256 l 626 1256 l 465 1051 l 349 1051 l 188 1256 z "},"Ż":{"ha":800,"x_min":63,"x_max":738,"o":"m 63 119 l 588 857 l 588 860 l 76 860 l 76 972 l 738 972 l 738 853 l 213 115 l 213 113 l 738 113 l 738 0 l 63 0 l 63 119 m 326 1106 l 326 1175 l 371 1219 l 443 1219 l 488 1175 l 488 1106 l 443 1061 l 371 1061 l 326 1106 z "},"Ẓ":{"ha":800,"x_min":63,"x_max":738,"o":"m 63 119 l 588 857 l 588 860 l 76 860 l 76 972 l 738 972 l 738 853 l 213 115 l 213 113 l 738 113 l 738 0 l 63 0 l 63 119 z "},"a":{"ha":776,"x_min":76,"x_max":686,"o":"m 76 118 l 76 289 l 194 407 l 558 407 l 558 524 l 497 583 l 271 583 l 211 524 l 211 472 l 82 472 l 82 557 l 217 692 l 551 692 l 686 557 l 686 0 l 565 0 l 565 114 l 446 0 l 194 0 l 76 118 m 428 107 l 558 232 l 558 304 l 254 304 l 206 256 l 206 154 l 254 107 l 428 107 z "},"á":{"ha":776,"x_min":76,"x_max":686,"o":"m 76 118 l 76 289 l 194 407 l 558 407 l 558 524 l 497 583 l 271 583 l 211 524 l 211 472 l 82 472 l 82 557 l 217 692 l 551 692 l 686 557 l 686 0 l 565 0 l 565 114 l 446 0 l 194 0 l 76 118 m 428 107 l 558 232 l 558 304 l 254 304 l 206 256 l 206 154 l 254 107 l 428 107 m 438 994 l 581 994 l 451 771 l 333 771 l 438 994 z "},"ă":{"ha":776,"x_min":76,"x_max":686,"o":"m 76 118 l 76 289 l 194 407 l 558 407 l 558 524 l 497 583 l 271 583 l 211 524 l 211 472 l 82 472 l 82 557 l 217 692 l 551 692 l 686 557 l 686 0 l 565 0 l 565 114 l 446 0 l 194 0 l 76 118 m 428 107 l 558 232 l 558 304 l 254 304 l 206 256 l 206 154 l 254 107 l 428 107 m 185 875 l 185 967 l 294 967 l 294 906 l 340 860 l 440 860 l 486 906 l 486 967 l 596 967 l 596 875 l 490 771 l 290 771 l 185 875 z "},"ắ":{"ha":776,"x_min":76,"x_max":686,"o":"m 76 118 l 76 289 l 194 407 l 558 407 l 558 524 l 497 583 l 271 583 l 211 524 l 211 472 l 82 472 l 82 557 l 217 692 l 551 692 l 686 557 l 686 0 l 565 0 l 565 114 l 446 0 l 194 0 l 76 118 m 428 107 l 558 232 l 558 304 l 254 304 l 206 256 l 206 154 l 254 107 l 428 107 m 426 1196 l 556 1196 l 439 1000 l 335 1000 l 426 1196 m 185 875 l 185 967 l 294 967 l 294 906 l 340 860 l 440 860 l 486 906 l 486 967 l 596 967 l 596 875 l 490 771 l 290 771 l 185 875 z "},"ặ":{"ha":776,"x_min":76,"x_max":686,"o":"m 76 118 l 76 289 l 194 407 l 558 407 l 558 524 l 497 583 l 271 583 l 211 524 l 211 472 l 82 472 l 82 557 l 217 692 l 551 692 l 686 557 l 686 0 l 565 0 l 565 114 l 446 0 l 194 0 l 76 118 m 428 107 l 558 232 l 558 304 l 254 304 l 206 256 l 206 154 l 254 107 l 428 107 m 185 875 l 185 967 l 294 967 l 294 906 l 340 860 l 440 860 l 486 906 l 486 967 l 596 967 l 596 875 l 490 771 l 290 771 l 185 875 z "},"ằ":{"ha":776,"x_min":76,"x_max":686,"o":"m 76 118 l 76 289 l 194 407 l 558 407 l 558 524 l 497 583 l 271 583 l 211 524 l 211 472 l 82 472 l 82 557 l 217 692 l 551 692 l 686 557 l 686 0 l 565 0 l 565 114 l 446 0 l 194 0 l 76 118 m 428 107 l 558 232 l 558 304 l 254 304 l 206 256 l 206 154 l 254 107 l 428 107 m 226 1196 l 356 1196 l 447 1000 l 343 1000 l 226 1196 m 185 875 l 185 967 l 294 967 l 294 906 l 340 860 l 440 860 l 486 906 l 486 967 l 596 967 l 596 875 l 490 771 l 290 771 l 185 875 z "},"ẳ":{"ha":776,"x_min":76,"x_max":686,"o":"m 76 118 l 76 289 l 194 407 l 558 407 l 558 524 l 497 583 l 271 583 l 211 524 l 211 472 l 82 472 l 82 557 l 217 692 l 551 692 l 686 557 l 686 0 l 565 0 l 565 114 l 446 0 l 194 0 l 76 118 m 428 107 l 558 232 l 558 304 l 254 304 l 206 256 l 206 154 l 254 107 l 428 107 m 338 1046 l 442 1131 l 442 1163 l 422 1181 l 358 1181 l 338 1160 l 338 1124 l 244 1124 l 244 1188 l 318 1260 l 463 1260 l 536 1188 l 536 1104 l 442 1031 l 442 994 l 338 994 l 338 1046 m 185 875 l 185 967 l 294 967 l 294 906 l 340 860 l 440 860 l 486 906 l 486 967 l 596 967 l 596 875 l 490 771 l 290 771 l 185 875 z "},"ẵ":{"ha":776,"x_min":76,"x_max":686,"o":"m 76 118 l 76 289 l 194 407 l 558 407 l 558 524 l 497 583 l 271 583 l 211 524 l 211 472 l 82 472 l 82 557 l 217 692 l 551 692 l 686 557 l 686 0 l 565 0 l 565 114 l 446 0 l 194 0 l 76 118 m 428 107 l 558 232 l 558 304 l 254 304 l 206 256 l 206 154 l 254 107 l 428 107 m 336 1089 l 306 1089 l 282 1067 l 282 1028 l 189 1028 l 189 1093 l 269 1174 l 360 1174 l 444 1104 l 476 1104 l 499 1126 l 499 1165 l 592 1165 l 592 1100 l 511 1019 l 421 1019 l 336 1089 m 185 875 l 185 967 l 294 967 l 294 906 l 340 860 l 440 860 l 486 906 l 486 967 l 596 967 l 596 875 l 490 771 l 290 771 l 185 875 z "},"ǎ":{"ha":776,"x_min":76,"x_max":686,"o":"m 76 118 l 76 289 l 194 407 l 558 407 l 558 524 l 497 583 l 271 583 l 211 524 l 211 472 l 82 472 l 82 557 l 217 692 l 551 692 l 686 557 l 686 0 l 565 0 l 565 114 l 446 0 l 194 0 l 76 118 m 428 107 l 558 232 l 558 304 l 254 304 l 206 256 l 206 154 l 254 107 l 428 107 m 171 975 l 296 975 l 386 857 l 394 857 l 485 975 l 610 975 l 449 771 l 332 771 l 171 975 z "},"â":{"ha":776,"x_min":76,"x_max":686,"o":"m 76 118 l 76 289 l 194 407 l 558 407 l 558 524 l 497 583 l 271 583 l 211 524 l 211 472 l 82 472 l 82 557 l 217 692 l 551 692 l 686 557 l 686 0 l 565 0 l 565 114 l 446 0 l 194 0 l 76 118 m 428 107 l 558 232 l 558 304 l 254 304 l 206 256 l 206 154 l 254 107 l 428 107 m 332 975 l 449 975 l 610 771 l 485 771 l 394 889 l 386 889 l 296 771 l 171 771 l 332 975 z "},"ấ":{"ha":776,"x_min":76,"x_max":749,"o":"m 76 118 l 76 289 l 194 407 l 558 407 l 558 524 l 497 583 l 271 583 l 211 524 l 211 472 l 82 472 l 82 557 l 217 692 l 551 692 l 686 557 l 686 0 l 565 0 l 565 114 l 446 0 l 194 0 l 76 118 m 428 107 l 558 232 l 558 304 l 254 304 l 206 256 l 206 154 l 254 107 l 428 107 m 619 1171 l 749 1171 l 632 974 l 528 974 l 619 1171 m 332 975 l 449 975 l 610 771 l 485 771 l 394 889 l 386 889 l 296 771 l 171 771 l 332 975 z "},"ậ":{"ha":776,"x_min":76,"x_max":686,"o":"m 76 118 l 76 289 l 194 407 l 558 407 l 558 524 l 497 583 l 271 583 l 211 524 l 211 472 l 82 472 l 82 557 l 217 692 l 551 692 l 686 557 l 686 0 l 565 0 l 565 114 l 446 0 l 194 0 l 76 118 m 428 107 l 558 232 l 558 304 l 254 304 l 206 256 l 206 154 l 254 107 l 428 107 m 332 975 l 449 975 l 610 771 l 485 771 l 394 889 l 386 889 l 296 771 l 171 771 l 332 975 z "},"ầ":{"ha":776,"x_min":76,"x_max":686,"o":"m 76 118 l 76 289 l 194 407 l 558 407 l 558 524 l 497 583 l 271 583 l 211 524 l 211 472 l 82 472 l 82 557 l 217 692 l 551 692 l 686 557 l 686 0 l 565 0 l 565 114 l 446 0 l 194 0 l 76 118 m 428 107 l 558 232 l 558 304 l 254 304 l 206 256 l 206 154 l 254 107 l 428 107 m 449 1171 l 578 1171 l 669 974 l 565 974 l 449 1171 m 332 975 l 449 975 l 610 771 l 485 771 l 394 889 l 386 889 l 296 771 l 171 771 l 332 975 z "},"ẩ":{"ha":776,"x_min":76,"x_max":742,"o":"m 76 118 l 76 289 l 194 407 l 558 407 l 558 524 l 497 583 l 271 583 l 211 524 l 211 472 l 82 472 l 82 557 l 217 692 l 551 692 l 686 557 l 686 0 l 565 0 l 565 114 l 446 0 l 194 0 l 76 118 m 428 107 l 558 232 l 558 304 l 254 304 l 206 256 l 206 154 l 254 107 l 428 107 m 547 979 l 647 1065 l 647 1099 l 628 1117 l 568 1117 l 547 1096 l 547 1058 l 454 1058 l 454 1124 l 528 1197 l 668 1197 l 742 1124 l 742 1039 l 651 965 l 651 928 l 547 928 l 547 979 m 332 975 l 449 975 l 610 771 l 485 771 l 394 889 l 386 889 l 296 771 l 171 771 l 332 975 z "},"ẫ":{"ha":776,"x_min":76,"x_max":686,"o":"m 76 118 l 76 289 l 194 407 l 558 407 l 558 524 l 497 583 l 271 583 l 211 524 l 211 472 l 82 472 l 82 557 l 217 692 l 551 692 l 686 557 l 686 0 l 565 0 l 565 114 l 446 0 l 194 0 l 76 118 m 428 107 l 558 232 l 558 304 l 254 304 l 206 256 l 206 154 l 254 107 l 428 107 m 336 1090 l 306 1090 l 282 1067 l 282 1029 l 189 1029 l 189 1094 l 269 1175 l 360 1175 l 444 1106 l 476 1106 l 499 1128 l 499 1167 l 592 1167 l 592 1101 l 511 1021 l 421 1021 l 336 1090 m 332 975 l 449 975 l 610 771 l 485 771 l 394 889 l 386 889 l 296 771 l 171 771 l 332 975 z "},"ä":{"ha":776,"x_min":76,"x_max":686,"o":"m 76 118 l 76 289 l 194 407 l 558 407 l 558 524 l 497 583 l 271 583 l 211 524 l 211 472 l 82 472 l 82 557 l 217 692 l 551 692 l 686 557 l 686 0 l 565 0 l 565 114 l 446 0 l 194 0 l 76 118 m 428 107 l 558 232 l 558 304 l 254 304 l 206 256 l 206 154 l 254 107 l 428 107 m 169 826 l 169 893 l 213 936 l 285 936 l 326 893 l 326 826 l 285 783 l 213 783 l 169 826 m 454 826 l 454 893 l 496 936 l 568 936 l 611 893 l 611 826 l 568 783 l 496 783 l 454 826 z "},"ạ":{"ha":776,"x_min":76,"x_max":686,"o":"m 76 118 l 76 289 l 194 407 l 558 407 l 558 524 l 497 583 l 271 583 l 211 524 l 211 472 l 82 472 l 82 557 l 217 692 l 551 692 l 686 557 l 686 0 l 565 0 l 565 114 l 446 0 l 194 0 l 76 118 m 428 107 l 558 232 l 558 304 l 254 304 l 206 256 l 206 154 l 254 107 l 428 107 z "},"à":{"ha":776,"x_min":76,"x_max":686,"o":"m 76 118 l 76 289 l 194 407 l 558 407 l 558 524 l 497 583 l 271 583 l 211 524 l 211 472 l 82 472 l 82 557 l 217 692 l 551 692 l 686 557 l 686 0 l 565 0 l 565 114 l 446 0 l 194 0 l 76 118 m 428 107 l 558 232 l 558 304 l 254 304 l 206 256 l 206 154 l 254 107 l 428 107 m 215 994 l 358 994 l 463 771 l 344 771 l 215 994 z "},"ả":{"ha":776,"x_min":76,"x_max":686,"o":"m 76 118 l 76 289 l 194 407 l 558 407 l 558 524 l 497 583 l 271 583 l 211 524 l 211 472 l 82 472 l 82 557 l 217 692 l 551 692 l 686 557 l 686 0 l 565 0 l 565 114 l 446 0 l 194 0 l 76 118 m 428 107 l 558 232 l 558 304 l 254 304 l 206 256 l 206 154 l 254 107 l 428 107 m 333 832 l 443 931 l 443 969 l 424 990 l 354 990 l 332 968 l 332 926 l 232 926 l 232 999 l 310 1078 l 471 1078 l 549 999 l 549 907 l 449 815 l 449 771 l 333 771 l 333 832 z "},"ɑ":{"ha":836,"x_min":83,"x_max":815,"o":"m 83 133 l 83 558 l 217 692 l 493 692 l 596 604 l 596 692 l 718 692 l 718 108 l 815 108 l 815 0 l 663 0 l 599 68 l 599 122 l 476 0 l 217 0 l 83 133 m 453 113 l 589 249 l 589 478 l 472 579 l 276 579 l 213 515 l 213 176 l 276 113 l 453 113 z "},"ā":{"ha":776,"x_min":76,"x_max":686,"o":"m 76 118 l 76 289 l 194 407 l 558 407 l 558 524 l 497 583 l 271 583 l 211 524 l 211 472 l 82 472 l 82 557 l 217 692 l 551 692 l 686 557 l 686 0 l 565 0 l 565 114 l 446 0 l 194 0 l 76 118 m 428 107 l 558 232 l 558 304 l 254 304 l 206 256 l 206 154 l 254 107 l 428 107 m 182 899 l 599 899 l 599 793 l 182 793 l 182 899 z "},"ą":{"ha":776,"x_min":76,"x_max":735,"o":"m 76 118 l 76 289 l 194 407 l 558 407 l 558 524 l 497 583 l 271 583 l 211 524 l 211 472 l 82 472 l 82 557 l 217 692 l 551 692 l 686 557 l 686 0 l 565 0 l 565 114 l 446 0 l 194 0 l 76 118 m 428 107 l 558 232 l 558 304 l 254 304 l 206 256 l 206 154 l 254 107 l 428 107 m 485 -197 l 485 -93 l 571 0 l 686 0 l 597 -104 l 597 -157 l 629 -189 l 735 -189 l 735 -281 l 568 -281 l 485 -197 z "},"å":{"ha":776,"x_min":76,"x_max":686,"o":"m 76 118 l 76 289 l 194 407 l 558 407 l 558 524 l 497 583 l 271 583 l 211 524 l 211 472 l 82 472 l 82 557 l 217 692 l 551 692 l 686 557 l 686 0 l 565 0 l 565 114 l 446 0 l 194 0 l 76 118 m 428 107 l 558 232 l 558 304 l 254 304 l 206 256 l 206 154 l 254 107 l 428 107 m 239 846 l 239 969 l 324 1054 l 457 1054 l 542 969 l 542 846 l 457 761 l 324 761 l 239 846 m 422 842 l 457 878 l 457 938 l 422 972 l 358 972 l 324 938 l 324 878 l 358 842 l 422 842 z "},"ǻ":{"ha":776,"x_min":76,"x_max":686,"o":"m 76 118 l 76 289 l 194 407 l 558 407 l 558 524 l 497 583 l 271 583 l 211 524 l 211 472 l 82 472 l 82 557 l 217 692 l 551 692 l 686 557 l 686 0 l 565 0 l 565 114 l 446 0 l 194 0 l 76 118 m 428 107 l 558 232 l 558 304 l 254 304 l 206 256 l 206 154 l 254 107 l 428 107 m 239 846 l 239 969 l 324 1054 l 457 1054 l 542 969 l 542 846 l 457 761 l 324 761 l 239 846 m 422 842 l 457 878 l 457 938 l 422 972 l 358 972 l 324 938 l 324 878 l 358 842 l 422 842 m 438 1343 l 581 1343 l 451 1119 l 333 1119 l 438 1343 z "},"ã":{"ha":776,"x_min":76,"x_max":686,"o":"m 76 118 l 76 289 l 194 407 l 558 407 l 558 524 l 497 583 l 271 583 l 211 524 l 211 472 l 82 472 l 82 557 l 217 692 l 551 692 l 686 557 l 686 0 l 565 0 l 565 114 l 446 0 l 194 0 l 76 118 m 428 107 l 558 232 l 558 304 l 254 304 l 206 256 l 206 154 l 254 107 l 428 107 m 332 857 l 304 857 l 281 833 l 281 793 l 183 793 l 183 867 l 264 949 l 360 949 l 449 876 l 478 876 l 500 899 l 500 940 l 597 940 l 597 865 l 517 785 l 421 785 l 332 857 z "},"æ":{"ha":1244,"x_min":76,"x_max":1168,"o":"m 690 306 l 690 172 l 751 113 l 976 113 l 1038 172 l 1038 222 l 1167 222 l 1167 135 l 1033 0 l 697 0 l 592 106 l 486 0 l 194 0 l 76 118 l 76 289 l 194 407 l 558 407 l 558 524 l 497 583 l 271 583 l 211 524 l 211 472 l 82 472 l 82 557 l 217 692 l 550 692 l 625 615 l 701 692 l 1032 692 l 1168 557 l 1168 306 l 690 306 m 690 407 l 1038 407 l 1038 519 l 976 581 l 751 581 l 690 519 l 690 407 m 561 225 l 561 304 l 254 304 l 206 256 l 206 154 l 254 107 l 443 107 l 561 225 z "},"ǽ":{"ha":1244,"x_min":76,"x_max":1168,"o":"m 690 306 l 690 172 l 751 113 l 976 113 l 1038 172 l 1038 222 l 1167 222 l 1167 135 l 1033 0 l 697 0 l 592 106 l 486 0 l 194 0 l 76 118 l 76 289 l 194 407 l 558 407 l 558 524 l 497 583 l 271 583 l 211 524 l 211 472 l 82 472 l 82 557 l 217 692 l 550 692 l 625 615 l 701 692 l 1032 692 l 1168 557 l 1168 306 l 690 306 m 690 407 l 1038 407 l 1038 519 l 976 581 l 751 581 l 690 519 l 690 407 m 561 225 l 561 304 l 254 304 l 206 256 l 206 154 l 254 107 l 443 107 l 561 225 m 675 994 l 818 994 l 689 771 l 571 771 l 675 994 z "},"b":{"ha":813,"x_min":97,"x_max":729,"o":"m 97 135 l 97 992 l 226 992 l 226 569 l 350 692 l 597 692 l 729 558 l 729 133 l 597 0 l 232 0 l 97 135 m 536 113 l 600 176 l 600 515 l 536 579 l 378 579 l 226 428 l 226 176 l 290 113 l 536 113 z "},"c":{"ha":753,"x_min":83,"x_max":697,"o":"m 83 132 l 83 560 l 215 692 l 564 692 l 697 558 l 697 460 l 568 460 l 568 517 l 506 579 l 275 579 l 213 517 l 213 175 l 275 113 l 506 113 l 568 175 l 568 232 l 697 232 l 697 133 l 564 0 l 215 0 l 83 132 z "},"ć":{"ha":753,"x_min":83,"x_max":697,"o":"m 83 132 l 83 560 l 215 692 l 564 692 l 697 558 l 697 460 l 568 460 l 568 517 l 506 579 l 275 579 l 213 517 l 213 175 l 275 113 l 506 113 l 568 175 l 568 232 l 697 232 l 697 133 l 564 0 l 215 0 l 83 132 m 438 994 l 581 994 l 451 771 l 333 771 l 438 994 z "},"č":{"ha":753,"x_min":83,"x_max":697,"o":"m 83 132 l 83 560 l 215 692 l 564 692 l 697 558 l 697 460 l 568 460 l 568 517 l 506 579 l 275 579 l 213 517 l 213 175 l 275 113 l 506 113 l 568 175 l 568 232 l 697 232 l 697 133 l 564 0 l 215 0 l 83 132 m 171 975 l 296 975 l 386 857 l 394 857 l 485 975 l 610 975 l 449 771 l 332 771 l 171 975 z "},"ç":{"ha":753,"x_min":83,"x_max":697,"o":"m 568 460 l 568 517 l 506 579 l 275 579 l 213 517 l 213 175 l 275 113 l 506 113 l 568 175 l 568 232 l 697 232 l 697 133 l 564 0 l 442 0 l 415 -65 l 497 -65 l 567 -135 l 567 -246 l 494 -318 l 279 -318 l 279 -236 l 444 -236 l 468 -212 l 468 -168 l 444 -143 l 304 -143 l 304 -93 l 340 0 l 215 0 l 83 132 l 83 560 l 215 692 l 564 692 l 697 558 l 697 460 l 568 460 z "},"ĉ":{"ha":753,"x_min":83,"x_max":697,"o":"m 83 132 l 83 560 l 215 692 l 564 692 l 697 558 l 697 460 l 568 460 l 568 517 l 506 579 l 275 579 l 213 517 l 213 175 l 275 113 l 506 113 l 568 175 l 568 232 l 697 232 l 697 133 l 564 0 l 215 0 l 83 132 m 332 975 l 449 975 l 610 771 l 485 771 l 394 889 l 386 889 l 296 771 l 171 771 l 332 975 z "},"ċ":{"ha":753,"x_min":83,"x_max":697,"o":"m 83 132 l 83 560 l 215 692 l 564 692 l 697 558 l 697 460 l 568 460 l 568 517 l 506 579 l 275 579 l 213 517 l 213 175 l 275 113 l 506 113 l 568 175 l 568 232 l 697 232 l 697 133 l 564 0 l 215 0 l 83 132 m 310 825 l 310 894 l 354 939 l 426 939 l 471 894 l 471 825 l 426 781 l 354 781 l 310 825 z "},"d":{"ha":815,"x_min":83,"x_max":718,"o":"m 83 133 l 83 558 l 217 692 l 486 692 l 589 601 l 589 992 l 718 992 l 718 0 l 594 0 l 594 119 l 475 0 l 217 0 l 83 133 m 454 113 l 589 249 l 589 472 l 468 579 l 276 579 l 213 515 l 213 176 l 276 113 l 454 113 z "},"ð":{"ha":822,"x_min":83,"x_max":767,"o":"m 654 799 l 744 658 l 744 135 l 610 0 l 218 0 l 83 135 l 83 478 l 218 613 l 511 613 l 614 522 l 614 642 l 551 739 l 429 668 l 381 753 l 497 821 l 465 871 l 288 871 l 288 972 l 542 972 l 601 881 l 718 949 l 767 864 l 654 799 m 614 388 l 488 499 l 276 499 l 214 438 l 214 178 l 276 115 l 551 115 l 614 178 l 614 388 z "},"ď":{"ha":1043,"x_min":83,"x_max":1001,"o":"m 83 133 l 83 558 l 217 692 l 486 692 l 589 601 l 589 992 l 718 992 l 718 0 l 594 0 l 594 119 l 475 0 l 217 0 l 83 133 m 454 113 l 589 249 l 589 472 l 468 579 l 276 579 l 213 515 l 213 176 l 276 113 l 454 113 z "},"đ":{"ha":838,"x_min":83,"x_max":831,"o":"m 831 785 l 718 785 l 718 0 l 594 0 l 594 119 l 475 0 l 217 0 l 83 133 l 83 558 l 217 692 l 486 692 l 589 601 l 589 785 l 393 785 l 393 883 l 589 883 l 589 992 l 718 992 l 718 883 l 831 883 l 831 785 m 589 472 l 468 579 l 276 579 l 213 515 l 213 176 l 276 113 l 454 113 l 589 249 l 589 472 z "},"ḍ":{"ha":815,"x_min":83,"x_max":718,"o":"m 83 133 l 83 558 l 217 692 l 486 692 l 589 601 l 589 992 l 718 992 l 718 0 l 594 0 l 594 119 l 475 0 l 217 0 l 83 133 m 454 113 l 589 249 l 589 472 l 468 579 l 276 579 l 213 515 l 213 176 l 276 113 l 454 113 z "},"ḏ":{"ha":815,"x_min":83,"x_max":718,"o":"m 83 133 l 83 558 l 217 692 l 486 692 l 589 601 l 589 992 l 718 992 l 718 0 l 594 0 l 594 119 l 475 0 l 217 0 l 83 133 m 454 113 l 589 249 l 589 472 l 468 579 l 276 579 l 213 515 l 213 176 l 276 113 l 454 113 z "},"e":{"ha":789,"x_min":83,"x_max":713,"o":"m 83 132 l 83 558 l 217 692 l 579 692 l 713 558 l 713 306 l 213 306 l 213 172 l 274 111 l 522 111 l 583 171 l 583 218 l 711 218 l 711 132 l 581 0 l 215 0 l 83 132 m 583 407 l 583 519 l 521 581 l 275 581 l 213 519 l 213 407 l 583 407 z "},"é":{"ha":789,"x_min":83,"x_max":713,"o":"m 83 132 l 83 558 l 217 692 l 579 692 l 713 558 l 713 306 l 213 306 l 213 172 l 274 111 l 522 111 l 583 171 l 583 218 l 711 218 l 711 132 l 581 0 l 215 0 l 83 132 m 583 407 l 583 519 l 521 581 l 275 581 l 213 519 l 213 407 l 583 407 m 446 994 l 589 994 l 460 771 l 342 771 l 446 994 z "},"ĕ":{"ha":789,"x_min":83,"x_max":713,"o":"m 83 132 l 83 558 l 217 692 l 579 692 l 713 558 l 713 306 l 213 306 l 213 172 l 274 111 l 522 111 l 583 171 l 583 218 l 711 218 l 711 132 l 581 0 l 215 0 l 83 132 m 583 407 l 583 519 l 521 581 l 275 581 l 213 519 l 213 407 l 583 407 m 193 875 l 193 967 l 303 967 l 303 906 l 349 860 l 449 860 l 494 906 l 494 967 l 604 967 l 604 875 l 499 771 l 299 771 l 193 875 z "},"ě":{"ha":789,"x_min":83,"x_max":713,"o":"m 83 132 l 83 558 l 217 692 l 579 692 l 713 558 l 713 306 l 213 306 l 213 172 l 274 111 l 522 111 l 583 171 l 583 218 l 711 218 l 711 132 l 581 0 l 215 0 l 83 132 m 583 407 l 583 519 l 521 581 l 275 581 l 213 519 l 213 407 l 583 407 m 179 975 l 304 975 l 394 857 l 403 857 l 493 975 l 618 975 l 457 771 l 340 771 l 179 975 z "},"ê":{"ha":789,"x_min":83,"x_max":713,"o":"m 83 132 l 83 558 l 217 692 l 579 692 l 713 558 l 713 306 l 213 306 l 213 172 l 274 111 l 522 111 l 583 171 l 583 218 l 711 218 l 711 132 l 581 0 l 215 0 l 83 132 m 583 407 l 583 519 l 521 581 l 275 581 l 213 519 l 213 407 l 583 407 m 340 975 l 457 975 l 618 771 l 493 771 l 403 889 l 394 889 l 304 771 l 179 771 l 340 975 z "},"ế":{"ha":789,"x_min":83,"x_max":757,"o":"m 83 132 l 83 558 l 217 692 l 579 692 l 713 558 l 713 306 l 213 306 l 213 172 l 274 111 l 522 111 l 583 171 l 583 218 l 711 218 l 711 132 l 581 0 l 215 0 l 83 132 m 583 407 l 583 519 l 521 581 l 275 581 l 213 519 l 213 407 l 583 407 m 628 1171 l 757 1171 l 640 974 l 536 974 l 628 1171 m 340 975 l 457 975 l 618 771 l 493 771 l 403 889 l 394 889 l 304 771 l 179 771 l 340 975 z "},"ệ":{"ha":789,"x_min":83,"x_max":713,"o":"m 83 132 l 83 558 l 217 692 l 579 692 l 713 558 l 713 306 l 213 306 l 213 172 l 274 111 l 522 111 l 583 171 l 583 218 l 711 218 l 711 132 l 581 0 l 215 0 l 83 132 m 583 407 l 583 519 l 521 581 l 275 581 l 213 519 l 213 407 l 583 407 m 340 975 l 457 975 l 618 771 l 493 771 l 403 889 l 394 889 l 304 771 l 179 771 l 340 975 z "},"ề":{"ha":789,"x_min":83,"x_max":713,"o":"m 83 132 l 83 558 l 217 692 l 579 692 l 713 558 l 713 306 l 213 306 l 213 172 l 274 111 l 522 111 l 583 171 l 583 218 l 711 218 l 711 132 l 581 0 l 215 0 l 83 132 m 583 407 l 583 519 l 521 581 l 275 581 l 213 519 l 213 407 l 583 407 m 457 1171 l 586 1171 l 678 974 l 574 974 l 457 1171 m 340 975 l 457 975 l 618 771 l 493 771 l 403 889 l 394 889 l 304 771 l 179 771 l 340 975 z "},"ể":{"ha":789,"x_min":83,"x_max":750,"o":"m 83 132 l 83 558 l 217 692 l 579 692 l 713 558 l 713 306 l 213 306 l 213 172 l 274 111 l 522 111 l 583 171 l 583 218 l 711 218 l 711 132 l 581 0 l 215 0 l 83 132 m 583 407 l 583 519 l 521 581 l 275 581 l 213 519 l 213 407 l 583 407 m 556 979 l 656 1065 l 656 1099 l 636 1117 l 576 1117 l 556 1096 l 556 1058 l 463 1058 l 463 1124 l 536 1197 l 676 1197 l 750 1124 l 750 1039 l 660 965 l 660 928 l 556 928 l 556 979 m 340 975 l 457 975 l 618 771 l 493 771 l 403 889 l 394 889 l 304 771 l 179 771 l 340 975 z "},"ễ":{"ha":789,"x_min":83,"x_max":713,"o":"m 83 132 l 83 558 l 217 692 l 579 692 l 713 558 l 713 306 l 213 306 l 213 172 l 274 111 l 522 111 l 583 171 l 583 218 l 711 218 l 711 132 l 581 0 l 215 0 l 83 132 m 583 407 l 583 519 l 521 581 l 275 581 l 213 519 l 213 407 l 583 407 m 344 1090 l 314 1090 l 290 1067 l 290 1029 l 197 1029 l 197 1094 l 278 1175 l 368 1175 l 453 1106 l 485 1106 l 507 1128 l 507 1167 l 600 1167 l 600 1101 l 519 1021 l 429 1021 l 344 1090 m 340 975 l 457 975 l 618 771 l 493 771 l 403 889 l 394 889 l 304 771 l 179 771 l 340 975 z "},"ë":{"ha":789,"x_min":83,"x_max":713,"o":"m 83 132 l 83 558 l 217 692 l 579 692 l 713 558 l 713 306 l 213 306 l 213 172 l 274 111 l 522 111 l 583 171 l 583 218 l 711 218 l 711 132 l 581 0 l 215 0 l 83 132 m 583 407 l 583 519 l 521 581 l 275 581 l 213 519 l 213 407 l 583 407 m 178 826 l 178 893 l 221 936 l 293 936 l 335 893 l 335 826 l 293 783 l 221 783 l 178 826 m 463 826 l 463 893 l 504 936 l 576 936 l 619 893 l 619 826 l 576 783 l 504 783 l 463 826 z "},"ė":{"ha":789,"x_min":83,"x_max":713,"o":"m 83 132 l 83 558 l 217 692 l 579 692 l 713 558 l 713 306 l 213 306 l 213 172 l 274 111 l 522 111 l 583 171 l 583 218 l 711 218 l 711 132 l 581 0 l 215 0 l 83 132 m 583 407 l 583 519 l 521 581 l 275 581 l 213 519 l 213 407 l 583 407 m 318 825 l 318 894 l 363 939 l 435 939 l 479 894 l 479 825 l 435 781 l 363 781 l 318 825 z "},"ẹ":{"ha":789,"x_min":83,"x_max":713,"o":"m 83 132 l 83 558 l 217 692 l 579 692 l 713 558 l 713 306 l 213 306 l 213 172 l 274 111 l 522 111 l 583 171 l 583 218 l 711 218 l 711 132 l 581 0 l 215 0 l 83 132 m 583 407 l 583 519 l 521 581 l 275 581 l 213 519 l 213 407 l 583 407 z "},"è":{"ha":789,"x_min":83,"x_max":713,"o":"m 83 132 l 83 558 l 217 692 l 579 692 l 713 558 l 713 306 l 213 306 l 213 172 l 274 111 l 522 111 l 583 171 l 583 218 l 711 218 l 711 132 l 581 0 l 215 0 l 83 132 m 583 407 l 583 519 l 521 581 l 275 581 l 213 519 l 213 407 l 583 407 m 203 994 l 346 994 l 450 771 l 332 771 l 203 994 z "},"ẻ":{"ha":789,"x_min":83,"x_max":713,"o":"m 83 132 l 83 558 l 217 692 l 579 692 l 713 558 l 713 306 l 213 306 l 213 172 l 274 111 l 522 111 l 583 171 l 583 218 l 711 218 l 711 132 l 581 0 l 215 0 l 83 132 m 583 407 l 583 519 l 521 581 l 275 581 l 213 519 l 213 407 l 583 407 m 342 832 l 451 931 l 451 969 l 432 990 l 363 990 l 340 968 l 340 926 l 240 926 l 240 999 l 318 1078 l 479 1078 l 557 999 l 557 907 l 457 815 l 457 771 l 342 771 l 342 832 z "},"ē":{"ha":789,"x_min":83,"x_max":713,"o":"m 83 132 l 83 558 l 217 692 l 579 692 l 713 558 l 713 306 l 213 306 l 213 172 l 274 111 l 522 111 l 583 171 l 583 218 l 711 218 l 711 132 l 581 0 l 215 0 l 83 132 m 583 407 l 583 519 l 521 581 l 275 581 l 213 519 l 213 407 l 583 407 m 190 899 l 607 899 l 607 793 l 190 793 l 190 899 z "},"ę":{"ha":789,"x_min":83,"x_max":713,"o":"m 83 132 l 83 558 l 217 692 l 579 692 l 713 558 l 713 306 l 213 306 l 213 172 l 274 111 l 522 111 l 583 171 l 583 218 l 711 218 l 711 132 l 581 0 l 215 0 l 83 132 m 583 407 l 583 519 l 521 581 l 275 581 l 213 519 l 213 407 l 583 407 m 379 -197 l 379 -93 l 465 0 l 581 0 l 492 -104 l 492 -157 l 524 -189 l 629 -189 l 629 -281 l 463 -281 l 379 -197 z "},"ẽ":{"ha":789,"x_min":83,"x_max":713,"o":"m 83 132 l 83 558 l 217 692 l 579 692 l 713 558 l 713 306 l 213 306 l 213 172 l 274 111 l 522 111 l 583 171 l 583 218 l 711 218 l 711 132 l 581 0 l 215 0 l 83 132 m 583 407 l 583 519 l 521 581 l 275 581 l 213 519 l 213 407 l 583 407 m 340 857 l 313 857 l 289 833 l 289 793 l 192 793 l 192 867 l 272 949 l 368 949 l 457 876 l 486 876 l 508 899 l 508 940 l 606 940 l 606 865 l 525 785 l 429 785 l 340 857 z "},"ə":{"ha":789,"x_min":76,"x_max":706,"o":"m 706 560 l 706 133 l 574 0 l 211 0 l 76 133 l 76 386 l 576 386 l 576 519 l 515 581 l 267 581 l 207 521 l 207 474 l 78 474 l 78 560 l 208 692 l 574 692 l 706 560 m 206 285 l 206 172 l 268 111 l 514 111 l 576 172 l 576 285 l 206 285 z "},"f":{"ha":533,"x_min":35,"x_max":506,"o":"m 160 581 l 35 581 l 35 692 l 160 692 l 160 840 l 288 968 l 506 968 l 506 858 l 343 858 l 289 804 l 289 692 l 506 692 l 506 581 l 289 581 l 289 0 l 160 0 l 160 581 z "},"g":{"ha":815,"x_min":83,"x_max":718,"o":"m 718 692 l 718 -171 l 585 -304 l 231 -304 l 115 -190 l 115 -103 l 246 -103 l 246 -150 l 286 -192 l 526 -192 l 589 -131 l 589 107 l 472 0 l 217 0 l 83 133 l 83 558 l 217 692 l 482 692 l 596 579 l 596 692 l 718 692 m 589 453 l 460 579 l 276 579 l 213 515 l 213 176 l 276 113 l 456 113 l 589 242 l 589 453 z "},"ğ":{"ha":815,"x_min":83,"x_max":718,"o":"m 718 692 l 718 -171 l 585 -304 l 231 -304 l 115 -190 l 115 -103 l 246 -103 l 246 -150 l 286 -192 l 526 -192 l 589 -131 l 589 107 l 472 0 l 217 0 l 83 133 l 83 558 l 217 692 l 482 692 l 596 579 l 596 692 l 718 692 m 589 453 l 460 579 l 276 579 l 213 515 l 213 176 l 276 113 l 456 113 l 589 242 l 589 453 m 199 875 l 199 967 l 308 967 l 308 906 l 354 860 l 454 860 l 500 906 l 500 967 l 610 967 l 610 875 l 504 771 l 304 771 l 199 875 z "},"ǧ":{"ha":815,"x_min":83,"x_max":718,"o":"m 718 692 l 718 -171 l 585 -304 l 231 -304 l 115 -190 l 115 -103 l 246 -103 l 246 -150 l 286 -192 l 526 -192 l 589 -131 l 589 107 l 472 0 l 217 0 l 83 133 l 83 558 l 217 692 l 482 692 l 596 579 l 596 692 l 718 692 m 589 453 l 460 579 l 276 579 l 213 515 l 213 176 l 276 113 l 456 113 l 589 242 l 589 453 m 185 975 l 310 975 l 400 857 l 408 857 l 499 975 l 624 975 l 463 771 l 346 771 l 185 975 z "},"ĝ":{"ha":815,"x_min":83,"x_max":718,"o":"m 718 692 l 718 -171 l 585 -304 l 231 -304 l 115 -190 l 115 -103 l 246 -103 l 246 -150 l 286 -192 l 526 -192 l 589 -131 l 589 107 l 472 0 l 217 0 l 83 133 l 83 558 l 217 692 l 482 692 l 596 579 l 596 692 l 718 692 m 589 453 l 460 579 l 276 579 l 213 515 l 213 176 l 276 113 l 456 113 l 589 242 l 589 453 m 346 975 l 463 975 l 624 771 l 499 771 l 408 889 l 400 889 l 310 771 l 185 771 l 346 975 z "},"ģ":{"ha":815,"x_min":83,"x_max":718,"o":"m 718 692 l 718 -171 l 585 -304 l 231 -304 l 115 -190 l 115 -103 l 246 -103 l 246 -150 l 286 -192 l 526 -192 l 589 -131 l 589 107 l 472 0 l 217 0 l 83 133 l 83 558 l 217 692 l 482 692 l 596 579 l 596 692 l 718 692 m 589 453 l 460 579 l 276 579 l 213 515 l 213 176 l 276 113 l 456 113 l 589 242 l 589 453 m 422 926 l 443 926 l 490 879 l 490 808 l 443 763 l 368 763 l 322 810 l 322 926 l 394 1103 l 468 1103 l 422 926 z "},"ġ":{"ha":815,"x_min":83,"x_max":718,"o":"m 718 692 l 718 -171 l 585 -304 l 231 -304 l 115 -190 l 115 -103 l 246 -103 l 246 -150 l 286 -192 l 526 -192 l 589 -131 l 589 107 l 472 0 l 217 0 l 83 133 l 83 558 l 217 692 l 482 692 l 596 579 l 596 692 l 718 692 m 589 453 l 460 579 l 276 579 l 213 515 l 213 176 l 276 113 l 456 113 l 589 242 l 589 453 m 324 825 l 324 894 l 368 939 l 440 939 l 485 894 l 485 825 l 440 781 l 368 781 l 324 825 z "},"ḡ":{"ha":815,"x_min":83,"x_max":718,"o":"m 718 692 l 718 -171 l 585 -304 l 231 -304 l 115 -190 l 115 -103 l 246 -103 l 246 -150 l 286 -192 l 526 -192 l 589 -131 l 589 107 l 472 0 l 217 0 l 83 133 l 83 558 l 217 692 l 482 692 l 596 579 l 596 692 l 718 692 m 589 453 l 460 579 l 276 579 l 213 515 l 213 176 l 276 113 l 456 113 l 589 242 l 589 453 m 196 899 l 613 899 l 613 793 l 196 793 l 196 899 z "},"h":{"ha":803,"x_min":97,"x_max":713,"o":"m 97 992 l 226 992 l 226 560 l 358 692 l 576 692 l 713 556 l 713 0 l 583 0 l 583 517 l 521 579 l 386 579 l 226 419 l 226 0 l 97 0 l 97 992 z "},"ħ":{"ha":838,"x_min":7,"x_max":747,"o":"m 747 556 l 747 0 l 618 0 l 618 517 l 556 579 l 421 579 l 261 419 l 261 0 l 132 0 l 132 785 l 7 785 l 7 885 l 132 885 l 132 992 l 261 992 l 261 885 l 438 885 l 438 785 l 261 785 l 261 560 l 393 692 l 611 692 l 747 556 z "},"ḫ":{"ha":803,"x_min":97,"x_max":713,"o":"m 97 992 l 226 992 l 226 560 l 358 692 l 576 692 l 713 556 l 713 0 l 583 0 l 583 517 l 521 579 l 386 579 l 226 419 l 226 0 l 97 0 l 97 992 z "},"ĥ":{"ha":803,"x_min":97,"x_max":713,"o":"m 97 992 l 226 992 l 226 560 l 358 692 l 576 692 l 713 556 l 713 0 l 583 0 l 583 517 l 521 579 l 386 579 l 226 419 l 226 0 l 97 0 l 97 992 m 349 1257 l 465 1257 l 626 1053 l 501 1053 l 411 1171 l 403 1171 l 313 1053 l 188 1053 l 349 1257 z "},"ḥ":{"ha":803,"x_min":97,"x_max":713,"o":"m 97 992 l 226 992 l 226 560 l 358 692 l 576 692 l 713 556 l 713 0 l 583 0 l 583 517 l 521 579 l 386 579 l 226 419 l 226 0 l 97 0 l 97 992 z "},"i":{"ha":351,"x_min":90,"x_max":261,"o":"m 90 846 l 90 915 l 139 965 l 213 965 l 261 915 l 261 846 l 213 796 l 139 796 l 90 846 m 111 692 l 240 692 l 240 0 l 111 0 l 111 692 z "},"ı":{"ha":351,"x_min":111,"x_max":240,"o":"m 111 692 l 240 692 l 240 0 l 111 0 l 111 692 z "},"í":{"ha":351,"x_min":111,"x_max":367,"o":"m 111 692 l 240 692 l 240 0 l 111 0 l 111 692 m 224 994 l 367 994 l 238 771 l 119 771 l 224 994 z "},"ĭ":{"ha":351,"x_min":-29,"x_max":382,"o":"m 111 692 l 240 692 l 240 0 l 111 0 l 111 692 m -29 875 l -29 967 l 81 967 l 81 906 l 126 860 l 226 860 l 272 906 l 272 967 l 382 967 l 382 875 l 276 771 l 76 771 l -29 875 z "},"ǐ":{"ha":351,"x_min":-43,"x_max":396,"o":"m 111 692 l 240 692 l 240 0 l 111 0 l 111 692 m -43 975 l 82 975 l 172 857 l 181 857 l 271 975 l 396 975 l 235 771 l 118 771 l -43 975 z "},"î":{"ha":351,"x_min":-43,"x_max":396,"o":"m 111 692 l 240 692 l 240 0 l 111 0 l 111 692 m 118 975 l 235 975 l 396 771 l 271 771 l 181 889 l 172 889 l 82 771 l -43 771 l 118 975 z "},"ï":{"ha":351,"x_min":-44,"x_max":397,"o":"m 111 692 l 240 692 l 240 0 l 111 0 l 111 692 m -44 826 l -44 893 l -1 936 l 71 936 l 113 893 l 113 826 l 71 783 l -1 783 l -44 826 m 240 826 l 240 893 l 282 936 l 354 936 l 397 893 l 397 826 l 354 783 l 282 783 l 240 826 z "},"ị":{"ha":351,"x_min":90,"x_max":261,"o":"m 90 846 l 90 915 l 139 965 l 213 965 l 261 915 l 261 846 l 213 796 l 139 796 l 90 846 m 111 692 l 240 692 l 240 0 l 111 0 l 111 692 z "},"ì":{"ha":351,"x_min":-19,"x_max":240,"o":"m 111 692 l 240 692 l 240 0 l 111 0 l 111 692 m -19 994 l 124 994 l 228 771 l 110 771 l -19 994 z "},"ỉ":{"ha":351,"x_min":18,"x_max":335,"o":"m 111 692 l 240 692 l 240 0 l 111 0 l 111 692 m 119 832 l 229 931 l 229 969 l 210 990 l 140 990 l 118 968 l 118 926 l 18 926 l 18 999 l 96 1078 l 257 1078 l 335 999 l 335 907 l 235 815 l 235 771 l 119 771 l 119 832 z "},"ĳ":{"ha":697,"x_min":90,"x_max":606,"o":"m 90 846 l 90 915 l 139 965 l 213 965 l 261 915 l 261 846 l 213 796 l 139 796 l 90 846 m 111 692 l 240 692 l 240 0 l 111 0 l 111 692 m 435 846 l 435 915 l 483 965 l 557 965 l 606 915 l 606 846 l 557 796 l 483 796 l 435 846 m 247 -190 l 393 -190 l 456 -128 l 456 692 l 585 692 l 585 -169 l 451 -303 l 247 -303 l 247 -190 z "},"ī":{"ha":351,"x_min":-32,"x_max":385,"o":"m 111 692 l 240 692 l 240 0 l 111 0 l 111 692 m -32 899 l 385 899 l 385 793 l -32 793 l -32 899 z "},"į":{"ha":351,"x_min":39,"x_max":289,"o":"m 90 846 l 90 915 l 139 965 l 213 965 l 261 915 l 261 846 l 213 796 l 139 796 l 90 846 m 111 692 l 240 692 l 240 0 l 111 0 l 111 692 m 39 -197 l 39 -93 l 125 0 l 240 0 l 151 -104 l 151 -157 l 183 -189 l 289 -189 l 289 -281 l 122 -281 l 39 -197 z "},"ĩ":{"ha":351,"x_min":-31,"x_max":383,"o":"m 111 692 l 240 692 l 240 0 l 111 0 l 111 692 m 118 857 l 90 857 l 67 833 l 67 793 l -31 793 l -31 867 l 50 949 l 146 949 l 235 876 l 264 876 l 286 899 l 286 940 l 383 940 l 383 865 l 303 785 l 207 785 l 118 857 z "},"j":{"ha":372,"x_min":-76,"x_max":282,"o":"m 111 846 l 111 915 l 160 965 l 233 965 l 282 915 l 282 846 l 233 796 l 160 796 l 111 846 m -76 -190 l 69 -190 l 132 -128 l 132 692 l 261 692 l 261 -169 l 128 -303 l -76 -303 l -76 -190 z "},"ȷ":{"ha":368,"x_min":-81,"x_max":257,"o":"m -81 -189 l 65 -189 l 128 -128 l 128 692 l 257 692 l 257 -169 l 124 -303 l -81 -303 l -81 -189 z "},"ĵ":{"ha":368,"x_min":-81,"x_max":411,"o":"m -81 -189 l 65 -189 l 128 -128 l 128 692 l 257 692 l 257 -169 l 124 -303 l -81 -303 l -81 -189 m 133 975 l 250 975 l 411 771 l 286 771 l 196 889 l 188 889 l 97 771 l -28 771 l 133 975 z "},"k":{"ha":747,"x_min":97,"x_max":726,"o":"m 97 992 l 226 992 l 226 417 l 375 417 l 569 692 l 713 692 l 481 358 l 726 0 l 583 0 l 374 303 l 226 303 l 226 0 l 97 0 l 97 992 z "},"ķ":{"ha":747,"x_min":97,"x_max":726,"o":"m 97 992 l 226 992 l 226 417 l 375 417 l 569 692 l 713 692 l 481 358 l 726 0 l 583 0 l 374 303 l 226 303 l 226 0 l 97 0 l 97 992 z "},"ĸ":{"ha":796,"x_min":97,"x_max":775,"o":"m 97 692 l 231 692 l 231 403 l 415 403 l 603 692 l 754 692 l 526 346 l 775 0 l 624 0 l 417 286 l 231 286 l 231 0 l 97 0 l 97 692 z "},"l":{"ha":338,"x_min":104,"x_max":233,"o":"m 104 992 l 233 992 l 233 0 l 104 0 l 104 992 z "},"ĺ":{"ha":338,"x_min":104,"x_max":360,"o":"m 104 992 l 233 992 l 233 0 l 104 0 l 104 992 m 217 1308 l 360 1308 l 231 1085 l 113 1085 l 217 1308 z "},"ľ":{"ha":557,"x_min":104,"x_max":515,"o":"m 104 992 l 233 992 l 233 0 l 104 0 l 104 992 z "},"ļ":{"ha":338,"x_min":75,"x_max":244,"o":"m 104 992 l 233 992 l 233 0 l 104 0 l 104 992 z "},"ŀ":{"ha":547,"x_min":104,"x_max":517,"o":"m 104 992 l 233 992 l 233 0 l 104 0 l 104 992 z "},"ḷ":{"ha":338,"x_min":89,"x_max":250,"o":"m 104 992 l 233 992 l 233 0 l 104 0 l 104 992 z "},"ḹ":{"ha":338,"x_min":-39,"x_max":378,"o":"m 104 992 l 233 992 l 233 0 l 104 0 l 104 992 m -39 1213 l 378 1213 l 378 1107 l -39 1107 l -39 1213 z "},"ḻ":{"ha":338,"x_min":-39,"x_max":378,"o":"m 104 992 l 233 992 l 233 0 l 104 0 l 104 992 z "},"ł":{"ha":435,"x_min":14,"x_max":421,"o":"m 421 568 l 282 469 l 282 0 l 153 0 l 153 379 l 14 281 l 14 400 l 153 497 l 153 992 l 282 992 l 282 589 l 421 686 l 421 568 z "},"m":{"ha":1174,"x_min":97,"x_max":1083,"o":"m 97 692 l 221 692 l 221 565 l 347 692 l 515 692 l 619 588 l 722 692 l 949 692 l 1083 557 l 1083 0 l 954 0 l 954 517 l 892 579 l 751 579 l 661 489 l 661 0 l 536 0 l 536 518 l 475 579 l 369 579 l 226 436 l 226 0 l 97 0 l 97 692 z "},"ṃ":{"ha":1174,"x_min":97,"x_max":1083,"o":"m 97 692 l 221 692 l 221 565 l 347 692 l 515 692 l 619 588 l 722 692 l 949 692 l 1083 557 l 1083 0 l 954 0 l 954 517 l 892 579 l 751 579 l 661 489 l 661 0 l 536 0 l 536 518 l 475 579 l 369 579 l 226 436 l 226 0 l 97 0 l 97 692 z "},"n":{"ha":800,"x_min":97,"x_max":710,"o":"m 97 692 l 221 692 l 221 556 l 357 692 l 574 692 l 710 556 l 710 0 l 581 0 l 581 517 l 518 579 l 386 579 l 226 419 l 226 0 l 97 0 l 97 692 z "},"ń":{"ha":800,"x_min":97,"x_max":710,"o":"m 97 692 l 221 692 l 221 556 l 357 692 l 574 692 l 710 556 l 710 0 l 581 0 l 581 517 l 518 579 l 386 579 l 226 419 l 226 0 l 97 0 l 97 692 m 454 994 l 597 994 l 468 771 l 350 771 l 454 994 z "},"ŉ":{"ha":1001,"x_min":65,"x_max":911,"o":"m 299 692 l 422 692 l 422 556 l 558 692 l 775 692 l 911 556 l 911 0 l 782 0 l 782 517 l 719 579 l 588 579 l 428 419 l 428 0 l 299 0 l 299 692 z "},"ň":{"ha":800,"x_min":97,"x_max":710,"o":"m 97 692 l 221 692 l 221 556 l 357 692 l 574 692 l 710 556 l 710 0 l 581 0 l 581 517 l 518 579 l 386 579 l 226 419 l 226 0 l 97 0 l 97 692 m 188 975 l 313 975 l 403 857 l 411 857 l 501 975 l 626 975 l 465 771 l 349 771 l 188 975 z "},"ņ":{"ha":800,"x_min":97,"x_max":710,"o":"m 97 692 l 221 692 l 221 556 l 357 692 l 574 692 l 710 556 l 710 0 l 581 0 l 581 517 l 518 579 l 386 579 l 226 419 l 226 0 l 97 0 l 97 692 z "},"ṅ":{"ha":800,"x_min":97,"x_max":710,"o":"m 97 692 l 221 692 l 221 556 l 357 692 l 574 692 l 710 556 l 710 0 l 581 0 l 581 517 l 518 579 l 386 579 l 226 419 l 226 0 l 97 0 l 97 692 m 326 825 l 326 894 l 371 939 l 443 939 l 488 894 l 488 825 l 443 781 l 371 781 l 326 825 z "},"ṇ":{"ha":800,"x_min":97,"x_max":710,"o":"m 97 692 l 221 692 l 221 556 l 357 692 l 574 692 l 710 556 l 710 0 l 581 0 l 581 517 l 518 579 l 386 579 l 226 419 l 226 0 l 97 0 l 97 692 z "},"ŋ":{"ha":801,"x_min":97,"x_max":711,"o":"m 711 557 l 711 -169 l 578 -303 l 374 -303 l 374 -189 l 519 -189 l 582 -128 l 582 517 l 519 578 l 388 578 l 226 418 l 226 0 l 97 0 l 97 692 l 221 692 l 221 557 l 356 692 l 576 692 l 711 557 z "},"ṉ":{"ha":800,"x_min":97,"x_max":710,"o":"m 97 692 l 221 692 l 221 556 l 357 692 l 574 692 l 710 556 l 710 0 l 581 0 l 581 517 l 518 579 l 386 579 l 226 419 l 226 0 l 97 0 l 97 692 z "},"ñ":{"ha":800,"x_min":97,"x_max":710,"o":"m 97 692 l 221 692 l 221 556 l 357 692 l 574 692 l 710 556 l 710 0 l 581 0 l 581 517 l 518 579 l 386 579 l 226 419 l 226 0 l 97 0 l 97 692 m 349 857 l 321 857 l 297 833 l 297 793 l 200 793 l 200 867 l 281 949 l 376 949 l 465 876 l 494 876 l 517 899 l 517 940 l 614 940 l 614 865 l 533 785 l 438 785 l 349 857 z "},"o":{"ha":801,"x_min":83,"x_max":718,"o":"m 83 133 l 83 558 l 217 692 l 586 692 l 718 558 l 718 133 l 586 0 l 217 0 l 83 133 m 526 113 l 589 174 l 589 518 l 526 579 l 275 579 l 213 518 l 213 174 l 275 113 l 526 113 z "},"ó":{"ha":801,"x_min":83,"x_max":718,"o":"m 83 133 l 83 558 l 217 692 l 586 692 l 718 558 l 718 133 l 586 0 l 217 0 l 83 133 m 526 113 l 589 174 l 589 518 l 526 579 l 275 579 l 213 518 l 213 174 l 275 113 l 526 113 m 449 994 l 592 994 l 463 771 l 344 771 l 449 994 z "},"ŏ":{"ha":801,"x_min":83,"x_max":718,"o":"m 83 133 l 83 558 l 217 692 l 586 692 l 718 558 l 718 133 l 586 0 l 217 0 l 83 133 m 526 113 l 589 174 l 589 518 l 526 579 l 275 579 l 213 518 l 213 174 l 275 113 l 526 113 m 196 875 l 196 967 l 306 967 l 306 906 l 351 860 l 451 860 l 497 906 l 497 967 l 607 967 l 607 875 l 501 771 l 301 771 l 196 875 z "},"ǒ":{"ha":801,"x_min":83,"x_max":718,"o":"m 83 133 l 83 558 l 217 692 l 586 692 l 718 558 l 718 133 l 586 0 l 217 0 l 83 133 m 526 113 l 589 174 l 589 518 l 526 579 l 275 579 l 213 518 l 213 174 l 275 113 l 526 113 m 182 975 l 307 975 l 397 857 l 406 857 l 496 975 l 621 975 l 460 771 l 343 771 l 182 975 z "},"ô":{"ha":801,"x_min":83,"x_max":718,"o":"m 83 133 l 83 558 l 217 692 l 586 692 l 718 558 l 718 133 l 586 0 l 217 0 l 83 133 m 526 113 l 589 174 l 589 518 l 526 579 l 275 579 l 213 518 l 213 174 l 275 113 l 526 113 m 343 975 l 460 975 l 621 771 l 496 771 l 406 889 l 397 889 l 307 771 l 182 771 l 343 975 z "},"ố":{"ha":801,"x_min":83,"x_max":760,"o":"m 83 133 l 83 558 l 217 692 l 586 692 l 718 558 l 718 133 l 586 0 l 217 0 l 83 133 m 526 113 l 589 174 l 589 518 l 526 579 l 275 579 l 213 518 l 213 174 l 275 113 l 526 113 m 631 1171 l 760 1171 l 643 974 l 539 974 l 631 1171 m 343 975 l 460 975 l 621 771 l 496 771 l 406 889 l 397 889 l 307 771 l 182 771 l 343 975 z "},"ộ":{"ha":801,"x_min":83,"x_max":718,"o":"m 83 133 l 83 558 l 217 692 l 586 692 l 718 558 l 718 133 l 586 0 l 217 0 l 83 133 m 526 113 l 589 174 l 589 518 l 526 579 l 275 579 l 213 518 l 213 174 l 275 113 l 526 113 m 343 975 l 460 975 l 621 771 l 496 771 l 406 889 l 397 889 l 307 771 l 182 771 l 343 975 z "},"ồ":{"ha":801,"x_min":83,"x_max":718,"o":"m 83 133 l 83 558 l 217 692 l 586 692 l 718 558 l 718 133 l 586 0 l 217 0 l 83 133 m 526 113 l 589 174 l 589 518 l 526 579 l 275 579 l 213 518 l 213 174 l 275 113 l 526 113 m 460 1171 l 589 1171 l 681 974 l 576 974 l 460 1171 m 343 975 l 460 975 l 621 771 l 496 771 l 406 889 l 397 889 l 307 771 l 182 771 l 343 975 z "},"ổ":{"ha":801,"x_min":83,"x_max":753,"o":"m 83 133 l 83 558 l 217 692 l 586 692 l 718 558 l 718 133 l 586 0 l 217 0 l 83 133 m 526 113 l 589 174 l 589 518 l 526 579 l 275 579 l 213 518 l 213 174 l 275 113 l 526 113 m 558 979 l 658 1065 l 658 1099 l 639 1117 l 579 1117 l 558 1096 l 558 1058 l 465 1058 l 465 1124 l 539 1197 l 679 1197 l 753 1124 l 753 1039 l 663 965 l 663 928 l 558 928 l 558 979 m 343 975 l 460 975 l 621 771 l 496 771 l 406 889 l 397 889 l 307 771 l 182 771 l 343 975 z "},"ỗ":{"ha":801,"x_min":83,"x_max":718,"o":"m 83 133 l 83 558 l 217 692 l 586 692 l 718 558 l 718 133 l 586 0 l 217 0 l 83 133 m 526 113 l 589 174 l 589 518 l 526 579 l 275 579 l 213 518 l 213 174 l 275 113 l 526 113 m 347 1090 l 317 1090 l 293 1067 l 293 1029 l 200 1029 l 200 1094 l 281 1175 l 371 1175 l 456 1106 l 488 1106 l 510 1128 l 510 1167 l 603 1167 l 603 1101 l 522 1021 l 432 1021 l 347 1090 m 343 975 l 460 975 l 621 771 l 496 771 l 406 889 l 397 889 l 307 771 l 182 771 l 343 975 z "},"ö":{"ha":801,"x_min":83,"x_max":718,"o":"m 83 133 l 83 558 l 217 692 l 586 692 l 718 558 l 718 133 l 586 0 l 217 0 l 83 133 m 526 113 l 589 174 l 589 518 l 526 579 l 275 579 l 213 518 l 213 174 l 275 113 l 526 113 m 181 826 l 181 893 l 224 936 l 296 936 l 338 893 l 338 826 l 296 783 l 224 783 l 181 826 m 465 826 l 465 893 l 507 936 l 579 936 l 622 893 l 622 826 l 579 783 l 507 783 l 465 826 z "},"ọ":{"ha":801,"x_min":83,"x_max":718,"o":"m 83 133 l 83 558 l 217 692 l 586 692 l 718 558 l 718 133 l 586 0 l 217 0 l 83 133 m 526 113 l 589 174 l 589 518 l 526 579 l 275 579 l 213 518 l 213 174 l 275 113 l 526 113 z "},"ò":{"ha":801,"x_min":83,"x_max":718,"o":"m 83 133 l 83 558 l 217 692 l 586 692 l 718 558 l 718 133 l 586 0 l 217 0 l 83 133 m 526 113 l 589 174 l 589 518 l 526 579 l 275 579 l 213 518 l 213 174 l 275 113 l 526 113 m 206 994 l 349 994 l 453 771 l 335 771 l 206 994 z "},"ỏ":{"ha":801,"x_min":83,"x_max":718,"o":"m 83 133 l 83 558 l 217 692 l 586 692 l 718 558 l 718 133 l 586 0 l 217 0 l 83 133 m 526 113 l 589 174 l 589 518 l 526 579 l 275 579 l 213 518 l 213 174 l 275 113 l 526 113 m 344 832 l 454 931 l 454 969 l 435 990 l 365 990 l 343 968 l 343 926 l 243 926 l 243 999 l 321 1078 l 482 1078 l 560 999 l 560 907 l 460 815 l 460 771 l 344 771 l 344 832 z "},"ơ":{"ha":901,"x_min":83,"x_max":936,"o":"m 936 706 l 936 558 l 817 439 l 718 439 l 718 133 l 586 0 l 217 0 l 83 133 l 83 558 l 217 692 l 586 692 l 718 558 l 718 540 l 761 540 l 819 599 l 819 706 l 936 706 m 589 518 l 526 579 l 275 579 l 213 518 l 213 174 l 275 113 l 526 113 l 589 174 l 589 518 z "},"ớ":{"ha":901,"x_min":83,"x_max":936,"o":"m 936 706 l 936 558 l 817 439 l 718 439 l 718 133 l 586 0 l 217 0 l 83 133 l 83 558 l 217 692 l 586 692 l 718 558 l 718 540 l 761 540 l 819 599 l 819 706 l 936 706 m 589 518 l 526 579 l 275 579 l 213 518 l 213 174 l 275 113 l 526 113 l 589 174 l 589 518 m 449 994 l 592 994 l 463 771 l 344 771 l 449 994 z "},"ợ":{"ha":901,"x_min":83,"x_max":936,"o":"m 936 706 l 936 558 l 817 439 l 718 439 l 718 133 l 586 0 l 217 0 l 83 133 l 83 558 l 217 692 l 586 692 l 718 558 l 718 540 l 761 540 l 819 599 l 819 706 l 936 706 m 589 518 l 526 579 l 275 579 l 213 518 l 213 174 l 275 113 l 526 113 l 589 174 l 589 518 z "},"ờ":{"ha":901,"x_min":83,"x_max":936,"o":"m 936 706 l 936 558 l 817 439 l 718 439 l 718 133 l 586 0 l 217 0 l 83 133 l 83 558 l 217 692 l 586 692 l 718 558 l 718 540 l 761 540 l 819 599 l 819 706 l 936 706 m 589 518 l 526 579 l 275 579 l 213 518 l 213 174 l 275 113 l 526 113 l 589 174 l 589 518 m 206 994 l 349 994 l 453 771 l 335 771 l 206 994 z "},"ở":{"ha":901,"x_min":83,"x_max":936,"o":"m 936 706 l 936 558 l 817 439 l 718 439 l 718 133 l 586 0 l 217 0 l 83 133 l 83 558 l 217 692 l 586 692 l 718 558 l 718 540 l 761 540 l 819 599 l 819 706 l 936 706 m 589 518 l 526 579 l 275 579 l 213 518 l 213 174 l 275 113 l 526 113 l 589 174 l 589 518 m 344 832 l 454 931 l 454 969 l 435 990 l 365 990 l 343 968 l 343 926 l 243 926 l 243 999 l 321 1078 l 482 1078 l 560 999 l 560 907 l 460 815 l 460 771 l 344 771 l 344 832 z "},"ỡ":{"ha":901,"x_min":83,"x_max":936,"o":"m 936 706 l 936 558 l 817 439 l 718 439 l 718 133 l 586 0 l 217 0 l 83 133 l 83 558 l 217 692 l 586 692 l 718 558 l 718 540 l 761 540 l 819 599 l 819 706 l 936 706 m 589 518 l 526 579 l 275 579 l 213 518 l 213 174 l 275 113 l 526 113 l 589 174 l 589 518 m 343 857 l 315 857 l 292 833 l 292 793 l 194 793 l 194 867 l 275 949 l 371 949 l 460 876 l 489 876 l 511 899 l 511 940 l 608 940 l 608 865 l 528 785 l 432 785 l 343 857 z "},"ő":{"ha":801,"x_min":83,"x_max":718,"o":"m 83 133 l 83 558 l 217 692 l 586 692 l 718 558 l 718 133 l 586 0 l 217 0 l 83 133 m 526 113 l 589 174 l 589 518 l 526 579 l 275 579 l 213 518 l 213 174 l 275 113 l 526 113 m 331 994 l 468 994 l 340 771 l 228 771 l 331 994 m 550 994 l 686 994 l 560 771 l 446 771 l 550 994 z "},"ō":{"ha":801,"x_min":83,"x_max":718,"o":"m 83 133 l 83 558 l 217 692 l 586 692 l 718 558 l 718 133 l 586 0 l 217 0 l 83 133 m 526 113 l 589 174 l 589 518 l 526 579 l 275 579 l 213 518 l 213 174 l 275 113 l 526 113 m 193 899 l 610 899 l 610 793 l 193 793 l 193 899 z "},"ø":{"ha":801,"x_min":25,"x_max":776,"o":"m 668 608 l 718 558 l 718 133 l 586 0 l 217 0 l 203 14 l 147 -56 l 25 -56 l 133 83 l 83 133 l 83 558 l 217 692 l 586 692 l 599 679 l 653 747 l 776 747 l 668 608 m 213 185 l 521 579 l 275 579 l 213 518 l 213 185 m 589 508 l 279 113 l 526 113 l 589 174 l 589 508 z "},"ǿ":{"ha":801,"x_min":25,"x_max":776,"o":"m 668 608 l 718 558 l 718 133 l 586 0 l 217 0 l 203 14 l 147 -56 l 25 -56 l 133 83 l 83 133 l 83 558 l 217 692 l 586 692 l 599 679 l 653 747 l 776 747 l 668 608 m 213 185 l 521 579 l 275 579 l 213 518 l 213 185 m 589 508 l 279 113 l 526 113 l 589 174 l 589 508 m 449 994 l 592 994 l 463 771 l 344 771 l 449 994 z "},"õ":{"ha":801,"x_min":83,"x_max":718,"o":"m 83 133 l 83 558 l 217 692 l 586 692 l 718 558 l 718 133 l 586 0 l 217 0 l 83 133 m 526 113 l 589 174 l 589 518 l 526 579 l 275 579 l 213 518 l 213 174 l 275 113 l 526 113 m 343 857 l 315 857 l 292 833 l 292 793 l 194 793 l 194 867 l 275 949 l 371 949 l 460 876 l 489 876 l 511 899 l 511 940 l 608 940 l 608 865 l 528 785 l 432 785 l 343 857 z "},"œ":{"ha":1282,"x_min":83,"x_max":1206,"o":"m 718 306 l 718 172 l 779 113 l 1015 113 l 1076 172 l 1076 222 l 1206 222 l 1206 135 l 1071 0 l 724 0 l 651 74 l 578 0 l 217 0 l 83 133 l 83 558 l 217 692 l 578 692 l 651 619 l 724 692 l 1071 692 l 1206 557 l 1206 306 l 718 306 m 718 519 l 718 407 l 1076 407 l 1076 519 l 1015 581 l 779 581 l 718 519 m 589 174 l 589 518 l 526 579 l 275 579 l 213 518 l 213 174 l 275 113 l 526 113 l 589 174 z "},"p":{"ha":815,"x_min":97,"x_max":732,"o":"m 97 692 l 221 692 l 221 575 l 336 692 l 600 692 l 732 558 l 732 133 l 600 0 l 332 0 l 226 92 l 226 -294 l 97 -294 l 97 692 m 540 113 l 603 175 l 603 517 l 540 579 l 363 579 l 226 442 l 226 226 l 353 113 l 540 113 z "},"þ":{"ha":815,"x_min":97,"x_max":732,"o":"m 97 986 l 225 986 l 225 581 l 336 692 l 600 692 l 732 558 l 732 133 l 600 0 l 332 0 l 226 92 l 226 -294 l 97 -294 l 97 986 m 540 113 l 603 175 l 603 517 l 540 579 l 363 579 l 226 442 l 226 226 l 353 113 l 540 113 z "},"q":{"ha":806,"x_min":83,"x_max":715,"o":"m 586 122 l 464 0 l 217 0 l 83 133 l 83 558 l 217 692 l 581 692 l 715 557 l 715 -294 l 586 -294 l 586 122 m 439 113 l 586 267 l 586 517 l 524 579 l 275 579 l 213 517 l 213 175 l 275 113 l 439 113 z "},"r":{"ha":546,"x_min":97,"x_max":525,"o":"m 97 692 l 221 692 l 221 571 l 340 692 l 525 692 l 525 579 l 369 579 l 226 435 l 226 0 l 97 0 l 97 692 z "},"ŕ":{"ha":546,"x_min":97,"x_max":525,"o":"m 97 692 l 221 692 l 221 571 l 340 692 l 525 692 l 525 579 l 369 579 l 226 435 l 226 0 l 97 0 l 97 692 m 353 994 l 496 994 l 367 771 l 249 771 l 353 994 z "},"ř":{"ha":546,"x_min":86,"x_max":525,"o":"m 97 692 l 221 692 l 221 571 l 340 692 l 525 692 l 525 579 l 369 579 l 226 435 l 226 0 l 97 0 l 97 692 m 86 975 l 211 975 l 301 857 l 310 857 l 400 975 l 525 975 l 364 771 l 247 771 l 86 975 z "},"ŗ":{"ha":546,"x_min":79,"x_max":525,"o":"m 97 692 l 221 692 l 221 571 l 340 692 l 525 692 l 525 579 l 369 579 l 226 435 l 226 0 l 97 0 l 97 692 z "},"ṛ":{"ha":546,"x_min":82,"x_max":525,"o":"m 97 692 l 221 692 l 221 571 l 340 692 l 525 692 l 525 579 l 369 579 l 226 435 l 226 0 l 97 0 l 97 692 z "},"ṝ":{"ha":546,"x_min":82,"x_max":525,"o":"m 97 692 l 221 692 l 221 571 l 340 692 l 525 692 l 525 579 l 369 579 l 226 435 l 226 0 l 97 0 l 97 692 m 97 899 l 514 899 l 514 793 l 97 793 l 97 899 z "},"ṟ":{"ha":546,"x_min":-46,"x_max":525,"o":"m 97 692 l 221 692 l 221 571 l 340 692 l 525 692 l 525 579 l 369 579 l 226 435 l 226 0 l 97 0 l 97 692 z "},"s":{"ha":722,"x_min":63,"x_max":660,"o":"m 63 121 l 63 207 l 192 207 l 192 156 l 239 110 l 483 110 l 531 156 l 531 247 l 483 296 l 185 296 l 68 413 l 68 571 l 188 692 l 525 692 l 646 571 l 646 485 l 517 485 l 517 536 l 469 582 l 244 582 l 197 536 l 197 450 l 244 401 l 540 401 l 660 282 l 660 121 l 540 0 l 183 0 l 63 121 z "},"ś":{"ha":722,"x_min":63,"x_max":660,"o":"m 63 121 l 63 207 l 192 207 l 192 156 l 239 110 l 483 110 l 531 156 l 531 247 l 483 296 l 185 296 l 68 413 l 68 571 l 188 692 l 525 692 l 646 571 l 646 485 l 517 485 l 517 536 l 469 582 l 244 582 l 197 536 l 197 450 l 244 401 l 540 401 l 660 282 l 660 121 l 540 0 l 183 0 l 63 121 m 401 994 l 544 994 l 415 771 l 297 771 l 401 994 z "},"š":{"ha":722,"x_min":63,"x_max":660,"o":"m 63 121 l 63 207 l 192 207 l 192 156 l 239 110 l 483 110 l 531 156 l 531 247 l 483 296 l 185 296 l 68 413 l 68 571 l 188 692 l 525 692 l 646 571 l 646 485 l 517 485 l 517 536 l 469 582 l 244 582 l 197 536 l 197 450 l 244 401 l 540 401 l 660 282 l 660 121 l 540 0 l 183 0 l 63 121 m 135 975 l 260 975 l 350 857 l 358 857 l 449 975 l 574 975 l 413 771 l 296 771 l 135 975 z "},"ş":{"ha":722,"x_min":63,"x_max":660,"o":"m 417 0 l 390 -65 l 472 -65 l 542 -135 l 542 -246 l 469 -318 l 254 -318 l 254 -236 l 418 -236 l 443 -212 l 443 -168 l 418 -143 l 278 -143 l 278 -93 l 314 0 l 183 0 l 63 121 l 63 207 l 192 207 l 192 156 l 239 110 l 483 110 l 531 156 l 531 247 l 483 296 l 185 296 l 68 413 l 68 571 l 188 692 l 525 692 l 646 571 l 646 485 l 517 485 l 517 536 l 469 582 l 244 582 l 197 536 l 197 450 l 244 401 l 540 401 l 660 282 l 660 121 l 540 0 l 417 0 z "},"ŝ":{"ha":722,"x_min":63,"x_max":660,"o":"m 63 121 l 63 207 l 192 207 l 192 156 l 239 110 l 483 110 l 531 156 l 531 247 l 483 296 l 185 296 l 68 413 l 68 571 l 188 692 l 525 692 l 646 571 l 646 485 l 517 485 l 517 536 l 469 582 l 244 582 l 197 536 l 197 450 l 244 401 l 540 401 l 660 282 l 660 121 l 540 0 l 183 0 l 63 121 m 296 975 l 413 975 l 574 771 l 449 771 l 358 889 l 350 889 l 260 771 l 135 771 l 296 975 z "},"ș":{"ha":722,"x_min":63,"x_max":660,"o":"m 63 121 l 63 207 l 192 207 l 192 156 l 239 110 l 483 110 l 531 156 l 531 247 l 483 296 l 185 296 l 68 413 l 68 571 l 188 692 l 525 692 l 646 571 l 646 485 l 517 485 l 517 536 l 469 582 l 244 582 l 197 536 l 197 450 l 244 401 l 540 401 l 660 282 l 660 121 l 540 0 l 183 0 l 63 121 z "},"ṡ":{"ha":722,"x_min":63,"x_max":660,"o":"m 63 121 l 63 207 l 192 207 l 192 156 l 239 110 l 483 110 l 531 156 l 531 247 l 483 296 l 185 296 l 68 413 l 68 571 l 188 692 l 525 692 l 646 571 l 646 485 l 517 485 l 517 536 l 469 582 l 244 582 l 197 536 l 197 450 l 244 401 l 540 401 l 660 282 l 660 121 l 540 0 l 183 0 l 63 121 m 274 825 l 274 894 l 318 939 l 390 939 l 435 894 l 435 825 l 390 781 l 318 781 l 274 825 z "},"ṣ":{"ha":722,"x_min":63,"x_max":660,"o":"m 63 121 l 63 207 l 192 207 l 192 156 l 239 110 l 483 110 l 531 156 l 531 247 l 483 296 l 185 296 l 68 413 l 68 571 l 188 692 l 525 692 l 646 571 l 646 485 l 517 485 l 517 536 l 469 582 l 244 582 l 197 536 l 197 450 l 244 401 l 540 401 l 660 282 l 660 121 l 540 0 l 183 0 l 63 121 z "},"ß":{"ha":882,"x_min":104,"x_max":840,"o":"m 104 839 l 232 968 l 581 968 l 708 839 l 708 683 l 594 539 l 594 497 l 617 476 l 719 476 l 840 356 l 840 121 l 719 0 l 482 0 l 361 121 l 361 213 l 489 213 l 489 157 l 538 110 l 663 110 l 711 157 l 711 319 l 663 368 l 554 368 l 465 457 l 465 556 l 579 701 l 579 803 l 524 857 l 289 857 l 233 803 l 233 0 l 104 0 l 104 839 z "},"t":{"ha":553,"x_min":35,"x_max":504,"o":"m 160 132 l 160 581 l 35 581 l 35 692 l 163 692 l 163 917 l 289 917 l 289 692 l 504 692 l 504 579 l 289 579 l 289 174 l 351 113 l 504 113 l 504 0 l 293 0 l 160 132 z "},"ŧ":{"ha":553,"x_min":35,"x_max":504,"o":"m 289 579 l 289 394 l 504 394 l 504 289 l 289 289 l 289 174 l 351 113 l 504 113 l 504 0 l 293 0 l 160 132 l 160 289 l 35 289 l 35 394 l 160 394 l 160 581 l 35 581 l 35 692 l 163 692 l 163 917 l 289 917 l 289 692 l 504 692 l 504 579 l 289 579 z "},"ť":{"ha":764,"x_min":35,"x_max":749,"o":"m 160 132 l 160 581 l 35 581 l 35 692 l 163 692 l 163 917 l 289 917 l 289 692 l 504 692 l 504 579 l 289 579 l 289 174 l 351 113 l 504 113 l 504 0 l 293 0 l 160 132 z "},"ţ":{"ha":553,"x_min":35,"x_max":504,"o":"m 289 579 l 289 174 l 351 113 l 504 113 l 504 0 l 358 0 l 332 -65 l 414 -65 l 483 -135 l 483 -246 l 411 -318 l 196 -318 l 196 -236 l 361 -236 l 385 -212 l 385 -168 l 361 -143 l 221 -143 l 221 -93 l 267 26 l 160 132 l 160 581 l 35 581 l 35 692 l 163 692 l 163 917 l 289 917 l 289 692 l 504 692 l 504 579 l 289 579 z "},"ț":{"ha":553,"x_min":35,"x_max":504,"o":"m 160 132 l 160 581 l 35 581 l 35 692 l 163 692 l 163 917 l 289 917 l 289 692 l 504 692 l 504 579 l 289 579 l 289 174 l 351 113 l 504 113 l 504 0 l 293 0 l 160 132 z "},"ẗ":{"ha":553,"x_min":11,"x_max":504,"o":"m 160 132 l 160 581 l 35 581 l 35 692 l 163 692 l 163 917 l 289 917 l 289 692 l 504 692 l 504 579 l 289 579 l 289 174 l 351 113 l 504 113 l 504 0 l 293 0 l 160 132 m 11 1051 l 11 1118 l 54 1161 l 126 1161 l 168 1118 l 168 1051 l 126 1008 l 54 1008 l 11 1051 m 296 1051 l 296 1118 l 338 1161 l 410 1161 l 453 1118 l 453 1051 l 410 1008 l 338 1008 l 296 1051 z "},"ṭ":{"ha":553,"x_min":35,"x_max":504,"o":"m 160 132 l 160 581 l 35 581 l 35 692 l 163 692 l 163 917 l 289 917 l 289 692 l 504 692 l 504 579 l 289 579 l 289 174 l 351 113 l 504 113 l 504 0 l 293 0 l 160 132 z "},"ṯ":{"ha":553,"x_min":35,"x_max":522,"o":"m 160 132 l 160 581 l 35 581 l 35 692 l 163 692 l 163 917 l 289 917 l 289 692 l 504 692 l 504 579 l 289 579 l 289 174 l 351 113 l 504 113 l 504 0 l 293 0 l 160 132 z "},"u":{"ha":799,"x_min":90,"x_max":701,"o":"m 90 133 l 90 692 l 219 692 l 219 174 l 282 113 l 411 113 l 572 274 l 572 692 l 701 692 l 701 0 l 578 0 l 578 138 l 440 0 l 224 0 l 90 133 z "},"ú":{"ha":799,"x_min":90,"x_max":701,"o":"m 90 133 l 90 692 l 219 692 l 219 174 l 282 113 l 411 113 l 572 274 l 572 692 l 701 692 l 701 0 l 578 0 l 578 138 l 440 0 l 224 0 l 90 133 m 444 994 l 588 994 l 458 771 l 340 771 l 444 994 z "},"ŭ":{"ha":799,"x_min":90,"x_max":701,"o":"m 90 133 l 90 692 l 219 692 l 219 174 l 282 113 l 411 113 l 572 274 l 572 692 l 701 692 l 701 0 l 578 0 l 578 138 l 440 0 l 224 0 l 90 133 m 192 875 l 192 967 l 301 967 l 301 906 l 347 860 l 447 860 l 493 906 l 493 967 l 603 967 l 603 875 l 497 771 l 297 771 l 192 875 z "},"ǔ":{"ha":799,"x_min":90,"x_max":701,"o":"m 90 133 l 90 692 l 219 692 l 219 174 l 282 113 l 411 113 l 572 274 l 572 692 l 701 692 l 701 0 l 578 0 l 578 138 l 440 0 l 224 0 l 90 133 m 178 975 l 303 975 l 393 857 l 401 857 l 492 975 l 617 975 l 456 771 l 339 771 l 178 975 z "},"û":{"ha":799,"x_min":90,"x_max":701,"o":"m 90 133 l 90 692 l 219 692 l 219 174 l 282 113 l 411 113 l 572 274 l 572 692 l 701 692 l 701 0 l 578 0 l 578 138 l 440 0 l 224 0 l 90 133 m 339 975 l 456 975 l 617 771 l 492 771 l 401 889 l 393 889 l 303 771 l 178 771 l 339 975 z "},"ü":{"ha":799,"x_min":90,"x_max":701,"o":"m 90 133 l 90 692 l 219 692 l 219 174 l 282 113 l 411 113 l 572 274 l 572 692 l 701 692 l 701 0 l 578 0 l 578 138 l 440 0 l 224 0 l 90 133 m 176 826 l 176 893 l 219 936 l 292 936 l 333 893 l 333 826 l 292 783 l 219 783 l 176 826 m 461 826 l 461 893 l 503 936 l 575 936 l 618 893 l 618 826 l 575 783 l 503 783 l 461 826 z "},"ǘ":{"ha":799,"x_min":90,"x_max":701,"o":"m 90 133 l 90 692 l 219 692 l 219 174 l 282 113 l 411 113 l 572 274 l 572 692 l 701 692 l 701 0 l 578 0 l 578 138 l 440 0 l 224 0 l 90 133 m 433 1192 l 563 1192 l 446 994 l 340 994 l 433 1192 m 176 826 l 176 893 l 219 936 l 292 936 l 333 893 l 333 826 l 292 783 l 219 783 l 176 826 m 461 826 l 461 893 l 503 936 l 575 936 l 618 893 l 618 826 l 575 783 l 503 783 l 461 826 z "},"ǚ":{"ha":799,"x_min":90,"x_max":701,"o":"m 90 133 l 90 692 l 219 692 l 219 174 l 282 113 l 411 113 l 572 274 l 572 692 l 701 692 l 701 0 l 578 0 l 578 138 l 440 0 l 224 0 l 90 133 m 188 1182 l 304 1182 l 393 1069 l 401 1069 l 490 1182 l 607 1182 l 453 990 l 342 990 l 188 1182 m 176 826 l 176 893 l 219 936 l 292 936 l 333 893 l 333 826 l 292 783 l 219 783 l 176 826 m 461 826 l 461 893 l 503 936 l 575 936 l 618 893 l 618 826 l 575 783 l 503 783 l 461 826 z "},"ǜ":{"ha":799,"x_min":90,"x_max":701,"o":"m 90 133 l 90 692 l 219 692 l 219 174 l 282 113 l 411 113 l 572 274 l 572 692 l 701 692 l 701 0 l 578 0 l 578 138 l 440 0 l 224 0 l 90 133 m 231 1192 l 360 1192 l 453 994 l 347 994 l 231 1192 m 176 826 l 176 893 l 219 936 l 292 936 l 333 893 l 333 826 l 292 783 l 219 783 l 176 826 m 461 826 l 461 893 l 503 936 l 575 936 l 618 893 l 618 826 l 575 783 l 503 783 l 461 826 z "},"ǖ":{"ha":799,"x_min":90,"x_max":701,"o":"m 90 133 l 90 692 l 219 692 l 219 174 l 282 113 l 411 113 l 572 274 l 572 692 l 701 692 l 701 0 l 578 0 l 578 138 l 440 0 l 224 0 l 90 133 m 189 1131 l 606 1131 l 606 1031 l 189 1031 l 189 1131 m 176 826 l 176 893 l 219 936 l 292 936 l 333 893 l 333 826 l 292 783 l 219 783 l 176 826 m 461 826 l 461 893 l 503 936 l 575 936 l 618 893 l 618 826 l 575 783 l 503 783 l 461 826 z "},"ụ":{"ha":799,"x_min":90,"x_max":701,"o":"m 90 133 l 90 692 l 219 692 l 219 174 l 282 113 l 411 113 l 572 274 l 572 692 l 701 692 l 701 0 l 578 0 l 578 138 l 440 0 l 224 0 l 90 133 z "},"ù":{"ha":799,"x_min":90,"x_max":701,"o":"m 90 133 l 90 692 l 219 692 l 219 174 l 282 113 l 411 113 l 572 274 l 572 692 l 701 692 l 701 0 l 578 0 l 578 138 l 440 0 l 224 0 l 90 133 m 208 994 l 351 994 l 456 771 l 338 771 l 208 994 z "},"ủ":{"ha":799,"x_min":90,"x_max":701,"o":"m 90 133 l 90 692 l 219 692 l 219 174 l 282 113 l 411 113 l 572 274 l 572 692 l 701 692 l 701 0 l 578 0 l 578 138 l 440 0 l 224 0 l 90 133 m 340 832 l 450 931 l 450 969 l 431 990 l 361 990 l 339 968 l 339 926 l 239 926 l 239 999 l 317 1078 l 478 1078 l 556 999 l 556 907 l 456 815 l 456 771 l 340 771 l 340 832 z "},"ư":{"ha":904,"x_min":90,"x_max":919,"o":"m 919 706 l 919 558 l 799 439 l 701 439 l 701 0 l 578 0 l 578 138 l 440 0 l 224 0 l 90 133 l 90 692 l 219 692 l 219 174 l 282 113 l 411 113 l 572 274 l 572 692 l 701 692 l 701 540 l 744 540 l 803 599 l 803 706 l 919 706 z "},"ứ":{"ha":904,"x_min":90,"x_max":919,"o":"m 919 706 l 919 558 l 799 439 l 701 439 l 701 0 l 578 0 l 578 138 l 440 0 l 224 0 l 90 133 l 90 692 l 219 692 l 219 174 l 282 113 l 411 113 l 572 274 l 572 692 l 701 692 l 701 540 l 744 540 l 803 599 l 803 706 l 919 706 m 444 994 l 588 994 l 458 771 l 340 771 l 444 994 z "},"ự":{"ha":904,"x_min":90,"x_max":919,"o":"m 919 706 l 919 558 l 799 439 l 701 439 l 701 0 l 578 0 l 578 138 l 440 0 l 224 0 l 90 133 l 90 692 l 219 692 l 219 174 l 282 113 l 411 113 l 572 274 l 572 692 l 701 692 l 701 540 l 744 540 l 803 599 l 803 706 l 919 706 z "},"ừ":{"ha":904,"x_min":90,"x_max":919,"o":"m 919 706 l 919 558 l 799 439 l 701 439 l 701 0 l 578 0 l 578 138 l 440 0 l 224 0 l 90 133 l 90 692 l 219 692 l 219 174 l 282 113 l 411 113 l 572 274 l 572 692 l 701 692 l 701 540 l 744 540 l 803 599 l 803 706 l 919 706 m 208 994 l 351 994 l 456 771 l 338 771 l 208 994 z "},"ử":{"ha":904,"x_min":90,"x_max":919,"o":"m 919 706 l 919 558 l 799 439 l 701 439 l 701 0 l 578 0 l 578 138 l 440 0 l 224 0 l 90 133 l 90 692 l 219 692 l 219 174 l 282 113 l 411 113 l 572 274 l 572 692 l 701 692 l 701 540 l 744 540 l 803 599 l 803 706 l 919 706 m 340 832 l 450 931 l 450 969 l 431 990 l 361 990 l 339 968 l 339 926 l 239 926 l 239 999 l 317 1078 l 478 1078 l 556 999 l 556 907 l 456 815 l 456 771 l 340 771 l 340 832 z "},"ữ":{"ha":904,"x_min":90,"x_max":919,"o":"m 919 706 l 919 558 l 799 439 l 701 439 l 701 0 l 578 0 l 578 138 l 440 0 l 224 0 l 90 133 l 90 692 l 219 692 l 219 174 l 282 113 l 411 113 l 572 274 l 572 692 l 701 692 l 701 540 l 744 540 l 803 599 l 803 706 l 919 706 m 339 857 l 311 857 l 288 833 l 288 793 l 190 793 l 190 867 l 271 949 l 367 949 l 456 876 l 485 876 l 507 899 l 507 940 l 604 940 l 604 865 l 524 785 l 428 785 l 339 857 z "},"ű":{"ha":799,"x_min":90,"x_max":701,"o":"m 90 133 l 90 692 l 219 692 l 219 174 l 282 113 l 411 113 l 572 274 l 572 692 l 701 692 l 701 0 l 578 0 l 578 138 l 440 0 l 224 0 l 90 133 m 326 994 l 464 994 l 336 771 l 224 771 l 326 994 m 546 994 l 682 994 l 556 771 l 442 771 l 546 994 z "},"ū":{"ha":799,"x_min":90,"x_max":701,"o":"m 90 133 l 90 692 l 219 692 l 219 174 l 282 113 l 411 113 l 572 274 l 572 692 l 701 692 l 701 0 l 578 0 l 578 138 l 440 0 l 224 0 l 90 133 m 189 899 l 606 899 l 606 793 l 189 793 l 189 899 z "},"ų":{"ha":799,"x_min":90,"x_max":750,"o":"m 90 133 l 90 692 l 219 692 l 219 174 l 282 113 l 411 113 l 572 274 l 572 692 l 701 692 l 701 0 l 578 0 l 578 138 l 440 0 l 224 0 l 90 133 m 500 -197 l 500 -93 l 586 0 l 701 0 l 613 -104 l 613 -157 l 644 -189 l 750 -189 l 750 -281 l 583 -281 l 500 -197 z "},"ů":{"ha":799,"x_min":90,"x_max":701,"o":"m 90 133 l 90 692 l 219 692 l 219 174 l 282 113 l 411 113 l 572 274 l 572 692 l 701 692 l 701 0 l 578 0 l 578 138 l 440 0 l 224 0 l 90 133 m 246 846 l 246 969 l 331 1054 l 464 1054 l 549 969 l 549 846 l 464 761 l 331 761 l 246 846 m 429 842 l 464 878 l 464 938 l 429 972 l 365 972 l 331 938 l 331 878 l 365 842 l 429 842 z "},"ũ":{"ha":799,"x_min":90,"x_max":701,"o":"m 90 133 l 90 692 l 219 692 l 219 174 l 282 113 l 411 113 l 572 274 l 572 692 l 701 692 l 701 0 l 578 0 l 578 138 l 440 0 l 224 0 l 90 133 m 339 857 l 311 857 l 288 833 l 288 793 l 190 793 l 190 867 l 271 949 l 367 949 l 456 876 l 485 876 l 507 899 l 507 940 l 604 940 l 604 865 l 524 785 l 428 785 l 339 857 z "},"v":{"ha":682,"x_min":14,"x_max":668,"o":"m 14 692 l 147 692 l 339 139 l 344 139 l 535 692 l 668 692 l 411 0 l 272 0 l 14 692 z "},"w":{"ha":992,"x_min":42,"x_max":950,"o":"m 42 692 l 174 692 l 279 163 l 283 163 l 436 692 l 558 692 l 699 163 l 703 163 l 818 692 l 950 692 l 774 0 l 643 0 l 499 536 l 494 536 l 338 0 l 206 0 l 42 692 z "},"ẃ":{"ha":992,"x_min":42,"x_max":950,"o":"m 42 692 l 174 692 l 279 163 l 283 163 l 436 692 l 558 692 l 699 163 l 703 163 l 818 692 l 950 692 l 774 0 l 643 0 l 499 536 l 494 536 l 338 0 l 206 0 l 42 692 m 543 994 l 686 994 l 557 771 l 439 771 l 543 994 z "},"ŵ":{"ha":992,"x_min":42,"x_max":950,"o":"m 42 692 l 174 692 l 279 163 l 283 163 l 436 692 l 558 692 l 699 163 l 703 163 l 818 692 l 950 692 l 774 0 l 643 0 l 499 536 l 494 536 l 338 0 l 206 0 l 42 692 m 438 975 l 554 975 l 715 771 l 590 771 l 500 889 l 492 889 l 401 771 l 276 771 l 438 975 z "},"ẅ":{"ha":992,"x_min":42,"x_max":950,"o":"m 42 692 l 174 692 l 279 163 l 283 163 l 436 692 l 558 692 l 699 163 l 703 163 l 818 692 l 950 692 l 774 0 l 643 0 l 499 536 l 494 536 l 338 0 l 206 0 l 42 692 m 275 826 l 275 893 l 318 936 l 390 936 l 432 893 l 432 826 l 390 783 l 318 783 l 275 826 m 560 826 l 560 893 l 601 936 l 674 936 l 717 893 l 717 826 l 674 783 l 601 783 l 560 826 z "},"ẁ":{"ha":992,"x_min":42,"x_max":950,"o":"m 42 692 l 174 692 l 279 163 l 283 163 l 436 692 l 558 692 l 699 163 l 703 163 l 818 692 l 950 692 l 774 0 l 643 0 l 499 536 l 494 536 l 338 0 l 206 0 l 42 692 m 300 994 l 443 994 l 547 771 l 429 771 l 300 994 z "},"x":{"ha":696,"x_min":21,"x_max":675,"o":"m 529 0 l 349 251 l 167 0 l 21 0 l 276 351 l 28 692 l 174 692 l 349 449 l 522 692 l 668 692 l 421 349 l 675 0 l 529 0 z "},"y":{"ha":801,"x_min":90,"x_max":704,"o":"m 704 692 l 704 -171 l 569 -304 l 225 -304 l 111 -190 l 111 -103 l 240 -103 l 240 -151 l 282 -192 l 513 -192 l 575 -131 l 575 132 l 442 0 l 225 0 l 90 135 l 90 692 l 219 692 l 219 175 l 282 113 l 415 113 l 575 275 l 575 692 l 704 692 z "},"ý":{"ha":801,"x_min":90,"x_max":704,"o":"m 704 692 l 704 -171 l 569 -304 l 225 -304 l 111 -190 l 111 -103 l 240 -103 l 240 -151 l 282 -192 l 513 -192 l 575 -131 l 575 132 l 442 0 l 225 0 l 90 135 l 90 692 l 219 692 l 219 175 l 282 113 l 415 113 l 575 275 l 575 692 l 704 692 m 447 994 l 590 994 l 461 771 l 343 771 l 447 994 z "},"ŷ":{"ha":801,"x_min":90,"x_max":704,"o":"m 704 692 l 704 -171 l 569 -304 l 225 -304 l 111 -190 l 111 -103 l 240 -103 l 240 -151 l 282 -192 l 513 -192 l 575 -131 l 575 132 l 442 0 l 225 0 l 90 135 l 90 692 l 219 692 l 219 175 l 282 113 l 415 113 l 575 275 l 575 692 l 704 692 m 342 975 l 458 975 l 619 771 l 494 771 l 404 889 l 396 889 l 306 771 l 181 771 l 342 975 z "},"ÿ":{"ha":801,"x_min":90,"x_max":704,"o":"m 704 692 l 704 -171 l 569 -304 l 225 -304 l 111 -190 l 111 -103 l 240 -103 l 240 -151 l 282 -192 l 513 -192 l 575 -131 l 575 132 l 442 0 l 225 0 l 90 135 l 90 692 l 219 692 l 219 175 l 282 113 l 415 113 l 575 275 l 575 692 l 704 692 m 179 826 l 179 893 l 222 936 l 294 936 l 336 893 l 336 826 l 294 783 l 222 783 l 179 826 m 464 826 l 464 893 l 506 936 l 578 936 l 621 893 l 621 826 l 578 783 l 506 783 l 464 826 z "},"ẏ":{"ha":801,"x_min":90,"x_max":704,"o":"m 704 692 l 704 -171 l 569 -304 l 225 -304 l 111 -190 l 111 -103 l 240 -103 l 240 -151 l 282 -192 l 513 -192 l 575 -131 l 575 132 l 442 0 l 225 0 l 90 135 l 90 692 l 219 692 l 219 175 l 282 113 l 415 113 l 575 275 l 575 692 l 704 692 m 319 825 l 319 894 l 364 939 l 436 939 l 481 894 l 481 825 l 436 781 l 364 781 l 319 825 z "},"ỵ":{"ha":801,"x_min":90,"x_max":704,"o":"m 704 692 l 704 -171 l 569 -304 l 225 -304 l 111 -190 l 111 -103 l 240 -103 l 240 -151 l 282 -192 l 513 -192 l 575 -131 l 575 132 l 442 0 l 225 0 l 90 135 l 90 692 l 219 692 l 219 175 l 282 113 l 415 113 l 575 275 l 575 692 l 704 692 z "},"ỳ":{"ha":801,"x_min":90,"x_max":704,"o":"m 704 692 l 704 -171 l 569 -304 l 225 -304 l 111 -190 l 111 -103 l 240 -103 l 240 -151 l 282 -192 l 513 -192 l 575 -131 l 575 132 l 442 0 l 225 0 l 90 135 l 90 692 l 219 692 l 219 175 l 282 113 l 415 113 l 575 275 l 575 692 l 704 692 m 208 994 l 351 994 l 456 771 l 338 771 l 208 994 z "},"ỷ":{"ha":801,"x_min":90,"x_max":704,"o":"m 704 692 l 704 -171 l 569 -304 l 225 -304 l 111 -190 l 111 -103 l 240 -103 l 240 -151 l 282 -192 l 513 -192 l 575 -131 l 575 132 l 442 0 l 225 0 l 90 135 l 90 692 l 219 692 l 219 175 l 282 113 l 415 113 l 575 275 l 575 692 l 704 692 m 343 832 l 453 931 l 453 969 l 433 990 l 364 990 l 342 968 l 342 926 l 242 926 l 242 999 l 319 1078 l 481 1078 l 558 999 l 558 907 l 458 815 l 458 771 l 343 771 l 343 832 z "},"ỹ":{"ha":801,"x_min":90,"x_max":704,"o":"m 704 692 l 704 -171 l 569 -304 l 225 -304 l 111 -190 l 111 -103 l 240 -103 l 240 -151 l 282 -192 l 513 -192 l 575 -131 l 575 132 l 442 0 l 225 0 l 90 135 l 90 692 l 219 692 l 219 175 l 282 113 l 415 113 l 575 275 l 575 692 l 704 692 m 342 857 l 314 857 l 290 833 l 290 793 l 193 793 l 193 867 l 274 949 l 369 949 l 458 876 l 488 876 l 510 899 l 510 940 l 607 940 l 607 865 l 526 785 l 431 785 l 342 857 z "},"z":{"ha":669,"x_min":49,"x_max":621,"o":"m 49 111 l 463 582 l 463 585 l 63 585 l 63 692 l 621 692 l 621 581 l 207 110 l 207 107 l 621 107 l 621 0 l 49 0 l 49 111 z "},"ź":{"ha":669,"x_min":49,"x_max":621,"o":"m 49 111 l 463 582 l 463 585 l 63 585 l 63 692 l 621 692 l 621 581 l 207 110 l 207 107 l 621 107 l 621 0 l 49 0 l 49 111 m 388 994 l 531 994 l 401 771 l 283 771 l 388 994 z "},"ž":{"ha":669,"x_min":49,"x_max":621,"o":"m 49 111 l 463 582 l 463 585 l 63 585 l 63 692 l 621 692 l 621 581 l 207 110 l 207 107 l 621 107 l 621 0 l 49 0 l 49 111 m 121 975 l 246 975 l 336 857 l 344 857 l 435 975 l 560 975 l 399 771 l 282 771 l 121 975 z "},"ż":{"ha":669,"x_min":49,"x_max":621,"o":"m 49 111 l 463 582 l 463 585 l 63 585 l 63 692 l 621 692 l 621 581 l 207 110 l 207 107 l 621 107 l 621 0 l 49 0 l 49 111 m 260 825 l 260 894 l 304 939 l 376 939 l 421 894 l 421 825 l 376 781 l 304 781 l 260 825 z "},"ẓ":{"ha":669,"x_min":49,"x_max":621,"o":"m 49 111 l 463 582 l 463 585 l 63 585 l 63 692 l 621 692 l 621 581 l 207 110 l 207 107 l 621 107 l 621 0 l 49 0 l 49 111 z "},"ﬁ":{"ha":824,"x_min":35,"x_max":726,"o":"m 726 0 l 596 0 l 596 579 l 289 579 l 289 0 l 160 0 l 160 579 l 35 579 l 35 692 l 160 692 l 160 853 l 288 979 l 507 979 l 507 869 l 344 869 l 289 815 l 289 692 l 726 692 l 726 0 z "},"ﬂ":{"ha":860,"x_min":35,"x_max":756,"o":"m 756 0 l 625 0 l 625 879 l 344 879 l 289 824 l 289 692 l 503 692 l 503 579 l 289 579 l 289 0 l 160 0 l 160 579 l 35 579 l 35 692 l 160 692 l 160 858 l 288 986 l 756 986 l 756 0 z "},"ª":{"ha":583,"x_min":63,"x_max":514,"o":"m 63 576 l 63 686 l 151 775 l 399 775 l 399 842 l 367 874 l 213 874 l 183 844 l 183 813 l 67 813 l 67 869 l 169 972 l 411 972 l 514 868 l 514 488 l 408 488 l 408 560 l 331 488 l 151 488 l 63 576 m 325 582 l 399 651 l 399 690 l 207 690 l 179 663 l 179 608 l 206 582 l 325 582 z "},"º":{"ha":590,"x_min":63,"x_max":528,"o":"m 63 588 l 63 872 l 163 972 l 428 972 l 528 872 l 528 588 l 428 488 l 163 488 l 63 588 m 374 590 l 408 626 l 408 833 l 374 869 l 218 869 l 182 833 l 182 626 l 218 590 l 374 590 z "},"ⁿ":{"ha":593,"x_min":69,"x_max":524,"o":"m 69 972 l 179 972 l 179 888 l 265 972 l 418 972 l 524 865 l 524 488 l 404 488 l 404 832 l 369 867 l 282 867 l 190 774 l 190 488 l 69 488 l 69 972 z "},"Δ":{"ha":903,"x_min":42,"x_max":861,"o":"m 42 94 l 371 972 l 532 972 l 861 94 l 861 0 l 42 0 l 42 94 m 722 111 l 456 851 l 447 851 l 179 111 l 722 111 z "},"Ω":{"ha":971,"x_min":76,"x_max":894,"o":"m 76 111 l 257 111 l 257 226 l 101 382 l 101 831 l 243 972 l 728 972 l 869 831 l 869 382 l 714 226 l 714 111 l 894 111 l 894 0 l 589 0 l 589 269 l 738 419 l 738 786 l 667 857 l 304 857 l 233 786 l 233 419 l 382 269 l 382 0 l 76 0 l 76 111 z "},"μ":{"ha":806,"x_min":97,"x_max":708,"o":"m 708 692 l 708 0 l 585 0 l 585 126 l 458 0 l 288 0 l 226 61 l 226 -278 l 97 -278 l 97 692 l 226 692 l 226 203 l 317 113 l 429 113 l 579 264 l 579 692 l 708 692 z "},"π":{"ha":997,"x_min":69,"x_max":928,"o":"m 765 578 l 765 163 l 817 113 l 928 113 l 928 0 l 757 0 l 636 121 l 636 579 l 346 579 l 346 0 l 215 0 l 215 579 l 69 579 l 69 692 l 928 692 l 928 578 l 765 578 z "},"ก":{"ha":833,"x_min":63,"x_max":729,"o":"m 114 408 l 186 503 l 63 621 l 213 775 l 610 775 l 729 656 l 729 0 l 599 0 l 599 607 l 547 660 l 257 660 l 213 617 l 328 504 l 244 386 l 244 0 l 114 0 l 114 408 z "},"ข":{"ha":810,"x_min":42,"x_max":706,"o":"m 313 111 l 313 383 l 385 553 l 385 639 l 329 696 l 208 696 l 167 658 l 236 658 l 314 579 l 314 485 l 233 401 l 125 401 l 42 485 l 42 651 l 174 789 l 383 789 l 497 675 l 497 538 l 439 394 l 439 153 l 479 111 l 539 111 l 579 153 l 579 775 l 706 775 l 706 111 l 594 0 l 424 0 l 313 111 m 201 475 l 235 508 l 235 558 l 201 592 l 154 592 l 121 560 l 121 508 l 154 475 l 201 475 z "},"ฃ":{"ha":833,"x_min":35,"x_max":729,"o":"m 336 111 l 336 394 l 426 564 l 426 668 l 403 693 l 385 693 l 315 619 l 242 693 l 190 693 l 139 640 l 225 640 l 300 565 l 300 471 l 222 390 l 115 390 l 35 471 l 35 647 l 158 789 l 257 789 l 315 725 l 371 789 l 454 789 l 538 697 l 538 551 l 463 410 l 463 153 l 503 111 l 561 111 l 601 153 l 601 775 l 729 775 l 729 111 l 618 0 l 447 0 l 336 111 m 192 463 l 224 496 l 224 543 l 192 576 l 144 576 l 113 546 l 113 496 l 144 463 l 192 463 z "},"ค":{"ha":869,"x_min":104,"x_max":765,"o":"m 765 643 l 765 0 l 636 0 l 636 606 l 583 660 l 285 660 l 232 606 l 232 338 l 382 483 l 490 483 l 574 399 l 574 299 l 490 214 l 385 214 l 315 285 l 279 247 l 233 203 l 233 0 l 104 0 l 104 643 l 236 775 l 633 775 l 765 643 m 378 321 l 408 290 l 463 290 l 493 321 l 493 376 l 463 407 l 408 407 l 378 376 l 378 321 z "},"ฅ":{"ha":872,"x_min":104,"x_max":768,"o":"m 768 657 l 768 0 l 639 0 l 639 617 l 603 660 l 547 660 l 436 575 l 324 660 l 268 660 l 232 617 l 232 328 l 381 472 l 489 472 l 572 388 l 572 289 l 489 204 l 383 204 l 314 274 l 278 236 l 233 194 l 233 0 l 104 0 l 104 657 l 207 775 l 342 775 l 436 699 l 531 775 l 663 775 l 768 657 m 376 311 l 407 279 l 461 279 l 492 311 l 492 365 l 461 397 l 407 397 l 376 365 l 376 311 z "},"ฆ":{"ha":919,"x_min":49,"x_max":815,"o":"m 815 775 l 815 0 l 713 0 l 450 143 l 450 86 l 364 0 l 244 0 l 157 88 l 157 193 l 244 281 l 310 281 l 310 371 l 456 568 l 456 667 l 432 693 l 399 693 l 329 619 l 256 693 l 204 693 l 153 640 l 239 640 l 314 565 l 314 471 l 236 390 l 129 390 l 49 471 l 49 647 l 172 789 l 271 789 l 329 725 l 385 789 l 486 789 l 569 696 l 569 550 l 438 367 l 438 269 l 685 133 l 685 775 l 815 775 m 126 546 l 126 496 l 158 463 l 206 463 l 238 496 l 238 543 l 206 576 l 158 576 l 126 546 m 363 168 l 331 200 l 278 200 l 246 168 l 246 114 l 278 82 l 331 82 l 363 114 l 363 168 z "},"ง":{"ha":685,"x_min":28,"x_max":581,"o":"m 28 447 l 126 514 l 410 115 l 450 115 l 450 431 l 458 490 l 369 490 l 282 578 l 282 686 l 371 775 l 492 775 l 581 686 l 581 65 l 517 0 l 351 0 l 28 447 m 458 572 l 489 604 l 489 660 l 458 692 l 404 692 l 372 660 l 372 604 l 404 572 l 458 572 z "},"จ":{"ha":793,"x_min":35,"x_max":689,"o":"m 689 654 l 689 0 l 558 0 l 558 214 l 504 261 l 483 286 l 410 211 l 293 211 l 207 297 l 207 407 l 293 493 l 411 493 l 560 357 l 560 607 l 508 660 l 211 660 l 164 611 l 164 528 l 35 528 l 35 654 l 156 775 l 568 775 l 689 654 m 410 379 l 379 411 l 325 411 l 293 379 l 293 324 l 325 293 l 379 293 l 410 324 l 410 379 z "},"ฉ":{"ha":849,"x_min":56,"x_max":793,"o":"m 793 196 l 793 81 l 710 0 l 588 0 l 506 78 l 506 128 l 322 0 l 218 0 l 218 147 l 225 211 l 142 211 l 56 297 l 56 406 l 142 492 l 261 492 l 344 408 l 344 135 l 601 301 l 601 608 l 550 660 l 246 660 l 199 613 l 199 561 l 68 561 l 68 654 l 189 775 l 613 775 l 732 654 l 732 256 l 793 196 m 260 379 l 228 410 l 174 410 l 143 379 l 143 324 l 174 292 l 228 292 l 260 324 l 260 379 m 706 167 l 674 199 l 624 199 l 592 167 l 592 114 l 624 82 l 674 82 l 706 114 l 706 167 z "},"ช":{"ha":835,"x_min":42,"x_max":842,"o":"m 313 111 l 313 383 l 385 553 l 385 639 l 329 696 l 208 696 l 167 658 l 236 658 l 314 579 l 314 485 l 233 401 l 125 401 l 42 485 l 42 651 l 174 789 l 383 789 l 497 675 l 497 538 l 439 394 l 439 153 l 479 111 l 554 111 l 594 153 l 594 556 l 556 611 l 556 664 l 763 869 l 842 786 l 678 628 l 721 565 l 721 111 l 610 0 l 424 0 l 313 111 m 201 475 l 235 508 l 235 558 l 201 592 l 154 592 l 121 560 l 121 508 l 154 475 l 201 475 z "},"ซ":{"ha":857,"x_min":35,"x_max":864,"o":"m 336 111 l 336 394 l 426 564 l 426 668 l 403 693 l 385 693 l 315 619 l 242 693 l 190 693 l 139 640 l 225 640 l 300 565 l 300 471 l 222 390 l 115 390 l 35 471 l 35 647 l 158 789 l 257 789 l 315 725 l 371 789 l 454 789 l 538 697 l 538 551 l 463 410 l 463 154 l 503 113 l 576 113 l 617 154 l 617 558 l 583 613 l 583 667 l 785 869 l 864 786 l 703 628 l 743 565 l 743 111 l 632 0 l 447 0 l 336 111 m 192 463 l 224 496 l 224 543 l 192 576 l 144 576 l 113 546 l 113 496 l 144 463 l 192 463 z "},"ฌ":{"ha":1200,"x_min":63,"x_max":1096,"o":"m 1096 775 l 1096 0 l 993 0 l 758 133 l 758 86 l 672 0 l 554 0 l 468 88 l 468 196 l 556 283 l 596 283 l 596 607 l 544 660 l 257 660 l 213 617 l 328 504 l 240 389 l 240 331 l 235 281 l 315 281 l 401 197 l 401 86 l 314 0 l 197 0 l 110 86 l 110 411 l 186 503 l 63 621 l 213 775 l 606 775 l 725 656 l 725 271 l 965 135 l 965 775 l 1096 775 m 199 168 l 199 114 l 232 82 l 281 82 l 314 114 l 314 168 l 281 200 l 232 200 l 199 168 m 672 168 l 639 200 l 589 200 l 556 168 l 556 115 l 589 82 l 639 82 l 672 115 l 672 168 z "},"ญ":{"ha":1217,"x_min":63,"x_max":1135,"o":"m 110 86 l 110 411 l 186 503 l 63 621 l 213 775 l 590 775 l 710 656 l 710 165 l 760 115 l 932 115 l 982 165 l 982 775 l 1113 775 l 1113 118 l 996 0 l 697 0 l 579 118 l 579 607 l 528 660 l 257 660 l 213 617 l 328 504 l 240 389 l 240 329 l 235 279 l 315 279 l 401 196 l 401 86 l 315 0 l 197 0 l 110 86 m 281 81 l 314 113 l 314 167 l 281 199 l 232 199 l 199 167 l 199 113 l 232 81 l 281 81 m 579 -240 l 579 -139 l 656 -61 l 765 -61 l 843 -139 l 843 -208 l 929 -208 l 1054 -85 l 1135 -168 l 983 -317 l 656 -317 l 579 -240 m 732 -242 l 763 -212 l 763 -165 l 732 -136 l 690 -136 l 660 -165 l 660 -212 l 690 -242 l 732 -242 z "},"ฎ":{"ha":875,"x_min":35,"x_max":771,"o":"m 139 -294 l 139 -179 l 224 -96 l 513 -96 l 640 -228 l 640 607 l 588 660 l 294 660 l 251 617 l 385 504 l 321 388 l 321 86 l 235 0 l 122 0 l 35 86 l 35 196 l 121 279 l 199 279 l 192 321 l 192 413 l 246 503 l 100 621 l 250 775 l 651 775 l 771 656 l 771 -381 l 672 -381 l 593 -304 l 524 -381 l 225 -381 l 139 -294 m 203 81 l 235 113 l 235 167 l 203 199 l 153 199 l 121 167 l 121 113 l 153 81 l 203 81 m 479 -293 l 525 -240 l 471 -183 l 275 -183 l 242 -217 l 242 -260 l 275 -293 l 479 -293 z "},"ฏ":{"ha":875,"x_min":35,"x_max":771,"o":"m 110 -297 l 110 -182 l 192 -99 l 349 -99 l 492 -253 l 553 -162 l 640 -249 l 640 607 l 588 660 l 294 660 l 251 617 l 385 504 l 321 388 l 321 86 l 235 0 l 122 0 l 35 86 l 35 196 l 121 279 l 199 279 l 192 321 l 192 413 l 246 503 l 100 621 l 250 775 l 651 775 l 771 656 l 771 -381 l 660 -381 l 565 -286 l 497 -381 l 417 -296 l 332 -381 l 192 -381 l 110 -297 m 203 81 l 235 113 l 235 167 l 203 199 l 153 199 l 121 167 l 121 113 l 153 81 l 203 81 m 306 -296 l 363 -239 l 308 -182 l 232 -182 l 201 -212 l 201 -265 l 232 -296 l 306 -296 z "},"ฐ":{"ha":739,"x_min":17,"x_max":678,"o":"m 507 431 l 42 528 l 42 654 l 163 775 l 649 775 l 649 665 l 217 665 l 172 622 l 172 601 l 635 507 l 635 0 l 504 0 l 504 128 l 449 176 l 426 201 l 353 128 l 242 128 l 156 214 l 156 317 l 242 403 l 356 403 l 507 263 l 507 431 m 356 292 l 324 324 l 274 324 l 242 292 l 242 239 l 274 208 l 324 208 l 356 239 l 356 292 m 678 -106 l 678 -396 l 490 -396 l 422 -329 l 358 -396 l 285 -315 l 213 -396 l 100 -396 l 17 -312 l 17 -194 l 99 -112 l 221 -112 l 364 -283 l 419 -226 l 508 -310 l 574 -310 l 574 -275 l 579 -251 l 515 -251 l 451 -189 l 451 -107 l 518 -40 l 613 -40 l 678 -106 m 546 -192 l 583 -192 l 607 -168 l 607 -128 l 583 -104 l 546 -104 l 522 -128 l 522 -168 l 546 -192 m 239 -256 l 188 -193 l 133 -193 l 103 -224 l 103 -283 l 133 -314 l 189 -314 l 239 -256 z "},"ฑ":{"ha":994,"x_min":28,"x_max":890,"o":"m 333 450 l 419 617 l 419 668 l 396 693 l 378 693 l 308 619 l 235 693 l 183 693 l 132 640 l 218 640 l 293 565 l 293 471 l 215 390 l 108 390 l 28 471 l 28 647 l 151 789 l 250 789 l 308 725 l 364 789 l 443 789 l 526 696 l 526 606 l 447 443 l 447 174 l 449 174 l 643 775 l 778 775 l 890 654 l 890 0 l 760 0 l 760 611 l 722 657 l 699 657 l 481 0 l 333 0 l 333 450 m 185 463 l 217 496 l 217 543 l 185 576 l 138 576 l 106 546 l 106 496 l 138 463 l 185 463 z "},"ฒ":{"ha":1236,"x_min":104,"x_max":1132,"o":"m 1132 775 l 1132 0 l 1029 0 l 806 128 l 806 82 l 724 0 l 608 0 l 525 83 l 525 190 l 608 272 l 639 272 l 639 617 l 603 660 l 547 660 l 435 575 l 324 660 l 265 660 l 229 617 l 229 126 l 326 221 l 357 246 l 289 313 l 289 418 l 371 500 l 479 500 l 560 419 l 560 308 l 235 0 l 104 0 l 104 657 l 207 775 l 340 775 l 435 699 l 529 775 l 661 775 l 767 657 l 767 271 l 1001 135 l 1001 775 l 1132 775 m 367 340 l 397 308 l 451 308 l 482 340 l 482 394 l 451 426 l 397 426 l 367 394 l 367 340 m 725 164 l 692 196 l 642 196 l 608 164 l 608 111 l 642 79 l 692 79 l 725 111 l 725 164 z "},"ณ":{"ha":1221,"x_min":63,"x_max":1172,"o":"m 1172 196 l 1172 81 l 1090 0 l 967 0 l 886 78 l 886 133 l 688 0 l 582 0 l 582 607 l 531 660 l 257 660 l 213 617 l 328 504 l 240 389 l 240 329 l 235 279 l 315 279 l 401 196 l 401 86 l 315 0 l 197 0 l 110 86 l 110 411 l 186 503 l 63 621 l 213 775 l 592 775 l 711 656 l 711 135 l 978 301 l 978 775 l 1108 775 l 1108 258 l 1172 196 m 199 167 l 199 113 l 232 81 l 281 81 l 314 113 l 314 167 l 281 199 l 232 199 l 199 167 m 1086 165 l 1053 199 l 1004 199 l 972 165 l 972 115 l 1004 82 l 1053 82 l 1086 115 l 1086 165 z "},"ด":{"ha":869,"x_min":104,"x_max":765,"o":"m 765 654 l 765 0 l 636 0 l 636 607 l 583 660 l 282 660 l 231 607 l 231 128 l 326 215 l 363 246 l 299 310 l 299 417 l 381 499 l 490 499 l 571 418 l 571 304 l 235 0 l 104 0 l 104 654 l 225 775 l 644 775 l 765 654 m 376 338 l 408 306 l 461 306 l 493 338 l 493 392 l 461 424 l 408 424 l 376 392 l 376 338 z "},"ต":{"ha":872,"x_min":104,"x_max":768,"o":"m 768 657 l 768 0 l 639 0 l 639 617 l 603 660 l 549 660 l 436 575 l 324 660 l 267 660 l 231 617 l 231 128 l 325 210 l 363 239 l 299 303 l 299 410 l 381 492 l 490 492 l 571 410 l 571 297 l 235 0 l 104 0 l 104 657 l 207 775 l 342 775 l 436 699 l 531 775 l 663 775 l 768 657 m 376 329 l 408 299 l 461 299 l 493 329 l 493 385 l 461 415 l 408 415 l 376 385 l 376 329 z "},"ถ":{"ha":833,"x_min":63,"x_max":729,"o":"m 110 86 l 110 411 l 186 503 l 63 621 l 213 775 l 610 775 l 729 656 l 729 0 l 599 0 l 599 607 l 547 660 l 257 660 l 213 617 l 328 504 l 239 389 l 239 329 l 233 279 l 315 279 l 401 196 l 401 86 l 315 0 l 196 0 l 110 86 m 281 81 l 314 113 l 314 167 l 281 199 l 232 199 l 199 167 l 199 113 l 232 81 l 281 81 z "},"ท":{"ha":899,"x_min":35,"x_max":794,"o":"m 203 429 l 211 489 l 122 489 l 35 575 l 35 686 l 121 775 l 242 775 l 329 686 l 329 219 l 331 219 l 532 775 l 675 775 l 794 654 l 794 0 l 664 0 l 664 611 l 618 658 l 594 658 l 344 0 l 203 0 l 203 429 m 208 572 l 240 604 l 240 660 l 208 690 l 154 690 l 124 660 l 124 604 l 154 572 l 208 572 z "},"ธ":{"ha":781,"x_min":76,"x_max":690,"o":"m 113 118 l 113 385 l 242 385 l 242 163 l 289 115 l 507 115 l 554 163 l 554 404 l 76 515 l 76 654 l 197 775 l 690 775 l 690 664 l 256 664 l 207 615 l 207 588 l 683 476 l 683 118 l 567 0 l 229 0 l 113 118 z "},"น":{"ha":868,"x_min":35,"x_max":819,"o":"m 819 196 l 819 81 l 738 0 l 614 0 l 533 78 l 533 136 l 310 0 l 203 0 l 203 429 l 211 489 l 124 489 l 35 578 l 35 686 l 124 775 l 244 775 l 333 686 l 333 135 l 625 303 l 625 775 l 756 775 l 756 258 l 819 196 m 242 660 l 211 690 l 157 690 l 125 660 l 125 604 l 157 572 l 211 572 l 242 604 l 242 660 m 733 165 l 700 199 l 651 199 l 619 165 l 619 115 l 651 82 l 700 82 l 733 115 l 733 165 z "},"บ":{"ha":896,"x_min":35,"x_max":792,"o":"m 203 114 l 203 429 l 211 489 l 124 489 l 35 578 l 35 686 l 124 775 l 244 775 l 333 686 l 333 163 l 381 115 l 615 115 l 661 163 l 661 775 l 792 775 l 792 114 l 679 0 l 317 0 l 203 114 m 211 572 l 242 604 l 242 660 l 211 690 l 157 690 l 125 660 l 125 604 l 157 572 l 211 572 z "},"ป":{"ha":899,"x_min":35,"x_max":794,"o":"m 203 114 l 203 429 l 211 489 l 124 489 l 35 578 l 35 686 l 124 775 l 244 775 l 333 686 l 333 163 l 381 115 l 618 115 l 664 163 l 664 1067 l 794 1067 l 794 114 l 682 0 l 317 0 l 203 114 m 211 572 l 242 604 l 242 660 l 211 690 l 157 690 l 125 660 l 125 604 l 157 572 l 211 572 z "},"ผ":{"ha":857,"x_min":104,"x_max":753,"o":"m 104 686 l 193 775 l 311 775 l 400 686 l 400 578 l 314 492 l 226 492 l 232 426 l 232 171 l 233 171 l 394 382 l 461 382 l 622 171 l 624 171 l 624 775 l 753 775 l 753 0 l 633 0 l 428 269 l 224 0 l 104 0 l 104 686 m 279 574 l 311 604 l 311 660 l 279 692 l 225 692 l 194 660 l 194 604 l 225 574 l 279 574 z "},"ฝ":{"ha":860,"x_min":104,"x_max":756,"o":"m 104 686 l 193 775 l 311 775 l 400 686 l 400 578 l 314 492 l 226 492 l 232 426 l 232 171 l 233 171 l 396 382 l 463 382 l 625 171 l 626 171 l 626 1067 l 756 1067 l 756 0 l 636 0 l 429 269 l 224 0 l 104 0 l 104 686 m 279 574 l 311 604 l 311 660 l 279 692 l 225 692 l 194 660 l 194 604 l 225 574 l 279 574 z "},"พ":{"ha":956,"x_min":35,"x_max":851,"o":"m 203 429 l 211 489 l 124 489 l 35 578 l 35 686 l 124 775 l 244 775 l 331 688 l 331 240 l 335 240 l 496 632 l 560 632 l 721 240 l 724 240 l 724 775 l 851 775 l 851 0 l 724 0 l 528 475 l 332 0 l 204 0 l 203 429 m 210 572 l 242 604 l 242 660 l 210 690 l 157 690 l 125 660 l 125 604 l 157 572 l 210 572 z "},"ฟ":{"ha":958,"x_min":35,"x_max":854,"o":"m 203 429 l 211 489 l 124 489 l 35 578 l 35 686 l 124 775 l 244 775 l 331 688 l 331 240 l 335 240 l 497 632 l 561 632 l 724 240 l 726 240 l 726 1067 l 854 1067 l 854 0 l 726 0 l 529 475 l 332 0 l 204 0 l 203 429 m 210 572 l 242 604 l 242 660 l 210 690 l 157 690 l 125 660 l 125 604 l 157 572 l 210 572 z "},"ภ":{"ha":872,"x_min":35,"x_max":768,"o":"m 35 86 l 35 196 l 121 279 l 199 279 l 192 321 l 192 413 l 246 503 l 100 621 l 250 775 l 649 775 l 768 656 l 768 0 l 638 0 l 638 607 l 585 660 l 294 660 l 251 617 l 385 504 l 321 388 l 321 86 l 235 0 l 122 0 l 35 86 m 203 81 l 235 113 l 235 167 l 203 199 l 153 199 l 121 167 l 121 113 l 153 81 l 203 81 z "},"ม":{"ha":864,"x_min":56,"x_max":760,"o":"m 760 775 l 760 0 l 653 0 l 369 144 l 369 86 l 283 0 l 164 0 l 75 89 l 75 196 l 164 285 l 224 285 l 224 429 l 232 489 l 144 489 l 56 578 l 56 686 l 144 775 l 265 775 l 354 686 l 354 271 l 629 135 l 629 775 l 760 775 m 232 572 l 263 604 l 263 660 l 232 690 l 178 690 l 146 660 l 146 604 l 178 572 l 232 572 m 281 169 l 249 201 l 197 201 l 165 169 l 165 117 l 197 83 l 249 83 l 281 117 l 281 169 z "},"ย":{"ha":825,"x_min":90,"x_max":721,"o":"m 721 775 l 721 117 l 604 0 l 206 0 l 90 117 l 90 254 l 196 346 l 90 431 l 90 667 l 197 775 l 321 775 l 408 686 l 408 582 l 325 497 l 232 497 l 206 518 l 206 461 l 289 397 l 446 397 l 446 297 l 294 297 l 221 229 l 221 161 l 267 115 l 543 115 l 590 163 l 590 775 l 721 775 m 203 607 l 235 575 l 289 575 l 319 607 l 319 663 l 289 694 l 235 694 l 203 663 l 203 607 z "},"ร":{"ha":682,"x_min":56,"x_max":613,"o":"m 253 86 l 253 199 l 339 282 l 426 282 l 421 335 l 421 424 l 56 508 l 56 654 l 175 775 l 613 775 l 613 661 l 231 661 l 186 617 l 186 583 l 551 503 l 551 86 l 464 0 l 340 0 l 253 86 m 428 82 l 460 114 l 460 169 l 428 200 l 376 200 l 343 169 l 343 114 l 376 82 l 428 82 z "},"ฤ":{"ha":836,"x_min":63,"x_max":732,"o":"m 601 607 l 550 660 l 257 660 l 213 617 l 328 504 l 240 389 l 240 329 l 235 279 l 315 279 l 401 196 l 401 86 l 315 0 l 197 0 l 110 86 l 110 411 l 186 503 l 63 621 l 213 775 l 613 775 l 732 656 l 732 -292 l 601 -292 l 601 607 m 281 81 l 314 113 l 314 167 l 281 199 l 232 199 l 199 167 l 199 113 l 232 81 l 281 81 z "},"ล":{"ha":833,"x_min":76,"x_max":729,"o":"m 111 86 l 111 379 l 233 496 l 492 496 l 600 392 l 600 608 l 547 660 l 254 660 l 207 613 l 207 561 l 76 561 l 76 654 l 197 775 l 610 775 l 729 654 l 729 0 l 599 0 l 599 247 l 458 385 l 283 385 l 240 344 l 240 315 l 233 276 l 317 276 l 401 192 l 401 86 l 317 0 l 197 0 l 111 86 m 283 81 l 315 111 l 315 167 l 283 197 l 231 197 l 199 167 l 199 111 l 231 81 l 283 81 z "},"ฦ":{"ha":875,"x_min":35,"x_max":771,"o":"m 640 607 l 588 660 l 294 660 l 251 617 l 385 504 l 321 388 l 321 86 l 235 0 l 122 0 l 35 86 l 35 196 l 121 279 l 199 279 l 192 321 l 192 413 l 246 503 l 100 621 l 250 775 l 651 775 l 771 656 l 771 -292 l 640 -292 l 640 607 m 203 81 l 235 113 l 235 167 l 203 199 l 153 199 l 121 167 l 121 113 l 153 81 l 203 81 z "},"ว":{"ha":731,"x_min":42,"x_max":626,"o":"m 328 89 l 328 200 l 417 286 l 503 286 l 496 344 l 496 607 l 443 660 l 224 660 l 171 607 l 171 524 l 42 524 l 42 654 l 163 775 l 507 775 l 626 654 l 626 89 l 536 0 l 418 0 l 328 89 m 503 85 l 536 115 l 536 171 l 503 203 l 453 203 l 419 171 l 419 115 l 453 85 l 503 85 z "},"ศ":{"ha":869,"x_min":104,"x_max":800,"o":"m 700 697 l 765 629 l 765 0 l 636 0 l 636 606 l 583 660 l 285 660 l 232 606 l 232 338 l 382 483 l 490 483 l 574 399 l 574 299 l 490 214 l 385 214 l 315 285 l 279 247 l 233 203 l 233 0 l 104 0 l 104 642 l 236 775 l 606 775 l 714 883 l 800 797 l 700 697 m 378 321 l 408 290 l 463 290 l 493 321 l 493 376 l 463 407 l 408 407 l 378 376 l 378 321 z "},"ษ":{"ha":926,"x_min":35,"x_max":822,"o":"m 822 775 l 822 114 l 708 0 l 317 0 l 203 114 l 203 429 l 211 489 l 124 489 l 35 578 l 35 686 l 124 775 l 243 775 l 332 686 l 332 163 l 378 115 l 647 115 l 694 163 l 694 278 l 472 278 l 397 353 l 397 451 l 474 528 l 571 528 l 646 451 l 646 390 l 632 372 l 692 381 l 694 381 l 694 775 l 822 775 m 242 660 l 211 690 l 157 690 l 125 660 l 125 604 l 157 572 l 211 572 l 242 604 l 242 660 m 572 426 l 544 454 l 501 454 l 472 426 l 472 379 l 499 351 l 543 351 l 572 379 l 572 426 z "},"ส":{"ha":833,"x_min":76,"x_max":781,"o":"m 681 697 l 731 644 l 731 0 l 600 0 l 600 247 l 460 385 l 283 385 l 240 344 l 240 315 l 233 276 l 317 276 l 401 192 l 401 86 l 317 0 l 197 0 l 111 86 l 111 379 l 233 496 l 493 496 l 600 392 l 600 608 l 549 660 l 254 660 l 207 613 l 207 561 l 76 561 l 76 654 l 197 775 l 586 775 l 694 883 l 781 797 l 681 697 m 231 197 l 199 167 l 199 111 l 231 81 l 283 81 l 315 111 l 315 167 l 283 197 l 231 197 z "},"ห":{"ha":900,"x_min":35,"x_max":796,"o":"m 796 576 l 731 513 l 796 454 l 796 0 l 665 0 l 665 411 l 632 442 l 318 0 l 203 0 l 203 429 l 211 489 l 124 489 l 35 578 l 35 686 l 124 775 l 244 775 l 333 686 l 333 182 l 563 513 l 497 576 l 497 686 l 586 775 l 707 775 l 796 686 l 796 576 m 589 604 l 619 574 l 674 574 l 706 604 l 706 660 l 674 692 l 619 692 l 589 660 l 589 604 m 242 660 l 211 690 l 157 690 l 125 660 l 125 604 l 157 572 l 211 572 l 242 604 l 242 660 z "},"ฬ":{"ha":974,"x_min":35,"x_max":967,"o":"m 203 429 l 211 489 l 124 489 l 35 578 l 35 686 l 124 775 l 244 775 l 331 688 l 331 208 l 335 208 l 497 535 l 557 535 l 721 210 l 724 210 l 724 572 l 731 631 l 644 631 l 563 713 l 563 821 l 644 903 l 763 903 l 842 822 l 842 790 l 911 861 l 967 794 l 851 678 l 851 0 l 724 0 l 528 389 l 333 0 l 203 0 l 203 429 m 726 710 l 758 742 l 758 792 l 726 824 l 679 824 l 646 792 l 646 742 l 679 710 l 726 710 m 211 572 l 242 604 l 242 660 l 211 690 l 157 690 l 125 660 l 125 604 l 157 572 l 211 572 z "},"อ":{"ha":813,"x_min":69,"x_max":715,"o":"m 104 118 l 104 418 l 190 504 l 308 504 l 394 418 l 394 311 l 311 228 l 228 228 l 233 189 l 233 160 l 278 114 l 536 114 l 585 164 l 585 608 l 533 660 l 251 660 l 200 608 l 200 561 l 69 561 l 69 654 l 190 775 l 594 775 l 715 654 l 715 118 l 599 0 l 221 0 l 104 118 m 276 306 l 307 336 l 307 392 l 276 424 l 224 424 l 192 392 l 192 336 l 224 306 l 276 306 z "},"ฮ":{"ha":813,"x_min":69,"x_max":738,"o":"m 104 118 l 104 385 l 190 471 l 308 471 l 394 385 l 394 281 l 314 200 l 229 200 l 233 179 l 233 160 l 278 114 l 536 114 l 586 164 l 586 613 l 561 638 l 439 515 l 146 515 l 69 592 l 69 696 l 149 775 l 568 775 l 658 863 l 738 786 l 660 710 l 715 653 l 715 118 l 599 0 l 221 0 l 104 118 m 393 603 l 479 688 l 211 688 l 183 661 l 183 628 l 210 603 l 393 603 m 276 274 l 307 306 l 307 361 l 276 392 l 224 392 l 192 361 l 192 306 l 224 274 l 276 274 z "},"ะ":{"ha":693,"x_min":63,"x_max":651,"o":"m 63 525 l 63 642 l 151 731 l 263 731 l 349 642 l 349 560 l 347 546 l 383 551 l 424 551 l 569 697 l 651 606 l 485 438 l 151 438 l 63 525 m 233 525 l 264 556 l 264 611 l 233 642 l 179 642 l 149 611 l 149 556 l 179 525 l 233 525 m 63 118 l 63 233 l 151 324 l 263 324 l 349 233 l 349 153 l 347 139 l 383 143 l 424 143 l 569 290 l 651 197 l 485 31 l 151 31 l 63 118 m 233 118 l 264 149 l 264 204 l 233 235 l 179 235 l 149 204 l 149 149 l 179 118 l 233 118 z "},"า":{"ha":732,"x_min":42,"x_max":628,"o":"m 497 607 l 444 660 l 224 660 l 171 607 l 171 524 l 42 524 l 42 654 l 163 775 l 508 775 l 628 654 l 628 0 l 497 0 l 497 607 z "},"ำ":{"ha":732,"x_min":-335,"x_max":628,"o":"m -335 976 l -335 1096 l -244 1188 l -112 1188 l -22 1096 l -22 976 l -112 885 l -244 885 l -335 976 m -151 975 l -117 1011 l -117 1061 l -151 1097 l -204 1097 l -239 1061 l -239 1011 l -204 975 l -151 975 m 497 607 l 444 660 l 224 660 l 171 607 l 171 524 l 42 524 l 42 654 l 163 775 l 508 775 l 628 654 l 628 0 l 497 0 l 497 607 z "},"เ":{"ha":439,"x_min":104,"x_max":404,"o":"m 104 89 l 104 775 l 235 775 l 235 346 l 226 286 l 317 286 l 404 197 l 404 89 l 315 0 l 193 0 l 104 89 m 282 85 l 314 115 l 314 171 l 282 203 l 228 203 l 197 171 l 197 115 l 228 85 l 282 85 z "},"แ":{"ha":828,"x_min":104,"x_max":793,"o":"m 104 89 l 104 775 l 235 775 l 235 346 l 226 286 l 315 286 l 403 197 l 403 89 l 315 0 l 193 0 l 104 89 m 493 89 l 493 775 l 624 775 l 624 346 l 615 286 l 706 286 l 793 197 l 793 89 l 704 0 l 582 0 l 493 89 m 282 85 l 314 115 l 314 171 l 282 203 l 228 203 l 197 171 l 197 115 l 228 85 l 282 85 m 671 85 l 701 115 l 701 171 l 671 203 l 617 203 l 585 171 l 585 115 l 617 85 l 671 85 z "},"โ":{"ha":515,"x_min":-53,"x_max":493,"o":"m 179 89 l 179 928 l -53 1046 l -53 1174 l 68 1294 l 493 1294 l 493 1185 l 119 1185 l 75 1140 l 75 1103 l 310 985 l 310 346 l 301 286 l 392 286 l 479 197 l 479 89 l 392 0 l 269 0 l 179 89 m 357 85 l 389 115 l 389 171 l 357 203 l 304 203 l 272 171 l 272 115 l 304 85 l 357 85 z "},"ใ":{"ha":510,"x_min":-53,"x_max":475,"o":"m 175 89 l 175 824 l 326 1017 l 326 1171 l 274 1224 l 122 1224 l 72 1176 l 150 1176 l 224 1103 l 224 1000 l 142 918 l 29 918 l -53 1000 l -53 1172 l 90 1322 l 331 1322 l 449 1203 l 449 997 l 306 814 l 306 346 l 297 286 l 388 286 l 475 197 l 475 89 l 386 0 l 264 0 l 175 89 m 111 994 l 143 1026 l 143 1079 l 111 1110 l 61 1110 l 29 1079 l 29 1026 l 61 994 l 111 994 m 353 85 l 385 115 l 385 171 l 353 203 l 299 203 l 268 171 l 268 115 l 299 85 l 353 85 z "},"ไ":{"ha":489,"x_min":-60,"x_max":454,"o":"m 154 89 l 154 917 l 326 1115 l 326 1182 l 310 1199 l 257 1199 l 140 1086 l 19 1199 l -60 1199 l -60 1308 l 47 1308 l 140 1217 l 229 1308 l 379 1308 l 450 1238 l 451 1092 l 285 894 l 285 346 l 276 286 l 367 286 l 454 197 l 454 89 l 367 0 l 244 0 l 154 89 m 332 85 l 364 115 l 364 171 l 332 203 l 279 203 l 247 171 l 247 115 l 279 85 l 332 85 z "},"ๅ":{"ha":732,"x_min":42,"x_max":628,"o":"m 497 607 l 444 660 l 224 660 l 171 607 l 171 524 l 42 524 l 42 654 l 163 775 l 508 775 l 628 654 l 628 -292 l 497 -292 l 497 607 z "},"ℊ":{"ha":815,"x_min":83,"x_max":835,"o":"m 129 -297 l 129 -167 l 243 -53 l 589 -53 l 589 125 l 471 18 l 217 18 l 83 151 l 83 558 l 217 692 l 482 692 l 596 579 l 596 692 l 718 692 l 718 -51 l 835 -51 l 835 -156 l 718 -156 l 718 -292 l 588 -422 l 254 -422 l 129 -297 m 456 129 l 589 256 l 589 453 l 460 579 l 276 579 l 213 515 l 213 192 l 276 129 l 456 129 m 531 -319 l 590 -261 l 590 -156 l 294 -156 l 254 -196 l 254 -268 l 306 -319 l 531 -319 z "},"₀":{"ha":611,"x_min":69,"x_max":542,"o":"m 69 -108 l 69 275 l 169 375 l 442 375 l 542 275 l 542 -108 l 442 -208 l 169 -208 l 69 -108 m 383 -101 l 417 -68 l 417 235 l 383 268 l 228 268 l 194 235 l 194 -67 l 228 -101 l 383 -101 z "},"₁":{"ha":379,"x_min":42,"x_max":296,"o":"m 171 239 l 42 172 l 42 290 l 196 375 l 296 375 l 296 -208 l 171 -208 l 171 239 z "},"₂":{"ha":531,"x_min":49,"x_max":489,"o":"m 51 -83 l 360 185 l 360 242 l 335 268 l 199 268 l 172 242 l 172 182 l 49 182 l 49 279 l 144 375 l 390 375 l 485 279 l 485 146 l 197 -96 l 197 -106 l 489 -106 l 489 -208 l 51 -208 l 51 -83 z "},"₃":{"ha":576,"x_min":56,"x_max":507,"o":"m 56 -112 l 56 -26 l 181 -26 l 181 -76 l 206 -103 l 356 -103 l 382 -76 l 382 11 l 357 35 l 188 35 l 188 135 l 357 135 l 382 160 l 382 243 l 356 269 l 211 269 l 185 243 l 185 193 l 61 193 l 61 279 l 156 375 l 411 375 l 507 279 l 507 128 l 464 85 l 507 42 l 507 -112 l 413 -208 l 151 -208 l 56 -112 z "},"₄":{"ha":556,"x_min":35,"x_max":521,"o":"m 325 -104 l 35 -104 l 35 18 l 300 375 l 450 375 l 450 3 l 521 3 l 521 -104 l 450 -104 l 450 -208 l 325 -208 l 325 -104 m 335 -1 l 335 243 l 332 243 l 161 13 l 161 -1 l 335 -1 z "},"₅":{"ha":561,"x_min":63,"x_max":513,"o":"m 63 -112 l 63 -22 l 186 -22 l 186 -76 l 213 -101 l 361 -101 l 388 -76 l 388 40 l 361 65 l 71 65 l 71 375 l 501 375 l 501 269 l 194 269 l 194 171 l 415 171 l 513 75 l 513 -112 l 417 -208 l 158 -208 l 63 -112 z "},"₆":{"ha":581,"x_min":69,"x_max":525,"o":"m 69 -112 l 69 279 l 165 375 l 425 375 l 521 279 l 521 200 l 400 200 l 400 243 l 372 269 l 219 269 l 193 243 l 193 113 l 240 154 l 429 154 l 525 60 l 525 -112 l 429 -208 l 165 -208 l 69 -112 m 374 -103 l 401 -76 l 401 26 l 374 53 l 249 53 l 193 0 l 193 -76 l 221 -103 l 374 -103 z "},"₇":{"ha":507,"x_min":35,"x_max":465,"o":"m 328 257 l 328 267 l 35 267 l 35 375 l 465 375 l 465 260 l 228 -208 l 94 -208 l 328 257 z "},"₈":{"ha":593,"x_min":63,"x_max":531,"o":"m 63 -114 l 63 36 l 119 92 l 71 140 l 71 281 l 165 375 l 428 375 l 522 281 l 522 140 l 475 92 l 531 36 l 531 -114 l 436 -208 l 157 -208 l 63 -114 m 372 138 l 399 164 l 399 244 l 372 271 l 222 271 l 196 244 l 196 164 l 222 138 l 372 138 m 381 -104 l 407 -78 l 407 11 l 381 38 l 214 38 l 188 11 l 188 -78 l 214 -104 l 381 -104 z "},"₉":{"ha":581,"x_min":56,"x_max":511,"o":"m 64 -112 l 64 -40 l 186 -40 l 186 -76 l 213 -103 l 361 -103 l 388 -76 l 388 47 l 346 8 l 150 8 l 56 103 l 56 279 l 151 375 l 415 375 l 511 279 l 511 -112 l 415 -208 l 160 -208 l 64 -112 m 340 110 l 388 156 l 388 243 l 360 269 l 207 269 l 179 243 l 179 136 l 207 110 l 340 110 z "},"⁰":{"ha":611,"x_min":69,"x_max":542,"o":"m 69 489 l 69 872 l 169 972 l 442 972 l 542 872 l 542 489 l 442 389 l 169 389 l 69 489 m 383 496 l 417 529 l 417 832 l 383 865 l 228 865 l 194 832 l 194 531 l 228 496 l 383 496 z "},"¹":{"ha":379,"x_min":42,"x_max":296,"o":"m 171 836 l 42 769 l 42 888 l 196 972 l 296 972 l 296 389 l 171 389 l 171 836 z "},"²":{"ha":531,"x_min":49,"x_max":489,"o":"m 51 514 l 360 782 l 360 839 l 335 865 l 199 865 l 172 839 l 172 779 l 49 779 l 49 876 l 144 972 l 390 972 l 485 876 l 485 743 l 197 501 l 197 492 l 489 492 l 489 389 l 51 389 l 51 514 z "},"³":{"ha":576,"x_min":56,"x_max":507,"o":"m 56 485 l 56 571 l 181 571 l 181 521 l 206 494 l 356 494 l 382 521 l 382 608 l 357 632 l 188 632 l 188 732 l 357 732 l 382 757 l 382 840 l 356 867 l 211 867 l 185 840 l 185 790 l 61 790 l 61 876 l 156 972 l 411 972 l 507 876 l 507 725 l 464 682 l 507 639 l 507 485 l 413 389 l 151 389 l 56 485 z "},"⁴":{"ha":556,"x_min":35,"x_max":521,"o":"m 325 493 l 35 493 l 35 615 l 300 972 l 450 972 l 450 600 l 521 600 l 521 493 l 450 493 l 450 389 l 325 389 l 325 493 m 335 596 l 335 840 l 332 840 l 161 610 l 161 596 l 335 596 z "},"⁵":{"ha":561,"x_min":63,"x_max":513,"o":"m 63 485 l 63 575 l 186 575 l 186 521 l 213 496 l 361 496 l 388 521 l 388 638 l 361 663 l 71 663 l 71 972 l 501 972 l 501 867 l 194 867 l 194 768 l 415 768 l 513 672 l 513 485 l 417 389 l 158 389 l 63 485 z "},"⁶":{"ha":581,"x_min":69,"x_max":525,"o":"m 69 485 l 69 876 l 165 972 l 425 972 l 521 876 l 521 797 l 400 797 l 400 840 l 372 867 l 219 867 l 193 840 l 193 710 l 240 751 l 429 751 l 525 657 l 525 485 l 429 389 l 165 389 l 69 485 m 374 494 l 401 521 l 401 624 l 374 650 l 249 650 l 193 597 l 193 521 l 221 494 l 374 494 z "},"⁷":{"ha":507,"x_min":35,"x_max":465,"o":"m 328 854 l 328 864 l 35 864 l 35 972 l 465 972 l 465 857 l 228 389 l 94 389 l 328 854 z "},"⁸":{"ha":593,"x_min":63,"x_max":531,"o":"m 63 483 l 63 633 l 119 689 l 71 738 l 71 878 l 165 972 l 428 972 l 522 878 l 522 738 l 475 689 l 531 633 l 531 483 l 436 389 l 157 389 l 63 483 m 372 735 l 399 761 l 399 842 l 372 868 l 222 868 l 196 842 l 196 761 l 222 735 l 372 735 m 381 493 l 407 519 l 407 608 l 381 635 l 214 635 l 188 608 l 188 519 l 214 493 l 381 493 z "},"⁹":{"ha":581,"x_min":56,"x_max":511,"o":"m 64 485 l 64 557 l 186 557 l 186 521 l 213 494 l 361 494 l 388 521 l 388 644 l 346 606 l 150 606 l 56 700 l 56 876 l 151 972 l 415 972 l 511 876 l 511 485 l 415 389 l 160 389 l 64 485 m 340 707 l 388 753 l 388 840 l 360 867 l 207 867 l 179 840 l 179 733 l 207 707 l 340 707 z "},"⁄":{"ha":789,"x_min":49,"x_max":740,"o":"m 740 972 l 183 0 l 49 0 l 606 972 l 740 972 z "},"½":{"ha":1211,"x_min":69,"x_max":1142,"o":"m 888 972 l 331 0 l 196 0 l 753 972 l 888 972 m 199 836 l 69 769 l 69 888 l 224 972 l 324 972 l 324 389 l 199 389 l 199 836 m 704 125 l 1013 393 l 1013 450 l 988 476 l 851 476 l 825 450 l 825 390 l 701 390 l 701 488 l 797 583 l 1043 583 l 1138 488 l 1138 354 l 850 113 l 850 103 l 1142 103 l 1142 0 l 704 0 l 704 125 z "},"⅓":{"ha":1218,"x_min":69,"x_max":1149,"o":"m 697 96 l 697 182 l 822 182 l 822 132 l 847 106 l 997 106 l 1024 132 l 1024 219 l 999 243 l 829 243 l 829 343 l 999 343 l 1024 368 l 1024 451 l 997 478 l 853 478 l 826 451 l 826 401 l 703 401 l 703 488 l 797 583 l 1053 583 l 1149 488 l 1149 336 l 1106 293 l 1149 250 l 1149 96 l 1054 0 l 793 0 l 697 96 m 888 972 l 331 0 l 196 0 l 753 972 l 888 972 m 199 836 l 69 769 l 69 888 l 224 972 l 324 972 l 324 389 l 199 389 l 199 836 z "},"⅔":{"ha":1378,"x_min":69,"x_max":1308,"o":"m 72 514 l 381 782 l 381 839 l 356 865 l 219 865 l 193 839 l 193 779 l 69 779 l 69 876 l 165 972 l 411 972 l 506 876 l 506 743 l 218 501 l 218 492 l 510 492 l 510 389 l 72 389 l 72 514 m 857 96 l 857 182 l 982 182 l 982 132 l 1007 106 l 1157 106 l 1183 132 l 1183 219 l 1158 243 l 989 243 l 989 343 l 1158 343 l 1183 368 l 1183 451 l 1157 478 l 1013 478 l 986 451 l 986 401 l 863 401 l 863 488 l 957 583 l 1213 583 l 1308 488 l 1308 336 l 1265 293 l 1308 250 l 1308 96 l 1214 0 l 953 0 l 857 96 m 1050 972 l 493 0 l 358 0 l 915 972 l 1050 972 z "},"¼":{"ha":1154,"x_min":69,"x_max":1085,"o":"m 889 104 l 599 104 l 599 226 l 864 583 l 1014 583 l 1014 211 l 1085 211 l 1085 104 l 1014 104 l 1014 0 l 889 0 l 889 104 m 899 207 l 899 451 l 896 451 l 725 221 l 725 207 l 899 207 m 899 972 l 342 0 l 207 0 l 764 972 l 899 972 m 199 836 l 69 769 l 69 888 l 224 972 l 324 972 l 324 389 l 199 389 l 199 836 z "},"¾":{"ha":1296,"x_min":69,"x_max":1226,"o":"m 69 485 l 69 571 l 194 571 l 194 521 l 219 494 l 369 494 l 396 521 l 396 608 l 371 632 l 201 632 l 201 732 l 371 732 l 396 757 l 396 840 l 369 867 l 225 867 l 199 840 l 199 790 l 75 790 l 75 876 l 169 972 l 425 972 l 521 876 l 521 725 l 478 682 l 521 639 l 521 485 l 426 389 l 165 389 l 69 485 m 1031 104 l 740 104 l 740 226 l 1006 583 l 1156 583 l 1156 211 l 1226 211 l 1226 104 l 1156 104 l 1156 0 l 1031 0 l 1031 104 m 1040 207 l 1040 451 l 1038 451 l 867 221 l 867 207 l 1040 207 m 1043 972 l 486 0 l 351 0 l 908 972 l 1043 972 z "},"⅛":{"ha":1239,"x_min":69,"x_max":1169,"o":"m 701 96 l 701 246 l 758 301 l 710 350 l 710 490 l 804 585 l 1067 585 l 1161 490 l 1161 350 l 1114 301 l 1169 246 l 1169 96 l 1075 1 l 796 1 l 701 96 m 1011 347 l 1038 374 l 1038 454 l 1011 481 l 861 481 l 835 454 l 835 374 l 861 347 l 1011 347 m 1019 106 l 1046 132 l 1046 221 l 1019 247 l 853 247 l 826 221 l 826 132 l 853 106 l 1019 106 m 888 972 l 331 0 l 196 0 l 753 972 l 888 972 m 199 836 l 69 769 l 69 888 l 224 972 l 324 972 l 324 389 l 199 389 l 199 836 z "},"⅜":{"ha":1383,"x_min":69,"x_max":1314,"o":"m 69 485 l 69 571 l 194 571 l 194 521 l 219 494 l 369 494 l 396 521 l 396 608 l 371 632 l 201 632 l 201 732 l 371 732 l 396 757 l 396 840 l 369 867 l 225 867 l 199 840 l 199 790 l 75 790 l 75 876 l 169 972 l 425 972 l 521 876 l 521 725 l 478 682 l 521 639 l 521 485 l 426 389 l 165 389 l 69 485 m 846 96 l 846 246 l 903 301 l 854 350 l 854 490 l 949 585 l 1211 585 l 1306 490 l 1306 350 l 1258 301 l 1314 246 l 1314 96 l 1219 1 l 940 1 l 846 96 m 1156 347 l 1182 374 l 1182 454 l 1156 481 l 1006 481 l 979 454 l 979 374 l 1006 347 l 1156 347 m 1164 106 l 1190 132 l 1190 221 l 1164 247 l 997 247 l 971 221 l 971 132 l 997 106 l 1164 106 m 1043 972 l 486 0 l 351 0 l 908 972 l 1043 972 z "},"⅝":{"ha":1375,"x_min":69,"x_max":1306,"o":"m 69 485 l 69 575 l 193 575 l 193 521 l 219 496 l 368 496 l 394 521 l 394 638 l 368 663 l 78 663 l 78 972 l 508 972 l 508 867 l 201 867 l 201 768 l 422 768 l 519 672 l 519 485 l 424 389 l 165 389 l 69 485 m 838 96 l 838 246 l 894 301 l 846 350 l 846 490 l 940 585 l 1203 585 l 1297 490 l 1297 350 l 1250 301 l 1306 246 l 1306 96 l 1211 1 l 932 1 l 838 96 m 1147 347 l 1174 374 l 1174 454 l 1147 481 l 997 481 l 971 454 l 971 374 l 997 347 l 1147 347 m 1156 106 l 1182 132 l 1182 221 l 1156 247 l 989 247 l 963 221 l 963 132 l 989 106 l 1156 106 m 1036 972 l 479 0 l 344 0 l 901 972 l 1036 972 z "},"⅞":{"ha":1257,"x_min":69,"x_max":1188,"o":"m 363 854 l 363 864 l 69 864 l 69 972 l 500 972 l 500 857 l 263 389 l 129 389 l 363 854 m 719 96 l 719 246 l 776 301 l 728 350 l 728 490 l 822 585 l 1085 585 l 1179 490 l 1179 350 l 1132 301 l 1188 246 l 1188 96 l 1093 1 l 814 1 l 719 96 m 1029 347 l 1056 374 l 1056 454 l 1029 481 l 879 481 l 853 454 l 853 374 l 879 347 l 1029 347 m 1038 106 l 1064 132 l 1064 221 l 1038 247 l 871 247 l 844 221 l 844 132 l 871 106 l 1038 106 m 900 972 l 343 0 l 208 0 l 765 972 l 900 972 z "},"๐":{"ha":892,"x_min":83,"x_max":808,"o":"m 83 133 l 83 526 l 217 660 l 675 660 l 808 526 l 808 133 l 675 0 l 217 0 l 83 133 m 617 113 l 679 175 l 679 482 l 614 547 l 278 547 l 213 482 l 213 175 l 275 113 l 617 113 z "},"๑":{"ha":889,"x_min":83,"x_max":806,"o":"m 574 -18 l 676 86 l 676 481 l 611 547 l 274 547 l 208 481 l 208 156 l 263 101 l 322 101 l 285 143 l 285 221 l 372 307 l 482 307 l 572 215 l 572 110 l 464 0 l 199 0 l 83 117 l 83 524 l 218 660 l 671 660 l 806 524 l 806 46 l 660 -101 l 574 -18 m 453 101 l 486 138 l 486 190 l 453 225 l 404 225 l 369 190 l 369 144 l 408 101 l 453 101 z "},"๒":{"ha":1032,"x_min":90,"x_max":949,"o":"m 90 131 l 90 931 l 219 931 l 219 175 l 282 113 l 758 113 l 819 175 l 819 501 l 772 550 l 746 550 l 644 439 l 532 550 l 469 550 l 417 497 l 417 463 l 504 463 l 585 383 l 585 283 l 506 204 l 389 204 l 307 286 l 307 526 l 432 660 l 560 660 l 644 569 l 722 660 l 831 660 l 949 538 l 949 131 l 818 0 l 221 0 l 90 131 m 475 275 l 506 306 l 506 360 l 475 392 l 422 392 l 392 360 l 392 306 l 422 275 l 475 275 z "},"๓":{"ha":1028,"x_min":90,"x_max":938,"o":"m 90 88 l 90 525 l 225 660 l 453 660 l 528 582 l 606 660 l 806 660 l 938 528 l 938 0 l 808 0 l 808 488 l 749 547 l 649 547 l 590 490 l 590 0 l 465 0 l 465 490 l 408 547 l 279 547 l 218 486 l 218 278 l 294 278 l 381 190 l 381 88 l 294 0 l 178 0 l 90 88 m 263 81 l 294 113 l 294 167 l 263 199 l 210 199 l 179 167 l 179 113 l 210 81 l 263 81 z "},"๔":{"ha":924,"x_min":83,"x_max":924,"o":"m 83 135 l 83 525 l 218 660 l 706 660 l 839 792 l 924 707 l 765 547 l 278 547 l 213 482 l 213 174 l 275 111 l 478 111 l 383 242 l 383 368 l 468 453 l 590 453 l 675 368 l 675 265 l 594 185 l 550 185 l 603 111 l 853 111 l 853 0 l 218 0 l 83 135 m 557 257 l 589 288 l 589 343 l 557 374 l 504 374 l 474 343 l 474 288 l 504 257 l 557 257 z "},"๕":{"ha":924,"x_min":83,"x_max":924,"o":"m 603 111 l 853 111 l 853 0 l 218 0 l 83 135 l 83 525 l 218 660 l 340 660 l 336 664 l 336 754 l 424 842 l 532 842 l 619 754 l 619 664 l 615 660 l 706 660 l 839 792 l 924 707 l 765 547 l 278 547 l 213 482 l 213 174 l 275 111 l 478 111 l 383 242 l 383 368 l 468 453 l 590 453 l 675 368 l 675 265 l 594 185 l 550 185 l 603 111 m 424 682 l 456 651 l 501 651 l 533 682 l 533 731 l 501 763 l 456 763 l 424 731 l 424 682 m 504 257 l 557 257 l 589 288 l 589 343 l 557 374 l 504 374 l 474 343 l 474 288 l 504 257 z "},"๖":{"ha":875,"x_min":0,"x_max":792,"o":"m 106 107 l 106 213 l 201 308 l 310 308 l 403 215 l 403 146 l 369 110 l 596 110 l 663 175 l 663 486 l 601 547 l 158 547 l 0 707 l 85 792 l 218 660 l 661 660 l 792 529 l 792 133 l 658 0 l 214 0 l 106 107 m 274 100 l 314 143 l 314 188 l 278 221 l 229 221 l 196 188 l 196 136 l 229 100 l 274 100 z "},"๗":{"ha":1213,"x_min":90,"x_max":1122,"o":"m 90 86 l 90 525 l 225 660 l 433 660 l 510 582 l 586 660 l 765 660 l 896 529 l 896 110 l 958 110 l 996 147 l 996 931 l 1122 931 l 1122 107 l 1015 0 l 768 0 l 768 489 l 710 547 l 628 547 l 571 490 l 571 0 l 449 0 l 449 490 l 390 547 l 279 547 l 218 486 l 218 276 l 293 276 l 379 189 l 379 86 l 293 0 l 176 0 l 90 86 m 263 79 l 293 111 l 293 165 l 263 197 l 210 197 l 178 165 l 178 111 l 210 79 l 263 79 z "},"๘":{"ha":942,"x_min":83,"x_max":890,"o":"m 83 121 l 83 525 l 218 660 l 672 660 l 806 792 l 890 707 l 733 547 l 278 547 l 213 482 l 213 161 l 261 113 l 306 113 l 438 258 l 581 110 l 703 110 l 747 154 l 747 178 l 664 178 l 585 257 l 585 358 l 667 442 l 785 442 l 869 357 l 869 131 l 739 0 l 544 0 l 438 113 l 336 0 l 204 0 l 83 121 m 753 249 l 785 281 l 785 335 l 753 365 l 701 365 l 669 335 l 669 281 l 701 249 l 753 249 z "},"๙":{"ha":911,"x_min":83,"x_max":918,"o":"m 586 488 l 865 57 l 775 -12 l 411 547 l 268 547 l 207 486 l 207 161 l 268 100 l 319 100 l 285 138 l 285 210 l 369 294 l 475 294 l 563 207 l 563 100 l 461 0 l 203 0 l 83 122 l 83 525 l 218 660 l 475 660 l 526 581 l 606 660 l 713 660 l 843 792 l 918 711 l 763 553 l 651 553 l 586 488 m 365 138 l 407 94 l 449 94 l 483 129 l 483 183 l 449 217 l 400 217 l 365 182 l 365 138 z "},".":{"ha":301,"x_min":67,"x_max":235,"o":"m 67 47 l 67 117 l 114 164 l 188 164 l 235 117 l 235 47 l 188 0 l 114 0 l 67 47 z "},",":{"ha":301,"x_min":65,"x_max":235,"o":"m 133 0 l 113 0 l 65 47 l 65 117 l 113 164 l 188 164 l 235 117 l 235 0 l 161 -176 l 88 -176 l 133 0 z "},":":{"ha":299,"x_min":67,"x_max":232,"o":"m 67 522 l 67 592 l 113 638 l 186 638 l 232 590 l 232 522 l 186 476 l 113 476 l 67 522 m 67 46 l 67 115 l 113 161 l 186 161 l 232 115 l 232 46 l 186 0 l 113 0 l 67 46 z "},";":{"ha":299,"x_min":67,"x_max":235,"o":"m 68 522 l 68 592 l 114 638 l 188 638 l 232 590 l 232 522 l 188 476 l 114 476 l 68 522 m 135 0 l 114 0 l 67 47 l 67 117 l 114 164 l 189 164 l 235 117 l 235 0 l 163 -176 l 89 -176 l 135 0 z "},"…":{"ha":903,"x_min":67,"x_max":836,"o":"m 67 47 l 67 117 l 114 164 l 188 164 l 235 117 l 235 47 l 188 0 l 114 0 l 67 47 m 368 47 l 368 117 l 415 164 l 489 164 l 536 117 l 536 47 l 489 0 l 415 0 l 368 47 m 668 47 l 668 117 l 715 164 l 789 164 l 836 117 l 836 47 l 789 0 l 715 0 l 668 47 z "},"!":{"ha":353,"x_min":97,"x_max":256,"o":"m 110 786 l 110 972 l 243 972 l 243 786 l 222 243 l 131 243 l 110 786 m 97 44 l 97 110 l 142 154 l 211 154 l 256 110 l 256 44 l 211 0 l 142 0 l 97 44 z "},"¡":{"ha":353,"x_min":97,"x_max":256,"o":"m 211 692 l 256 647 l 256 582 l 211 538 l 142 538 l 97 582 l 97 647 l 142 692 l 211 692 m 222 449 l 243 -94 l 243 -281 l 110 -281 l 110 -94 l 131 449 l 222 449 z "},"?":{"ha":753,"x_min":49,"x_max":683,"o":"m 303 436 l 553 678 l 553 772 l 467 857 l 260 857 l 179 778 l 179 713 l 49 713 l 49 818 l 203 972 l 524 972 l 683 813 l 683 640 l 431 396 l 431 238 l 303 238 l 303 436 m 288 44 l 288 110 l 332 154 l 401 154 l 446 110 l 446 44 l 401 0 l 332 0 l 288 44 z "},"¿":{"ha":753,"x_min":69,"x_max":704,"o":"m 465 647 l 465 582 l 421 538 l 351 538 l 307 582 l 307 647 l 351 692 l 421 692 l 465 647 m 450 256 l 200 14 l 200 -81 l 286 -165 l 493 -165 l 574 -86 l 574 -21 l 704 -21 l 704 -126 l 550 -281 l 229 -281 l 69 -121 l 69 51 l 322 296 l 322 454 l 450 454 l 450 256 z "},"·":{"ha":301,"x_min":67,"x_max":235,"o":"m 67 331 l 67 400 l 114 447 l 188 447 l 235 400 l 235 331 l 188 283 l 114 283 l 67 331 z "},"•":{"ha":450,"x_min":69,"x_max":381,"o":"m 69 336 l 69 471 l 154 558 l 296 558 l 381 471 l 381 336 l 296 249 l 154 249 l 69 336 z "},"*":{"ha":476,"x_min":69,"x_max":407,"o":"m 206 753 l 114 679 l 69 758 l 181 804 l 69 851 l 114 929 l 206 857 l 192 974 l 285 974 l 269 857 l 363 929 l 407 851 l 294 804 l 407 758 l 363 679 l 269 753 l 285 636 l 192 636 l 206 753 z "},"#":{"ha":968,"x_min":69,"x_max":899,"o":"m 731 601 l 692 376 l 871 376 l 871 265 l 674 265 l 628 0 l 500 0 l 546 265 l 342 265 l 296 0 l 168 0 l 214 265 l 69 265 l 69 376 l 233 376 l 272 601 l 97 601 l 97 713 l 292 713 l 336 972 l 463 972 l 418 713 l 624 713 l 668 972 l 794 972 l 750 713 l 899 713 l 899 601 l 731 601 m 604 601 l 399 601 l 360 376 l 565 376 l 604 601 z "},"/":{"ha":672,"x_min":0,"x_max":672,"o":"m 538 974 l 672 974 l 135 0 l 0 0 l 538 974 z "},"\\":{"ha":693,"x_min":0,"x_max":693,"o":"m 0 972 l 136 972 l 693 0 l 558 0 l 0 972 z "},"₍":{"ha":321,"x_min":69,"x_max":299,"o":"m 69 -197 l 69 385 l 163 478 l 299 478 l 299 374 l 224 374 l 190 340 l 190 -153 l 224 -186 l 299 -186 l 299 -290 l 163 -290 l 69 -197 z "},"₎":{"ha":321,"x_min":24,"x_max":251,"o":"m 24 -290 l 24 -186 l 97 -186 l 132 -153 l 132 340 l 97 374 l 24 374 l 24 478 l 158 478 l 251 385 l 251 -197 l 158 -290 l 24 -290 z "},"(":{"ha":447,"x_min":104,"x_max":417,"o":"m 104 -18 l 104 989 l 249 1133 l 417 1133 l 417 1019 l 308 1019 l 233 946 l 233 25 l 308 -49 l 417 -49 l 417 -162 l 249 -162 l 104 -18 z "},")":{"ha":447,"x_min":31,"x_max":343,"o":"m 31 -162 l 31 -49 l 139 -49 l 214 25 l 214 946 l 139 1019 l 31 1019 l 31 1133 l 199 1133 l 343 989 l 343 -18 l 199 -162 l 31 -162 z "},"{":{"ha":493,"x_min":56,"x_max":463,"o":"m 164 -28 l 164 339 l 56 450 l 56 522 l 164 633 l 164 999 l 299 1133 l 463 1133 l 463 1019 l 356 1019 l 293 958 l 293 596 l 192 492 l 192 481 l 293 376 l 293 13 l 356 -49 l 463 -49 l 463 -162 l 299 -162 l 164 -28 z "},"}":{"ha":493,"x_min":31,"x_max":438,"o":"m 31 -162 l 31 -49 l 138 -49 l 200 13 l 200 376 l 301 481 l 301 492 l 200 596 l 200 958 l 138 1019 l 31 1019 l 31 1133 l 194 1133 l 329 999 l 329 633 l 438 522 l 438 450 l 329 339 l 329 -28 l 194 -162 l 31 -162 z "},"[":{"ha":446,"x_min":104,"x_max":415,"o":"m 104 1133 l 415 1133 l 415 1021 l 233 1021 l 233 -50 l 415 -50 l 415 -162 l 104 -162 l 104 1133 z "},"]":{"ha":446,"x_min":31,"x_max":342,"o":"m 31 -162 l 31 -50 l 211 -50 l 211 1021 l 31 1021 l 31 1133 l 342 1133 l 342 -162 l 31 -162 z "},"⁽":{"ha":321,"x_min":69,"x_max":299,"o":"m 69 382 l 69 964 l 163 1057 l 299 1057 l 299 953 l 224 953 l 190 919 l 190 426 l 224 393 l 299 393 l 299 289 l 163 289 l 69 382 z "},"⁾":{"ha":321,"x_min":24,"x_max":251,"o":"m 24 289 l 24 393 l 97 393 l 132 426 l 132 919 l 97 953 l 24 953 l 24 1057 l 158 1057 l 251 964 l 251 382 l 158 289 l 24 289 z "},"-":{"ha":572,"x_min":69,"x_max":503,"o":"m 69 411 l 503 411 l 503 297 l 69 297 l 69 411 z "},"­":{"ha":572,"x_min":69,"x_max":503,"o":"m 69 411 l 503 411 l 503 297 l 69 297 l 69 411 z "},"–":{"ha":872,"x_min":69,"x_max":803,"o":"m 69 411 l 803 411 l 803 297 l 69 297 l 69 411 z "},"—":{"ha":1021,"x_min":69,"x_max":951,"o":"m 69 411 l 951 411 l 951 297 l 69 297 l 69 411 z "},"‒":{"ha":842,"x_min":69,"x_max":772,"o":"m 69 411 l 772 411 l 772 297 l 69 297 l 69 411 z "},"―":{"ha":1307,"x_min":69,"x_max":1238,"o":"m 69 411 l 1238 411 l 1238 297 l 69 297 l 69 411 z "},"‐":{"ha":1006,"x_min":69,"x_max":936,"o":"m 69 411 l 936 411 l 936 297 l 69 297 l 69 411 z "},"_":{"ha":614,"x_min":0,"x_max":614,"o":"m 0 -14 l 614 -14 l 614 -125 l 0 -125 l 0 -14 z "},"‚":{"ha":299,"x_min":65,"x_max":235,"o":"m 133 0 l 113 0 l 65 47 l 65 117 l 113 164 l 188 164 l 235 117 l 235 0 l 161 -176 l 88 -176 l 133 0 z "},"„":{"ha":533,"x_min":65,"x_max":468,"o":"m 133 0 l 113 0 l 65 47 l 65 117 l 113 164 l 188 164 l 235 117 l 235 0 l 161 -176 l 88 -176 l 133 0 m 367 0 l 346 0 l 299 47 l 299 117 l 346 164 l 421 164 l 468 117 l 468 0 l 394 -176 l 321 -176 l 367 0 z "},"“":{"ha":533,"x_min":65,"x_max":468,"o":"m 165 796 l 188 796 l 233 749 l 233 678 l 188 632 l 111 632 l 65 679 l 65 796 l 138 972 l 213 972 l 165 796 m 400 796 l 421 796 l 468 749 l 468 678 l 421 632 l 346 632 l 299 679 l 299 796 l 372 972 l 446 972 l 400 796 z "},"”":{"ha":533,"x_min":65,"x_max":468,"o":"m 133 808 l 113 808 l 65 856 l 65 925 l 113 972 l 188 972 l 235 925 l 235 808 l 161 632 l 88 632 l 133 808 m 367 808 l 346 808 l 299 856 l 299 925 l 346 972 l 421 972 l 468 925 l 468 808 l 394 632 l 321 632 l 367 808 z "},"‘":{"ha":299,"x_min":65,"x_max":233,"o":"m 165 796 l 188 796 l 233 749 l 233 678 l 188 632 l 111 632 l 65 679 l 65 796 l 138 972 l 213 972 l 165 796 z "},"’":{"ha":299,"x_min":65,"x_max":235,"o":"m 133 808 l 113 808 l 65 856 l 65 925 l 113 972 l 188 972 l 235 925 l 235 808 l 161 632 l 88 632 l 133 808 z "},"«":{"ha":742,"x_min":42,"x_max":672,"o":"m 42 322 l 42 425 l 356 682 l 356 538 l 163 378 l 163 369 l 356 210 l 356 65 l 42 322 m 358 322 l 358 425 l 672 682 l 672 538 l 479 378 l 479 369 l 672 210 l 672 65 l 358 322 z "},"»":{"ha":742,"x_min":69,"x_max":700,"o":"m 69 210 l 264 369 l 264 378 l 69 538 l 69 682 l 383 425 l 383 322 l 69 65 l 69 210 m 386 210 l 581 369 l 581 378 l 386 538 l 386 682 l 700 425 l 700 322 l 386 65 l 386 210 z "},"‹":{"ha":425,"x_min":42,"x_max":356,"o":"m 42 322 l 42 425 l 356 682 l 356 538 l 163 378 l 163 369 l 356 210 l 356 65 l 42 322 z "},"›":{"ha":425,"x_min":69,"x_max":383,"o":"m 69 210 l 264 369 l 264 378 l 69 538 l 69 682 l 383 425 l 383 322 l 69 65 l 69 210 z "},"\"":{"ha":528,"x_min":83,"x_max":444,"o":"m 83 814 l 83 972 l 217 972 l 217 814 l 194 629 l 106 629 l 83 814 m 311 814 l 311 972 l 444 972 l 444 814 l 422 629 l 333 629 l 311 814 z "},"'":{"ha":300,"x_min":83,"x_max":217,"o":"m 83 814 l 83 972 l 217 972 l 217 814 l 194 629 l 106 629 l 83 814 z "},"๚":{"ha":1025,"x_min":35,"x_max":928,"o":"m 496 550 l 413 468 l 143 468 l 35 575 l 35 686 l 124 775 l 239 775 l 325 689 l 325 596 l 293 560 l 343 564 l 381 564 l 500 682 l 500 775 l 625 775 l 625 556 l 682 556 l 803 674 l 803 775 l 928 775 l 928 0 l 800 0 l 800 540 l 708 454 l 625 454 l 625 0 l 496 0 l 496 550 m 210 574 l 240 606 l 240 660 l 210 692 l 156 692 l 124 660 l 124 606 l 156 574 l 210 574 z "},"๏":{"ha":849,"x_min":69,"x_max":779,"o":"m 69 244 l 69 531 l 281 742 l 568 742 l 779 531 l 779 244 l 568 35 l 281 35 l 69 244 m 522 139 l 672 289 l 672 486 l 522 638 l 326 638 l 176 486 l 176 289 l 326 139 l 522 139 m 254 317 l 254 458 l 354 558 l 494 558 l 594 458 l 594 317 l 496 218 l 353 218 l 254 317 m 457 311 l 501 354 l 501 421 l 456 465 l 393 465 l 347 421 l 347 354 l 392 311 l 457 311 z "},"๛":{"ha":1626,"x_min":69,"x_max":1585,"o":"m 69 196 l 69 574 l 201 707 l 479 707 l 586 599 l 586 326 l 493 242 l 372 242 l 288 326 l 288 436 l 368 515 l 440 515 l 471 489 l 476 489 l 474 522 l 474 547 l 426 593 l 257 593 l 196 531 l 196 238 l 257 176 l 581 176 l 644 239 l 757 606 l 858 606 l 965 322 l 1047 578 l 1133 578 l 1219 351 l 1294 550 l 1374 550 l 1435 431 l 1585 431 l 1585 329 l 1394 329 l 1344 429 l 1260 210 l 1176 210 l 1092 431 l 1011 182 l 918 182 l 818 443 l 744 185 l 624 63 l 201 63 l 69 196 m 458 321 l 490 353 l 490 407 l 458 439 l 406 439 l 375 407 l 375 353 l 406 321 l 458 321 z "},"ๆ":{"ha":707,"x_min":42,"x_max":603,"o":"m 472 654 l 446 682 l 424 682 l 343 606 l 257 683 l 199 683 l 149 633 l 231 633 l 310 554 l 310 461 l 231 381 l 122 381 l 42 461 l 42 651 l 168 789 l 271 789 l 343 721 l 411 789 l 517 789 l 603 694 l 603 -153 l 472 -153 l 472 654 m 200 453 l 233 485 l 233 533 l 200 565 l 154 565 l 122 535 l 122 485 l 154 453 l 200 453 z "},"ฯ":{"ha":724,"x_min":35,"x_max":626,"o":"m 496 550 l 413 468 l 143 468 l 35 575 l 35 686 l 124 775 l 239 775 l 325 689 l 325 596 l 293 560 l 343 564 l 381 564 l 500 682 l 500 775 l 626 775 l 626 0 l 496 0 l 496 550 m 210 574 l 240 606 l 240 660 l 210 692 l 156 692 l 124 660 l 124 606 l 156 574 l 210 574 z "}," ":{"ha":883,"x_min":0,"x_max":0,"o":""}," ":{"ha":351,"x_min":0,"x_max":0,"o":""},"฿":{"ha":908,"x_min":104,"x_max":846,"o":"m 846 400 l 846 140 l 706 0 l 511 0 l 511 -153 l 393 -153 l 393 0 l 104 0 l 104 972 l 393 972 l 393 1125 l 511 1125 l 511 972 l 671 972 l 803 840 l 803 571 l 740 507 l 846 400 m 235 544 l 393 544 l 393 858 l 235 858 l 235 544 m 511 858 l 511 544 l 610 544 l 672 607 l 672 797 l 610 858 l 511 858 m 393 114 l 393 435 l 235 435 l 235 114 l 393 114 m 715 361 l 642 435 l 511 435 l 511 114 l 642 114 l 715 186 l 715 361 z "},"₵":{"ha":888,"x_min":90,"x_max":832,"o":"m 699 713 l 699 775 l 618 856 l 535 856 l 535 117 l 618 117 l 699 197 l 699 260 l 832 260 l 832 150 l 682 0 l 535 0 l 535 -153 l 417 -153 l 417 0 l 246 0 l 90 156 l 90 817 l 246 972 l 417 972 l 417 1125 l 535 1125 l 535 972 l 682 972 l 832 822 l 832 713 l 699 713 m 417 856 l 310 856 l 224 769 l 224 203 l 310 117 l 417 117 l 417 856 z "},"¢":{"ha":753,"x_min":83,"x_max":697,"o":"m 568 460 l 568 517 l 506 579 l 275 579 l 213 517 l 213 175 l 275 113 l 506 113 l 568 175 l 568 232 l 697 232 l 697 133 l 564 0 l 453 0 l 453 -143 l 331 -143 l 331 0 l 215 0 l 83 132 l 83 560 l 215 692 l 331 692 l 331 831 l 453 831 l 453 692 l 564 692 l 697 558 l 697 460 l 568 460 z "},"₡":{"ha":888,"x_min":90,"x_max":832,"o":"m 699 713 l 699 761 l 558 117 l 618 117 l 699 197 l 699 260 l 832 260 l 832 150 l 682 0 l 533 0 l 500 -153 l 389 -153 l 422 0 l 307 0 l 274 -153 l 163 -153 l 204 42 l 90 156 l 90 817 l 246 972 l 407 972 l 440 1125 l 551 1125 l 518 972 l 633 972 l 667 1125 l 778 1125 l 733 921 l 832 822 l 832 713 l 699 713 m 238 189 l 382 856 l 310 856 l 224 769 l 224 203 l 238 189 m 447 117 l 608 856 l 493 856 l 332 117 l 447 117 z "},"¤":{"ha":893,"x_min":69,"x_max":824,"o":"m 719 268 l 824 163 l 744 83 l 642 188 l 606 151 l 289 151 l 253 189 l 149 83 l 69 163 l 175 268 l 136 307 l 136 624 l 175 663 l 69 768 l 149 847 l 253 740 l 289 776 l 606 776 l 642 740 l 744 847 l 824 768 l 719 663 l 758 624 l 758 307 l 719 268 m 635 333 l 635 594 l 564 664 l 331 664 l 260 594 l 260 333 l 331 265 l 564 265 l 635 333 z "},"$":{"ha":863,"x_min":83,"x_max":786,"o":"m 786 421 l 786 138 l 649 0 l 500 0 l 500 -153 l 382 -153 l 382 0 l 218 0 l 83 135 l 83 240 l 215 240 l 215 178 l 275 117 l 382 117 l 382 439 l 221 439 l 86 575 l 86 838 l 221 972 l 382 972 l 382 1125 l 500 1125 l 500 972 l 640 972 l 775 838 l 775 731 l 644 731 l 644 794 l 583 856 l 500 856 l 500 556 l 651 556 l 786 421 m 382 556 l 382 856 l 279 856 l 218 794 l 218 617 l 279 556 l 382 556 m 654 379 l 593 439 l 500 439 l 500 117 l 593 117 l 654 179 l 654 379 z "},"₫":{"ha":831,"x_min":83,"x_max":824,"o":"m 824 794 l 718 794 l 718 0 l 594 0 l 594 119 l 475 0 l 217 0 l 83 133 l 83 558 l 217 692 l 486 692 l 589 601 l 589 794 l 369 794 l 369 893 l 589 893 l 589 992 l 718 992 l 718 893 l 824 893 l 824 794 m 589 472 l 468 579 l 276 579 l 213 515 l 213 176 l 276 113 l 454 113 l 589 249 l 589 472 m 139 -89 l 681 -89 l 681 -194 l 139 -194 l 139 -89 z "},"€":{"ha":953,"x_min":35,"x_max":897,"o":"m 764 713 l 764 775 l 682 856 l 375 856 l 289 769 l 289 635 l 604 635 l 604 531 l 289 531 l 289 431 l 604 431 l 604 326 l 289 326 l 289 203 l 375 117 l 682 117 l 764 197 l 764 260 l 897 260 l 897 150 l 746 0 l 310 0 l 156 156 l 156 326 l 35 326 l 35 431 l 156 431 l 156 531 l 35 531 l 35 635 l 156 635 l 156 817 l 310 972 l 746 972 l 897 822 l 897 713 l 764 713 z "},"ƒ":{"ha":846,"x_min":42,"x_max":804,"o":"m 557 803 l 524 640 l 790 640 l 790 528 l 500 528 l 413 97 l 285 -31 l 42 -31 l 42 79 l 229 79 l 290 140 l 367 528 l 150 528 l 150 640 l 389 640 l 428 839 l 556 967 l 804 967 l 804 857 l 613 857 l 557 803 z "},"₲":{"ha":917,"x_min":90,"x_max":840,"o":"m 707 713 l 707 775 l 626 856 l 533 856 l 533 518 l 840 518 l 840 150 l 690 0 l 533 0 l 533 -153 l 415 -153 l 415 0 l 246 0 l 90 156 l 90 817 l 246 972 l 415 972 l 415 1125 l 533 1125 l 533 972 l 690 972 l 840 822 l 840 713 l 707 713 m 415 856 l 310 856 l 224 769 l 224 203 l 310 117 l 415 117 l 415 856 m 533 401 l 533 117 l 628 117 l 708 197 l 708 401 l 533 401 z "},"₤":{"ha":856,"x_min":69,"x_max":814,"o":"m 814 114 l 814 0 l 93 0 l 93 182 l 199 301 l 199 336 l 69 336 l 69 439 l 199 439 l 199 515 l 69 515 l 69 619 l 199 619 l 199 813 l 358 972 l 657 972 l 799 832 l 799 732 l 668 732 l 668 790 l 601 857 l 418 857 l 331 771 l 331 619 l 664 619 l 664 515 l 331 515 l 331 439 l 664 439 l 664 336 l 331 336 l 331 279 l 228 161 l 228 114 l 814 114 z "},"₺":{"ha":860,"x_min":69,"x_max":811,"o":"m 811 399 l 811 251 l 560 0 l 208 0 l 208 375 l 69 331 l 69 435 l 208 478 l 208 576 l 69 533 l 69 638 l 208 681 l 208 972 l 340 972 l 340 722 l 583 799 l 583 694 l 340 618 l 340 519 l 583 596 l 583 493 l 340 417 l 340 117 l 507 117 l 682 289 l 682 399 l 811 399 z "},"₦":{"ha":1071,"x_min":28,"x_max":1043,"o":"m 1043 435 l 904 435 l 904 0 l 779 0 l 501 435 l 294 435 l 294 0 l 167 0 l 167 435 l 28 435 l 28 544 l 167 544 l 167 972 l 292 972 l 565 544 l 776 544 l 776 972 l 904 972 l 904 544 l 1043 544 l 1043 435 m 431 544 l 297 753 l 294 753 l 294 544 l 431 544 m 776 435 l 636 435 l 774 219 l 776 219 l 776 435 z "},"₧":{"ha":1017,"x_min":28,"x_max":989,"o":"m 989 621 l 865 621 l 865 515 l 729 379 l 290 379 l 290 0 l 157 0 l 157 621 l 28 621 l 28 729 l 157 729 l 157 972 l 731 972 l 865 838 l 865 729 l 989 729 l 989 621 m 290 729 l 735 729 l 735 797 l 672 858 l 290 858 l 290 729 m 735 621 l 290 621 l 290 493 l 672 493 l 735 554 l 735 621 z "},"₱":{"ha":1017,"x_min":28,"x_max":989,"o":"m 865 711 l 865 638 l 989 638 l 989 549 l 865 549 l 865 515 l 729 379 l 290 379 l 290 0 l 157 0 l 157 549 l 28 549 l 28 638 l 157 638 l 157 711 l 28 711 l 28 800 l 157 800 l 157 972 l 731 972 l 865 838 l 865 800 l 989 800 l 989 711 l 865 711 m 290 800 l 732 800 l 672 858 l 290 858 l 290 800 m 735 711 l 290 711 l 290 638 l 735 638 l 735 711 m 729 549 l 290 549 l 290 493 l 672 493 l 729 549 z "},"₽":{"ha":938,"x_min":28,"x_max":875,"o":"m 875 838 l 875 515 l 739 379 l 300 379 l 300 257 l 565 257 l 565 153 l 300 153 l 300 0 l 167 0 l 167 153 l 28 153 l 28 257 l 167 257 l 167 379 l 28 379 l 28 488 l 167 488 l 167 972 l 740 972 l 875 838 m 743 797 l 681 858 l 300 858 l 300 493 l 681 493 l 743 554 l 743 797 z "},"₹":{"ha":908,"x_min":69,"x_max":839,"o":"m 839 869 l 615 869 l 667 818 l 667 732 l 839 732 l 839 629 l 667 629 l 667 535 l 560 428 l 672 306 l 672 0 l 539 0 l 539 269 l 421 397 l 69 397 l 69 510 l 474 510 l 536 571 l 536 629 l 69 629 l 69 732 l 536 732 l 536 797 l 474 858 l 69 858 l 69 972 l 839 972 l 839 869 z "},"£":{"ha":856,"x_min":69,"x_max":814,"o":"m 814 114 l 814 0 l 93 0 l 93 182 l 199 301 l 199 418 l 69 418 l 69 529 l 199 529 l 199 813 l 358 972 l 657 972 l 799 832 l 799 732 l 668 732 l 668 790 l 601 857 l 418 857 l 331 771 l 331 529 l 664 529 l 664 418 l 331 418 l 331 279 l 228 161 l 228 114 l 814 114 z "},"¥":{"ha":842,"x_min":14,"x_max":828,"o":"m 519 456 l 707 456 l 707 353 l 488 353 l 488 258 l 707 258 l 707 156 l 488 156 l 488 0 l 354 0 l 354 156 l 143 156 l 143 258 l 354 258 l 354 353 l 143 353 l 143 456 l 322 456 l 14 972 l 158 972 l 419 525 l 422 525 l 683 972 l 828 972 l 519 456 z "},"∙":{"ha":500,"x_min":63,"x_max":438,"o":"m 63 322 l 63 485 l 164 590 l 336 590 l 438 485 l 438 322 l 336 217 l 164 217 l 63 322 z "},"∕":{"ha":186,"x_min":-233,"x_max":440,"o":"m 304 974 l 440 974 l -99 0 l -233 0 l 304 974 z "},"+":{"ha":761,"x_min":69,"x_max":692,"o":"m 692 310 l 446 310 l 446 78 l 315 78 l 315 310 l 69 310 l 69 424 l 315 424 l 315 656 l 446 656 l 446 424 l 692 424 l 692 310 z "},"−":{"ha":761,"x_min":69,"x_max":692,"o":"m 69 424 l 692 424 l 692 310 l 69 310 l 69 424 z "},"×":{"ha":679,"x_min":69,"x_max":610,"o":"m 419 367 l 610 176 l 529 96 l 340 286 l 150 96 l 69 176 l 260 367 l 69 557 l 150 638 l 340 447 l 529 638 l 610 557 l 419 367 z "},"÷":{"ha":761,"x_min":69,"x_max":692,"o":"m 300 544 l 300 610 l 346 657 l 415 657 l 461 610 l 461 544 l 415 499 l 346 499 l 300 544 m 69 424 l 692 424 l 692 310 l 69 310 l 69 424 m 299 124 l 299 189 l 346 235 l 415 235 l 461 189 l 461 124 l 415 76 l 346 76 l 299 124 z "},"=":{"ha":761,"x_min":69,"x_max":692,"o":"m 69 543 l 692 543 l 692 429 l 69 429 l 69 543 m 69 304 l 692 304 l 692 190 l 69 190 l 69 304 z "},"≠":{"ha":761,"x_min":69,"x_max":692,"o":"m 472 429 l 418 304 l 692 304 l 692 190 l 367 190 l 289 14 l 158 14 l 238 190 l 69 190 l 69 304 l 288 304 l 343 429 l 69 429 l 69 543 l 394 543 l 472 719 l 601 719 l 524 543 l 692 543 l 692 429 l 472 429 z "},">":{"ha":831,"x_min":69,"x_max":775,"o":"m 69 129 l 633 399 l 633 407 l 69 665 l 69 794 l 775 468 l 775 338 l 69 0 l 69 129 z "},"<":{"ha":831,"x_min":60,"x_max":765,"o":"m 60 338 l 60 468 l 765 794 l 765 665 l 201 407 l 201 399 l 765 129 l 765 0 l 60 338 z "},"≥":{"ha":831,"x_min":69,"x_max":775,"o":"m 69 269 l 635 486 l 635 494 l 69 701 l 69 819 l 775 556 l 775 426 l 69 151 l 69 269 m 69 107 l 775 107 l 775 0 l 69 0 l 69 107 z "},"≤":{"ha":831,"x_min":60,"x_max":765,"o":"m 60 426 l 60 556 l 765 819 l 765 701 l 200 494 l 200 486 l 765 269 l 765 151 l 60 426 m 60 0 l 60 107 l 765 107 l 765 0 l 60 0 z "},"±":{"ha":761,"x_min":69,"x_max":692,"o":"m 692 543 l 692 429 l 446 429 l 446 204 l 315 204 l 315 429 l 69 429 l 69 543 l 315 543 l 315 774 l 446 774 l 446 543 l 692 543 m 69 113 l 692 113 l 692 0 l 69 0 l 69 113 z "},"≈":{"ha":779,"x_min":69,"x_max":710,"o":"m 285 515 l 247 515 l 196 464 l 196 396 l 69 396 l 69 493 l 201 625 l 315 625 l 494 492 l 528 492 l 585 550 l 585 611 l 710 611 l 710 514 l 578 383 l 464 383 l 285 515 m 285 214 l 247 214 l 196 163 l 196 94 l 69 94 l 69 192 l 201 324 l 315 324 l 494 192 l 528 192 l 585 249 l 585 311 l 710 311 l 710 214 l 578 82 l 464 82 l 285 214 z "},"~":{"ha":792,"x_min":69,"x_max":722,"o":"m 289 388 l 251 388 l 199 335 l 199 265 l 69 265 l 69 369 l 203 504 l 319 504 l 503 368 l 535 368 l 593 426 l 593 490 l 722 490 l 722 386 l 589 251 l 472 251 l 289 388 z "},"¬":{"ha":757,"x_min":69,"x_max":688,"o":"m 560 426 l 69 426 l 69 540 l 688 540 l 688 203 l 560 203 l 560 426 z "},"^":{"ha":893,"x_min":69,"x_max":824,"o":"m 378 972 l 513 972 l 824 346 l 690 346 l 449 838 l 440 838 l 203 346 l 69 346 l 378 972 z "},"∞":{"ha":1285,"x_min":69,"x_max":1215,"o":"m 69 317 l 69 514 l 251 697 l 458 697 l 636 518 l 813 697 l 1033 697 l 1215 514 l 1215 317 l 1033 133 l 854 133 l 664 325 l 472 133 l 251 133 l 69 317 m 424 247 l 585 408 l 410 583 l 308 583 l 199 474 l 199 357 l 308 247 l 424 247 m 976 247 l 1086 356 l 1086 475 l 976 583 l 861 583 l 714 436 l 903 247 l 976 247 z "},"∫":{"ha":663,"x_min":-7,"x_max":669,"o":"m -7 -65 l 115 -65 l 185 6 l 350 839 l 478 967 l 669 967 l 669 857 l 540 857 l 476 792 l 306 -47 l 179 -175 l -7 -175 l -7 -65 z "},"∏":{"ha":946,"x_min":104,"x_max":842,"o":"m 104 972 l 842 972 l 842 -153 l 713 -153 l 713 861 l 233 861 l 233 -153 l 104 -153 l 104 972 z "},"∑":{"ha":807,"x_min":69,"x_max":765,"o":"m 69 4 l 369 403 l 69 793 l 69 972 l 765 972 l 765 858 l 200 858 l 200 828 l 503 435 l 503 372 l 200 -31 l 200 -61 l 765 -61 l 765 -175 l 69 -175 l 69 4 z "},"√":{"ha":829,"x_min":56,"x_max":801,"o":"m 169 321 l 56 321 l 56 432 l 257 432 l 358 153 l 367 153 l 671 972 l 801 972 l 432 0 l 293 0 l 169 321 z "},"∂":{"ha":800,"x_min":69,"x_max":731,"o":"m 69 135 l 69 485 l 204 619 l 497 619 l 600 529 l 600 642 l 457 863 l 274 863 l 274 972 l 528 972 l 731 658 l 731 135 l 596 0 l 204 0 l 69 135 m 538 115 l 600 176 l 600 393 l 474 504 l 263 504 l 200 443 l 200 176 l 263 115 l 538 115 z "},"%":{"ha":1169,"x_min":69,"x_max":1100,"o":"m 69 558 l 69 875 l 167 972 l 388 972 l 485 875 l 485 558 l 388 461 l 167 461 l 69 558 m 786 972 l 922 972 l 388 0 l 251 0 l 786 972 m 332 561 l 371 599 l 371 835 l 332 872 l 222 872 l 185 835 l 185 599 l 222 561 l 332 561 m 685 97 l 685 414 l 782 511 l 1003 511 l 1100 414 l 1100 97 l 1003 0 l 782 0 l 685 97 m 947 100 l 986 138 l 986 374 l 947 411 l 838 411 l 800 374 l 800 138 l 838 100 l 947 100 z "},"‰":{"ha":1668,"x_min":69,"x_max":1599,"o":"m 788 974 l 922 974 l 388 0 l 251 0 l 788 974 m 69 558 l 69 875 l 167 972 l 388 972 l 485 875 l 485 558 l 388 461 l 167 461 l 69 558 m 332 561 l 371 599 l 371 835 l 332 872 l 222 872 l 185 835 l 185 599 l 222 561 l 332 561 m 685 97 l 685 414 l 782 511 l 1003 511 l 1100 414 l 1100 97 l 1003 0 l 782 0 l 685 97 m 1183 97 l 1183 414 l 1281 511 l 1501 511 l 1599 414 l 1599 97 l 1501 0 l 1281 0 l 1183 97 m 947 100 l 986 138 l 986 374 l 947 411 l 838 411 l 800 374 l 800 138 l 838 100 l 947 100 m 1446 100 l 1483 138 l 1483 374 l 1446 411 l 1336 411 l 1297 374 l 1297 138 l 1336 100 l 1446 100 z "},"↑":{"ha":581,"x_min":69,"x_max":511,"o":"m 231 647 l 69 517 l 69 643 l 269 813 l 311 813 l 511 643 l 511 517 l 350 647 l 350 -47 l 231 -47 l 231 647 z "},"→":{"ha":999,"x_min":69,"x_max":929,"o":"m 764 321 l 69 321 l 69 440 l 764 440 l 632 601 l 760 601 l 929 401 l 929 360 l 760 160 l 632 160 l 764 321 z "},"↓":{"ha":581,"x_min":69,"x_max":511,"o":"m 69 122 l 69 250 l 231 118 l 231 813 l 350 813 l 350 118 l 511 250 l 511 122 l 311 -47 l 269 -47 l 69 122 z "},"←":{"ha":999,"x_min":69,"x_max":929,"o":"m 69 360 l 69 401 l 239 601 l 367 601 l 235 440 l 929 440 l 929 321 l 235 321 l 367 160 l 239 160 l 69 360 z "},"◆":{"ha":872,"x_min":69,"x_max":803,"o":"m 69 458 l 435 832 l 803 458 l 435 86 l 69 458 z "},"◊":{"ha":769,"x_min":69,"x_max":700,"o":"m 69 472 l 311 944 l 458 944 l 700 472 l 458 0 l 311 0 l 69 472 m 389 121 l 564 472 l 389 824 l 381 824 l 206 472 l 381 121 l 389 121 z "},"■":{"ha":806,"x_min":69,"x_max":736,"o":"m 69 838 l 736 838 l 736 165 l 69 165 l 69 838 z "},"▲":{"ha":944,"x_min":69,"x_max":875,"o":"m 472 817 l 875 0 l 69 0 l 472 817 z "},"▶":{"ha":946,"x_min":69,"x_max":876,"o":"m 69 814 l 876 406 l 69 -3 l 69 814 z "},"▼":{"ha":944,"x_min":69,"x_max":875,"o":"m 69 811 l 875 811 l 472 -7 l 69 811 z "},"◀":{"ha":946,"x_min":69,"x_max":876,"o":"m 69 406 l 876 814 l 876 -3 l 69 406 z "},"△":{"ha":944,"x_min":69,"x_max":875,"o":"m 472 817 l 875 0 l 69 0 l 472 817 m 715 96 l 472 613 l 226 96 l 715 96 z "},"▷":{"ha":949,"x_min":69,"x_max":879,"o":"m 69 811 l 879 406 l 69 -1 l 69 811 m 685 406 l 171 651 l 171 156 l 685 406 z "},"▽":{"ha":944,"x_min":69,"x_max":875,"o":"m 69 813 l 875 813 l 472 -4 l 69 813 m 715 718 l 226 718 l 472 200 l 715 718 z "},"◁":{"ha":949,"x_min":69,"x_max":879,"o":"m 69 406 l 879 811 l 879 -1 l 69 406 m 779 651 l 265 406 l 779 156 l 779 651 z "},"":{"ha":776,"x_min":104,"x_max":672,"o":"m 104 989 l 672 989 l 672 0 l 104 0 l 104 989 m 594 75 l 594 913 l 182 913 l 182 75 l 594 75 z "},"@":{"ha":1138,"x_min":69,"x_max":1068,"o":"m 697 204 l 697 240 l 606 150 l 440 150 l 314 276 l 314 526 l 442 654 l 629 654 l 693 590 l 693 651 l 796 651 l 796 254 l 874 254 l 949 329 l 949 574 l 740 782 l 403 782 l 190 568 l 190 247 l 400 36 l 963 36 l 963 -72 l 342 -72 l 69 200 l 69 615 l 344 890 l 796 890 l 1068 618 l 1068 293 l 925 150 l 751 150 l 697 204 m 678 482 l 610 549 l 490 549 l 435 494 l 435 313 l 492 256 l 589 256 l 678 344 l 678 482 z "},"&":{"ha":897,"x_min":83,"x_max":869,"o":"m 83 135 l 83 403 l 179 500 l 124 557 l 124 838 l 258 972 l 607 972 l 739 840 l 739 746 l 610 746 l 610 796 l 551 856 l 313 856 l 253 796 l 253 599 l 315 536 l 651 536 l 651 626 l 779 626 l 779 536 l 869 536 l 869 422 l 779 422 l 779 135 l 644 0 l 218 0 l 83 135 m 589 117 l 650 179 l 650 422 l 275 422 l 213 361 l 213 178 l 275 117 l 589 117 z "},"¶":{"ha":790,"x_min":69,"x_max":686,"o":"m 354 436 l 213 436 l 69 579 l 69 829 l 213 972 l 478 972 l 478 -282 l 354 -282 l 354 436 m 561 972 l 686 972 l 686 -282 l 561 -282 l 561 972 z "},"§":{"ha":736,"x_min":69,"x_max":667,"o":"m 667 360 l 586 279 l 646 219 l 646 54 l 525 -67 l 219 -67 l 99 54 l 99 144 l 229 144 l 229 89 l 276 43 l 469 43 l 517 89 l 517 189 l 469 239 l 186 239 l 69 356 l 69 547 l 147 625 l 90 682 l 90 851 l 211 972 l 518 972 l 639 851 l 639 761 l 508 761 l 508 817 l 461 863 l 267 863 l 219 817 l 219 715 l 267 667 l 546 667 l 667 546 l 667 360 m 490 346 l 538 392 l 538 513 l 490 560 l 246 560 l 199 514 l 199 393 l 246 346 l 490 346 z "},"©":{"ha":1146,"x_min":69,"x_max":1076,"o":"m 69 253 l 69 719 l 322 972 l 822 972 l 1076 719 l 1076 253 l 822 0 l 322 0 l 69 253 m 771 108 l 961 299 l 961 674 l 771 864 l 375 864 l 185 674 l 185 299 l 375 108 l 771 108 m 293 350 l 293 622 l 443 772 l 704 774 l 854 624 l 854 538 l 740 538 l 740 593 l 665 667 l 489 667 l 411 589 l 411 385 l 489 306 l 664 306 l 740 381 l 740 440 l 854 440 l 854 350 l 704 200 l 443 200 l 293 350 z "},"®":{"ha":746,"x_min":69,"x_max":676,"o":"m 69 546 l 69 822 l 232 985 l 514 985 l 676 822 l 676 546 l 514 383 l 232 383 l 69 546 m 476 465 l 588 576 l 588 792 l 476 903 l 269 903 l 158 792 l 158 576 l 269 465 l 476 465 m 253 838 l 449 838 l 507 779 l 507 700 l 465 660 l 508 613 l 508 539 l 432 539 l 432 594 l 399 631 l 328 631 l 328 539 l 253 539 l 253 838 m 411 696 l 432 717 l 432 754 l 411 774 l 328 774 l 328 696 l 411 696 z "},"℗":{"ha":1146,"x_min":69,"x_max":1076,"o":"m 69 253 l 69 719 l 322 972 l 822 972 l 1076 719 l 1076 253 l 822 0 l 322 0 l 69 253 m 771 108 l 961 299 l 961 674 l 771 864 l 375 864 l 185 674 l 185 299 l 375 108 l 771 108 m 350 769 l 743 769 l 854 658 l 854 475 l 743 364 l 467 364 l 467 201 l 350 201 l 350 769 m 696 461 l 740 506 l 740 626 l 696 671 l 464 671 l 464 461 l 696 461 z "},"™":{"ha":1103,"x_min":69,"x_max":1033,"o":"m 211 869 l 69 869 l 69 972 l 474 972 l 474 869 l 332 869 l 332 488 l 211 488 l 211 869 m 531 972 l 647 972 l 781 700 l 782 700 l 918 972 l 1033 972 l 1033 488 l 918 488 l 918 764 l 915 764 l 810 564 l 753 564 l 649 764 l 646 764 l 646 488 l 531 488 l 531 972 z "},"°":{"ha":475,"x_min":69,"x_max":406,"o":"m 69 753 l 69 889 l 164 985 l 311 985 l 406 889 l 406 753 l 311 657 l 164 657 l 69 753 m 271 747 l 311 788 l 311 854 l 271 894 l 204 894 l 164 854 l 164 788 l 204 747 l 271 747 z "},"′":{"ha":313,"x_min":69,"x_max":257,"o":"m 126 972 l 257 972 l 182 685 l 69 685 l 126 972 z "},"″":{"ha":514,"x_min":69,"x_max":458,"o":"m 126 972 l 257 972 l 182 685 l 69 685 l 126 972 m 328 972 l 458 972 l 382 685 l 269 685 l 328 972 z "},"|":{"ha":339,"x_min":104,"x_max":235,"o":"m 104 1175 l 235 1175 l 235 -283 l 104 -283 l 104 1175 z "},"¦":{"ha":339,"x_min":104,"x_max":235,"o":"m 104 1175 l 235 1175 l 235 572 l 104 572 l 104 1175 m 104 347 l 235 347 l 235 -283 l 104 -283 l 104 347 z "},"ℓ":{"ha":676,"x_min":7,"x_max":607,"o":"m 607 224 l 607 121 l 486 0 l 268 0 l 147 121 l 147 344 l 54 297 l 7 393 l 147 464 l 147 851 l 268 972 l 481 972 l 601 851 l 601 572 l 278 410 l 278 158 l 325 111 l 429 111 l 476 158 l 476 224 l 607 224 m 278 529 l 471 625 l 471 815 l 424 863 l 325 863 l 278 815 l 278 529 z "},"†":{"ha":717,"x_min":69,"x_max":647,"o":"m 293 579 l 69 579 l 69 692 l 293 692 l 294 935 l 425 935 l 424 692 l 647 692 l 647 579 l 424 579 l 424 -139 l 293 -139 l 293 579 z "},"‡":{"ha":717,"x_min":69,"x_max":647,"o":"m 424 579 l 424 217 l 647 217 l 647 104 l 424 104 l 424 -139 l 293 -139 l 293 104 l 69 104 l 69 217 l 293 217 l 293 579 l 69 579 l 69 692 l 293 692 l 293 935 l 424 935 l 424 692 l 647 692 l 647 579 l 424 579 z "},"℮":{"ha":1106,"x_min":76,"x_max":1029,"o":"m 569 -14 q 317 45 429 -14 q 140 210 204 104 q 76 454 76 317 q 140 698 76 592 q 313 863 203 804 q 560 922 422 922 q 800 867 693 922 q 968 710 907 811 q 1029 476 1029 608 l 1029 453 l 278 453 l 278 132 q 394 56 314 85 q 569 28 475 28 q 777 75 679 28 q 928 200 875 122 l 979 200 q 810 45 922 104 q 569 -14 697 -14 m 844 496 l 844 785 q 728 853 806 826 q 560 881 650 881 q 396 856 474 881 q 278 790 318 831 l 278 496 l 844 496 z "},"℠":{"ha":1126,"x_min":69,"x_max":1057,"o":"m 69 572 l 69 639 l 188 639 l 188 603 l 206 585 l 347 585 l 365 603 l 365 665 l 347 683 l 156 683 l 71 767 l 71 889 l 154 972 l 394 972 l 478 889 l 478 821 l 361 821 l 361 857 l 343 875 l 207 875 l 189 857 l 189 799 l 207 779 l 401 779 l 483 697 l 483 574 l 397 488 l 154 488 l 69 572 m 554 972 l 671 972 l 804 700 l 806 700 l 942 972 l 1057 972 l 1057 488 l 942 488 l 942 764 l 939 764 l 833 564 l 776 564 l 672 764 l 669 764 l 669 488 l 554 488 l 554 972 z "},"ʼ":{"ha":292,"x_min":65,"x_max":235,"o":"m 133 842 l 113 842 l 65 889 l 65 958 l 113 1006 l 188 1006 l 235 958 l 235 842 l 161 665 l 88 665 l 133 842 z "},"ʻ":{"ha":335,"x_min":97,"x_max":265,"o":"m 197 926 l 218 926 l 265 879 l 265 808 l 218 763 l 143 763 l 97 810 l 97 926 l 169 1103 l 243 1103 l 197 926 z "},"ˉ":{"ha":683,"x_min":106,"x_max":578,"o":"m 106 874 l 578 874 l 578 785 l 106 785 l 106 874 z "},"ˋ":{"ha":0,"x_min":-154,"x_max":168,"o":"m -154 992 l -11 992 l 168 768 l 50 768 l -154 992 z "},"ʿ":{"ha":0,"x_min":-104,"x_max":47,"o":"m -104 832 l -104 956 l -19 1040 l 47 1040 l 47 957 l 17 957 l -18 922 l -18 864 l 17 831 l 47 831 l 47 747 l -19 747 l -104 832 z "},"ʾ":{"ha":0,"x_min":-47,"x_max":104,"o":"m -47 831 l -17 831 l 18 864 l 18 922 l -17 957 l -47 957 l -47 1040 l 19 1040 l 104 956 l 104 832 l 19 747 l -47 747 l -47 831 z "},"ˊ":{"ha":0,"x_min":-154,"x_max":168,"o":"m 26 992 l 168 992 l -35 768 l -154 768 l 26 992 z "},"ˌ":{"ha":0,"x_min":-62,"x_max":63,"o":"m -62 -53 l 63 -53 l 63 -272 l -62 -272 l -62 -53 z "},"ˈ":{"ha":0,"x_min":-62,"x_max":63,"o":"m -62 1011 l 63 1011 l 63 792 l -62 792 l -62 1011 z "},"̈":{"ha":0,"x_min":-221,"x_max":221,"o":"m -221 826 l -221 893 l -178 936 l -106 936 l -64 893 l -64 826 l -106 783 l -178 783 l -221 826 m 64 826 l 64 893 l 106 936 l 178 936 l 221 893 l 221 826 l 178 783 l 106 783 l 64 826 z "},"̇":{"ha":0,"x_min":-81,"x_max":81,"o":"m -81 825 l -81 894 l -36 939 l 36 939 l 81 894 l 81 825 l 36 781 l -36 781 l -81 825 z "},"̀":{"ha":0,"x_min":-196,"x_max":51,"o":"m -196 994 l -53 994 l 51 771 l -67 771 l -196 994 z "},"́":{"ha":0,"x_min":-57,"x_max":190,"o":"m 47 994 l 190 994 l 61 771 l -57 771 l 47 994 z "},"̋":{"ha":0,"x_min":-174,"x_max":285,"o":"m -71 994 l 67 994 l -61 771 l -174 771 l -71 994 m 149 994 l 285 994 l 158 771 l 44 771 l 149 994 z "},"̂":{"ha":0,"x_min":-219,"x_max":219,"o":"m -58 975 l 58 975 l 219 771 l 94 771 l 4 889 l -4 889 l -94 771 l -219 771 l -58 975 z "},"̌":{"ha":0,"x_min":-219,"x_max":219,"o":"m -219 975 l -94 975 l -4 857 l 4 857 l 94 975 l 219 975 l 58 771 l -58 771 l -219 975 z "},"̆":{"ha":0,"x_min":-206,"x_max":206,"o":"m -206 875 l -206 967 l -96 967 l -96 906 l -50 860 l 50 860 l 96 906 l 96 967 l 206 967 l 206 875 l 100 771 l -100 771 l -206 875 z "},"̊":{"ha":0,"x_min":-151,"x_max":151,"o":"m -151 846 l -151 969 l -67 1054 l 67 1054 l 151 969 l 151 846 l 67 761 l -67 761 l -151 846 m 32 842 l 67 878 l 67 938 l 32 972 l -32 972 l -67 938 l -67 878 l -32 842 l 32 842 z "},"̃":{"ha":0,"x_min":-207,"x_max":207,"o":"m -58 857 l -86 857 l -110 833 l -110 793 l -207 793 l -207 867 l -126 949 l -31 949 l 58 876 l 88 876 l 110 899 l 110 940 l 207 940 l 207 865 l 126 785 l 31 785 l -58 857 z "},"̄":{"ha":0,"x_min":-208,"x_max":208,"o":"m -208 899 l 208 899 l 208 793 l -208 793 l -208 899 z "}}}
